  0
SECTION
  2
HEADER
  9
$ACADVER
  1
AC1014
  9
$HANDSEED
  5
FFFF
  9
$MEASUREMENT
 70
     1
  0
ENDSEC
  0
SECTION
  2
TABLES
  0
TABLE
  2
VPORT
  5
8
330
0
100
AcDbSymbolTable
 70
     4
  0
VPORT
  5
2E
330
8
100
AcDbSymbolTableRecord
100
AcDbViewportTableRecord
  2
*ACTIVE
 70
     0
 10
0.0
 20
0.0
 11
1.0
 21
1.0
 12
210.0
 22
148.5
 13
0.0
 23
0.0
 14
10.0
 24
10.0
 15
10.0
 25
10.0
 16
0.0
 26
0.0
 36
1.0
 17
0.0
 27
0.0
 37
0.0
 40
341.0
 41
1.24
 42
50.0
 43
0.0
 44
0.0
 50
0.0
 51
0.0
 71
     0
 72
   100
 73
     1
 74
     3
 75
     0
 76
     0
 77
     0
 78
     0
  0
ENDTAB
  0
TABLE
  2
LTYPE
  5
5
330
0
100
AcDbSymbolTable
 70
     1
  0
LTYPE
  5
14
330
5
100
AcDbSymbolTableRecord
100
AcDbLinetypeTableRecord
  2
BYBLOCK
 70
     0
  3

 72
    65
 73
     0
 40
0.0
  0
LTYPE
  5
15
330
5
100
AcDbSymbolTableRecord
100
AcDbLinetypeTableRecord
  2
BYLAYER
 70
     0
  3

 72
    65
 73
     0
 40
0.0
  0
LTYPE
  5
16
330
5
100
AcDbSymbolTableRecord
100
AcDbLinetypeTableRecord
  2
CONTINUOUS
 70
     0
  3
Solid line
 72
    65
 73
     0
 40
0.0
  0
ENDTAB
  0
TABLE
  2
LAYER
  5
2
100
AcDbSymbolTable
 70
2
  0
LAYER
  5
50
100
AcDbSymbolTableRecord
100
AcDbLayerTableRecord
  2
0
 70
0
  6
CONTINUOUS
  0
LAYER
  5
51
100
AcDbSymbolTableRecord
100
AcDbLayerTableRecord
  2
Layer_1
 70
0
  6
CONTINUOUS
  0
ENDTAB
  0
TABLE
  2
STYLE
  5
3
330
0
100
AcDbSymbolTable
 70
     1
  0
STYLE
  5
11
330
3
100
AcDbSymbolTableRecord
100
AcDbTextStyleTableRecord
  2
STANDARD
 70
     0
 40
0.0
 41
1.0
 50
0.0
 71
     0
 42
2.5
  3
txt
  4

  0
ENDTAB
  0
TABLE
  2
VIEW
  5
6
330
0
100
AcDbSymbolTable
 70
     0
  0
ENDTAB
  0
TABLE
  2
UCS
  5
7
330
0
100
AcDbSymbolTable
 70
     0
  0
ENDTAB
  0
TABLE
  2
APPID
  5
9
330
0
100
AcDbSymbolTable
 70
     2
  0
APPID
  5
12
330
9
100
AcDbSymbolTableRecord
100
AcDbRegAppTableRecord
  2
ACAD
 70
     0
  0
ENDTAB
  0
TABLE
  2
DIMSTYLE
  5
A
330
0
100
AcDbSymbolTable
 70
     1
  0
DIMSTYLE
105
27
330
A
100
AcDbSymbolTableRecord
100
AcDbDimStyleTableRecord
  2
ISO-25
 70
     0
  3

  4

  5

  6

  7

 40
1.0
 41
2.5
 42
0.625
 43
3.75
 44
1.25
 45
0.0
 46
0.0
 47
0.0
 48
0.0
140
2.5
141
2.5
142
0.0
143
0.03937007874016
144
1.0
145
0.0
146
1.0
147
0.625
 71
     0
 72
     0
 73
     0
 74
     0
 75
     0
 76
     0
 77
     1
 78
     8
170
     0
171
     3
172
     1
173
     0
174
     0
175
     0
176
     0
177
     0
178
     0
270
     2
271
     2
272
     2
273
     2
274
     3
340
11
275
     0
280
     0
281
     0
282
     0
283
     0
284
     8
285
     0
286
     0
287
     3
288
     0
  0
ENDTAB
  0
TABLE
  2
BLOCK_RECORD
  5
1
330
0
100
AcDbSymbolTable
 70
     1
  0
BLOCK_RECORD
  5
1F
330
1
100
AcDbSymbolTableRecord
100
AcDbBlockTableRecord
  2
*MODEL_SPACE
  0
BLOCK_RECORD
  5
1B
330
1
100
AcDbSymbolTableRecord
100
AcDbBlockTableRecord
  2
*PAPER_SPACE
  0
ENDTAB
  0
ENDSEC
  0
SECTION
  2
BLOCKS
  0
BLOCK
  5
20
330
1F
100
AcDbEntity
  8
0
100
AcDbBlockBegin
  2
*MODEL_SPACE
 70
     0
 10
0.0
 20
0.0
 30
0.0
  3
*MODEL_SPACE
  1

  0
ENDBLK
  5
21
330
1F
100
AcDbEntity
  8
0
100
AcDbBlockEnd
  0
BLOCK
  5
1C
330
1B
100
AcDbEntity
 67
     1
  8
0
100
AcDbBlockBegin
  2
*PAPER_SPACE
  1

  0
ENDBLK
  5
1D
330
1B
100
AcDbEntity
 67
     1
  8
0
100
AcDbBlockEnd
  0
ENDSEC
  0
SECTION
  2
ENTITIES
  0
SPLINE
  5
100
100
AcDbEntity
  8
Layer_1
 62
1
100
AcDbSpline
 70
8
 71
3
 72
8
 73
4
 74
0
 40
0
 40
0
 40
0
 40
0
 40
1
 40
1
 40
1
 40
1
 10
365.133829
 20
0.499992
 30
0.0
 10
365.133829
 20
0.499992
 30
0.0
 10
366.359080
 20
221.298552
 30
0.0
 10
366.359080
 20
282.667383
 30
0.0
  0
SPLINE
  5
101
100
AcDbEntity
  8
Layer_1
 62
1
100
AcDbSpline
 70
8
 71
3
 72
8
 73
4
 74
0
 40
0
 40
0
 40
0
 40
0
 40
1
 40
1
 40
1
 40
1
 10
366.359080
 20
282.667383
 30
0.0
 10
366.359080
 20
290.239553
 30
0.0
 10
373.502610
 20
337.913682
 30
0.0
 10
432.345768
 20
401.915671
 30
0.0
  0
SPLINE
  5
102
100
AcDbEntity
  8
Layer_1
 62
1
100
AcDbSpline
 70
8
 71
3
 72
8
 73
4
 74
0
 40
0
 40
0
 40
0
 40
0
 40
1
 40
1
 40
1
 40
1
 10
432.345768
 20
401.915671
 30
0.0
 10
500.307077
 20
475.835406
 30
0.0
 10
599.520430
 20
513.692816
 30
0.0
 10
599.520430
 20
513.692816
 30
0.0
  0
LWPOLYLINE
  5
103
100
AcDbEntity
  8
Layer_1
 62
1
100
AcDbPolyline
 90
2
 70
0
 10
0.522822
 20
0.499992
 30
0.0
 10
365.133829
 20
0.499992
 30
0.0
  0
SPLINE
  5
104
100
AcDbEntity
  8
Layer_1
 62
1
100
AcDbSpline
 70
8
 71
3
 72
8
 73
4
 74
0
 40
0
 40
0
 40
0
 40
0
 40
1
 40
1
 40
1
 40
1
 10
479.115985
 20
620.107643
 30
0.0
 10
479.115985
 20
620.107643
 30
0.0
 10
466.777528
 20
627.815963
 30
0.0
 10
461.129516
 20
630.870615
 30
0.0
  0
SPLINE
  5
105
100
AcDbEntity
  8
Layer_1
 62
1
100
AcDbSpline
 70
8
 71
3
 72
8
 73
4
 74
0
 40
0
 40
0
 40
0
 40
0
 40
1
 40
1
 40
1
 40
1
 10
461.129516
 20
630.870615
 30
0.0
 10
451.286454
 20
636.194117
 30
0.0
 10
430.952029
 20
645.841701
 30
0.0
 10
430.952029
 20
645.841701
 30
0.0
  0
LWPOLYLINE
  5
106
100
AcDbEntity
  8
Layer_1
 62
1
100
AcDbPolyline
 90
7
 70
0
 10
599.520430
 20
513.692816
 30
0.0
 10
572.830579
 20
544.749912
 30
0.0
 10
550.134659
 20
548.511751
 30
0.0
 10
545.900198
 20
570.823020
 30
0.0
 10
510.046126
 20
598.591095
 30
0.0
 10
487.109912
 20
600.438566
 30
0.0
 10
479.115985
 20
620.107643
 30
0.0
  0
SPLINE
  5
107
100
AcDbEntity
  8
Layer_1
 62
1
100
AcDbSpline
 70
8
 71
3
 72
8
 73
4
 74
0
 40
0
 40
0
 40
0
 40
0
 40
1
 40
1
 40
1
 40
1
 10
148.687066
 20
671.954642
 30
0.0
 10
148.687066
 20
671.954642
 30
0.0
 10
117.719583
 20
665.371423
 30
0.0
 10
106.565970
 20
662.185319
 30
0.0
  0
SPLINE
  5
108
100
AcDbEntity
  8
Layer_1
 62
1
100
AcDbSpline
 70
8
 71
3
 72
8
 73
4
 74
0
 40
0
 40
0
 40
0
 40
0
 40
1
 40
1
 40
1
 40
1
 10
106.565970
 20
662.185319
 30
0.0
 10
101.530921
 20
660.747020
 30
0.0
 10
89.954682
 20
656.628204
 30
0.0
 10
89.954682
 20
656.628204
 30
0.0
  0
LWPOLYLINE
  5
109
100
AcDbEntity
  8
Layer_1
 62
1
100
AcDbPolyline
 90
15
 70
0
 10
430.952029
 20
645.841701
 30
0.0
 10
409.808891
 20
643.065695
 30
0.0
 10
399.946827
 20
658.613326
 30
0.0
 10
362.869170
 20
668.850251
 30
0.0
 10
342.007970
 20
664.261160
 30
0.0
 10
328.730603
 20
677.178440
 30
0.0
 10
298.340405
 20
683.496321
 30
0.0
 10
288.742446
 20
676.673873
 30
0.0
 10
279.049546
 20
686.302715
 30
0.0
 10
259.594919
 20
687.003473
 30
0.0
 10
243.091461
 20
674.944071
 30
0.0
 10
221.669931
 20
685.096853
 30
0.0
 10
182.039582
 20
678.306554
 30
0.0
 10
168.835954
 20
667.432176
 30
0.0
 10
148.687066
 20
671.954642
 30
0.0
  0
SPLINE
  5
10a
100
AcDbEntity
  8
Layer_1
 62
1
100
AcDbSpline
 70
8
 71
3
 72
8
 73
4
 74
0
 40
0
 40
0
 40
0
 40
0
 40
1
 40
1
 40
1
 40
1
 10
812.468081
 20
4.435765
 30
0.0
 10
812.468081
 20
4.435765
 30
0.0
 10
808.810934
 20
98.269376
 30
0.0
 10
839.075274
 20
150.688739
 30
0.0
  0
SPLINE
  5
10b
100
AcDbEntity
  8
Layer_1
 62
1
100
AcDbSpline
 70
8
 71
3
 72
8
 73
4
 74
0
 40
0
 40
0
 40
0
 40
0
 40
1
 40
1
 40
1
 40
1
 10
839.075274
 20
150.688739
 30
0.0
 10
922.940797
 20
295.948114
 30
0.0
 10
1034.118282
 20
305.738186
 30
0.0
 10
1034.118282
 20
305.738186
 30
0.0
  0
LWPOLYLINE
  5
10c
100
AcDbEntity
  8
Layer_1
 62
1
100
AcDbPolyline
 90
5
 70
0
 10
89.954682
 20
656.628204
 30
0.0
 10
80.465611
 20
643.705607
 30
0.0
 10
62.280982
 20
645.298734
 30
0.0
 10
0.499994
 20
615.718289
 30
0.0
 10
0.522822
 20
0.499992
 30
0.0
  0
SPLINE
  5
10d
100
AcDbEntity
  8
Layer_1
 62
1
100
AcDbSpline
 70
8
 71
3
 72
8
 73
4
 74
0
 40
0
 40
0
 40
0
 40
0
 40
1
 40
1
 40
1
 40
1
 10
896.163389
 20
431.646077
 30
0.0
 10
896.163389
 20
431.646077
 30
0.0
 10
884.350461
 20
439.637283
 30
0.0
 10
880.070033
 20
442.108603
 30
0.0
  0
SPLINE
  5
10e
100
AcDbEntity
  8
Layer_1
 62
1
100
AcDbSpline
 70
8
 71
3
 72
8
 73
4
 74
0
 40
0
 40
0
 40
0
 40
0
 40
1
 40
1
 40
1
 40
1
 10
880.070033
 20
442.108603
 30
0.0
 10
873.990175
 20
445.618801
 30
0.0
 10
861.253768
 20
451.550845
 30
0.0
 10
861.253768
 20
451.550845
 30
0.0
  0
LWPOLYLINE
  5
10f
100
AcDbEntity
  8
Layer_1
 62
1
100
AcDbPolyline
 90
10
 70
0
 10
1034.118282
 20
305.738186
 30
0.0
 10
1005.711958
 20
339.197738
 30
0.0
 10
985.560542
 20
336.925411
 30
0.0
 10
990.515952
 20
355.118318
 30
0.0
 10
955.053213
 20
386.475734
 30
0.0
 10
932.630799
 20
387.493750
 30
0.0
 10
929.203059
 20
407.655337
 30
0.0
 10
912.439161
 20
420.067230
 30
0.0
 10
896.865164
 20
418.067444
 30
0.0
 10
896.163389
 20
431.646077
 30
0.0
  0
SPLINE
  5
110
100
AcDbEntity
  8
Layer_1
 62
1
100
AcDbSpline
 70
8
 71
3
 72
8
 73
4
 74
0
 40
0
 40
0
 40
0
 40
0
 40
1
 40
1
 40
1
 40
1
 10
776.307602
 20
471.521906
 30
0.0
 10
776.307602
 20
471.521906
 30
0.0
 10
764.247319
 20
473.075632
 30
0.0
 10
759.356800
 20
473.423311
 30
0.0
  0
SPLINE
  5
111
100
AcDbEntity
  8
Layer_1
 62
1
100
AcDbSpline
 70
8
 71
3
 72
8
 73
4
 74
0
 40
0
 40
0
 40
0
 40
0
 40
1
 40
1
 40
1
 40
1
 10
759.356800
 20
473.423311
 30
0.0
 10
751.434721
 20
473.986536
 30
0.0
 10
735.550652
 20
474.397900
 30
0.0
 10
735.550652
 20
474.397900
 30
0.0
  0
LWPOLYLINE
  5
112
100
AcDbEntity
  8
Layer_1
 62
1
100
AcDbPolyline
 90
6
 70
0
 10
861.253768
 20
451.550845
 30
0.0
 10
844.835002
 20
443.904786
 30
0.0
 10
835.301983
 20
460.874411
 30
0.0
 10
801.990588
 20
467.352861
 30
0.0
 10
788.785032
 20
456.649844
 30
0.0
 10
776.307602
 20
471.521906
 30
0.0
  0
SPLINE
  5
113
100
AcDbEntity
  8
Layer_1
 62
1
100
AcDbSpline
 70
8
 71
3
 72
8
 73
4
 74
0
 40
0
 40
0
 40
0
 40
0
 40
1
 40
1
 40
1
 40
1
 10
592.351574
 20
456.144483
 30
0.0
 10
592.351574
 20
456.144483
 30
0.0
 10
581.446994
 20
453.946612
 30
0.0
 10
577.646679
 20
453.010083
 30
0.0
  0
SPLINE
  5
114
100
AcDbEntity
  8
Layer_1
 62
1
100
AcDbSpline
 70
8
 71
3
 72
8
 73
4
 74
0
 40
0
 40
0
 40
0
 40
0
 40
1
 40
1
 40
1
 40
1
 10
577.646679
 20
453.010083
 30
0.0
 10
571.655145
 20
451.533573
 30
0.0
 10
557.743007
 20
447.143727
 30
0.0
 10
557.743007
 20
447.143727
 30
0.0
  0
LWPOLYLINE
  5
115
100
AcDbEntity
  8
Layer_1
 62
1
100
AcDbPolyline
 90
9
 70
0
 10
735.550652
 20
474.397900
 30
0.0
 10
722.836528
 20
461.656886
 30
0.0
 10
709.096492
 20
473.916086
 30
0.0
 10
684.483075
 20
470.837056
 30
0.0
 10
669.809286
 20
456.619985
 30
0.0
 10
653.060990
 20
466.509497
 30
0.0
 10
620.205255
 20
461.153944
 30
0.0
 10
606.952833
 20
446.917674
 30
0.0
 10
592.351574
 20
456.144483
 30
0.0
  0
LWPOLYLINE
  5
116
100
AcDbEntity
  8
Layer_1
 62
1
100
AcDbPolyline
 90
9
 70
0
 10
557.743007
 20
447.143727
 30
0.0
 10
550.618333
 20
429.678266
 30
0.0
 10
533.080607
 20
438.286064
 30
0.0
 10
510.728557
 20
428.801983
 30
0.0
 10
503.094917
 20
411.259910
 30
0.0
 10
480.630403
 20
416.031224
 30
0.0
 10
457.573585
 20
406.248181
 30
0.0
 10
457.566026
 20
4.437277
 30
0.0
 10
812.468081
 20
4.435765
 30
0.0
  0
ENDSEC
  0
SECTION
  2
OBJECTS
  0
DICTIONARY
  5
C
330
0
100
AcDbDictionary
  3
ACAD_GROUP
350
D
  3
ACAD_MLINESTYLE
350
17
  0
DICTIONARY
  5
D
330
C
100
AcDbDictionary
  0
DICTIONARY
  5
1A
330
C
100
AcDbDictionary
  0
DICTIONARY
  5
17
330
C
100
AcDbDictionary
  3
STANDARD
350
18
  0
DICTIONARY
  5
19
330
C
100
AcDbDictionary
  0
ENDSEC
  0
EOF
