<?xml version="1.0" encoding="UTF-8" standalone="no"?>
<!-- Created with Inkscape (http://www.inkscape.org/) -->

<svg
   xmlns:dc="http://purl.org/dc/elements/1.1/"
   xmlns:cc="http://creativecommons.org/ns#"
   xmlns:rdf="http://www.w3.org/1999/02/22-rdf-syntax-ns#"
   xmlns:svg="http://www.w3.org/2000/svg"
   xmlns="http://www.w3.org/2000/svg"
   xmlns:sodipodi="http://sodipodi.sourceforge.net/DTD/sodipodi-0.dtd"
   xmlns:inkscape="http://www.inkscape.org/namespaces/inkscape"
   width="10.782553in"
   height="7.1615562in"
   viewBox="0 0 273.87684 181.90353"
   version="1.1"
   id="svg40"
   inkscape:version="0.92.4 (5da689c313, 2019-01-14)"
   sodipodi:docname="CUT V Notch V2.svg">
  <defs
     id="defs34" />
  <sodipodi:namedview
     id="base"
     pagecolor="#ffffff"
     bordercolor="#666666"
     borderopacity="1.0"
     inkscape:pageopacity="0.0"
     inkscape:pageshadow="2"
     inkscape:zoom="0.7"
     inkscape:cx="1054.9127"
     inkscape:cy="357.42697"
     inkscape:document-units="in"
     inkscape:current-layer="layer1"
     showgrid="false"
     units="in"
     fit-margin-top="0"
     fit-margin-left="0"
     fit-margin-right="0"
     fit-margin-bottom="0"
     inkscape:window-width="2560"
     inkscape:window-height="1057"
     inkscape:window-x="-8"
     inkscape:window-y="-8"
     inkscape:window-maximized="1" />
  <metadata
     id="metadata37">
    <rdf:RDF>
      <cc:Work
         rdf:about="">
        <dc:format>image/svg+xml</dc:format>
        <dc:type
           rdf:resource="http://purl.org/dc/dcmitype/StillImage" />
        <dc:title></dc:title>
      </cc:Work>
    </rdf:RDF>
  </metadata>
  <g
     inkscape:label="Layer 1"
     inkscape:groupmode="layer"
     id="layer1"
     transform="translate(192.12294,-83.583822)">
    <path
       sodipodi:nodetypes="ccsscccccccscccccccccccccccsccccc"
       inkscape:connector-curvature="0"
       id="path4535-8-0-4"
       d="m -191.98461,265.35506 h 96.469997 c 0,0 0.324181,-58.41962 0.324181,-74.65679 0,-2.00347 1.890059,-14.61725 17.458978,-31.55111 17.98143,-19.55793 44.23163,-29.57437 44.23163,-29.57437 l -7.06169,-8.21719 -6.004962,-0.99532 -1.120368,-5.90319 -9.48639,-7.34697 -6.06854,-0.48881 -2.11506,-5.20411 c 0,0 -3.26455,-2.039493 -4.75892,-2.847703 -2.60431,-1.40851 -7.98446,-3.9611 -7.98446,-3.9611 l -5.594122,0.734485 -2.609338,-4.113644 -9.81013,-2.70852 -5.519526,1.214197 -3.51297,-3.417697 -8.04074,-1.671606 -2.53946,1.805106 -2.56458,-2.547631 -5.14737,-0.185409 -4.36654,3.190717 -5.66778,-2.686257 -10.48553,1.7966 -3.49346,2.877179 -5.33106,-1.196569 c 0,0 -8.19348,1.74181 -11.14454,2.5848 -1.33219,0.38055 -4.39507,1.47032 -4.39507,1.47032 l -2.51065,3.419104 -4.81135,-0.421515 -16.34622,7.826493 z"
       style="fill:none;stroke:#ff0000;stroke-width:0.26458329px;stroke-linecap:butt;stroke-linejoin:miter;stroke-opacity:1" />
    <path
       sodipodi:nodetypes="csccccccccccsccccccscccccccccsccccccccc"
       inkscape:connector-curvature="0"
       id="path4552-5-5-3"
       d="m 22.842576,264.31372 c 0,0 -0.96762,-24.82681 7.03982,-38.6961 22.18942,-38.43321 51.60513,-41.0235 51.60513,-41.0235 l -7.51584,-8.85284 -5.331729,0.60122 1.311119,-4.81354 -9.38285,-8.29665 -5.932597,-0.26935 -0.906923,-5.33442 -4.435448,-3.28398 -4.12062,0.52911 -0.185678,-3.59268 c 0,0 -3.125504,-2.11434 -4.258034,-2.76821 -1.608629,-0.92874 -4.97847,-2.49826 -4.97847,-2.49826 l -4.344132,2.02302 -2.522278,-4.48988 -8.81364,-1.71409 -3.49397,2.83184 -3.30132,-3.9349 c 0,0 -3.19095,-0.41109 -4.4849,-0.50308 -2.09605,-0.14902 -6.29871,-0.25786 -6.29871,-0.25786 l -3.36394524,3.37106 -3.63538476,-3.24358 -6.5123,0.81466 -3.88244,3.7616 -4.43132,-2.6166 -8.69308,1.41699 -3.50637,3.76668 -3.86325,-2.44126 c 0,0 -2.88517,0.58152 -3.89067,0.82931 -1.58526,0.39066 -5.26618,1.55214 -5.26618,1.55214 l -1.88507,4.62107 -4.64019,-2.27748 -5.91398,2.50933 -2.019734,4.64134 -5.943736,-1.26241 -6.10045,2.58843 -0.002,106.31247 z"
       style="fill:none;stroke:#ff0000;stroke-width:0.26458329px;stroke-linecap:butt;stroke-linejoin:miter;stroke-opacity:1" />
  </g>
</svg>
