  0
SECTION
  2
HEADER
  9
$ACADVER
  1
AC1014
  9
$HANDSEED
  5
FFFF
  9
$MEASUREMENT
 70
     1
  0
ENDSEC
  0
SECTION
  2
TABLES
  0
TABLE
  2
VPORT
  5
8
330
0
100
AcDbSymbolTable
 70
     4
  0
VPORT
  5
2E
330
8
100
AcDbSymbolTableRecord
100
AcDbViewportTableRecord
  2
*ACTIVE
 70
     0
 10
0.0
 20
0.0
 11
1.0
 21
1.0
 12
210.0
 22
148.5
 13
0.0
 23
0.0
 14
10.0
 24
10.0
 15
10.0
 25
10.0
 16
0.0
 26
0.0
 36
1.0
 17
0.0
 27
0.0
 37
0.0
 40
341.0
 41
1.24
 42
50.0
 43
0.0
 44
0.0
 50
0.0
 51
0.0
 71
     0
 72
   100
 73
     1
 74
     3
 75
     0
 76
     0
 77
     0
 78
     0
  0
ENDTAB
  0
TABLE
  2
LTYPE
  5
5
330
0
100
AcDbSymbolTable
 70
     1
  0
LTYPE
  5
14
330
5
100
AcDbSymbolTableRecord
100
AcDbLinetypeTableRecord
  2
BYBLOCK
 70
     0
  3

 72
    65
 73
     0
 40
0.0
  0
LTYPE
  5
15
330
5
100
AcDbSymbolTableRecord
100
AcDbLinetypeTableRecord
  2
BYLAYER
 70
     0
  3

 72
    65
 73
     0
 40
0.0
  0
LTYPE
  5
16
330
5
100
AcDbSymbolTableRecord
100
AcDbLinetypeTableRecord
  2
CONTINUOUS
 70
     0
  3
Solid line
 72
    65
 73
     0
 40
0.0
  0
ENDTAB
  0
TABLE
  2
LAYER
  5
2
100
AcDbSymbolTable
 70
2
  0
LAYER
  5
50
100
AcDbSymbolTableRecord
100
AcDbLayerTableRecord
  2
0
 70
0
  6
CONTINUOUS
  0
LAYER
  5
51
100
AcDbSymbolTableRecord
100
AcDbLayerTableRecord
  2
Layer_1
 70
0
  6
CONTINUOUS
  0
ENDTAB
  0
TABLE
  2
STYLE
  5
3
330
0
100
AcDbSymbolTable
 70
     1
  0
STYLE
  5
11
330
3
100
AcDbSymbolTableRecord
100
AcDbTextStyleTableRecord
  2
STANDARD
 70
     0
 40
0.0
 41
1.0
 50
0.0
 71
     0
 42
2.5
  3
txt
  4

  0
ENDTAB
  0
TABLE
  2
VIEW
  5
6
330
0
100
AcDbSymbolTable
 70
     0
  0
ENDTAB
  0
TABLE
  2
UCS
  5
7
330
0
100
AcDbSymbolTable
 70
     0
  0
ENDTAB
  0
TABLE
  2
APPID
  5
9
330
0
100
AcDbSymbolTable
 70
     2
  0
APPID
  5
12
330
9
100
AcDbSymbolTableRecord
100
AcDbRegAppTableRecord
  2
ACAD
 70
     0
  0
ENDTAB
  0
TABLE
  2
DIMSTYLE
  5
A
330
0
100
AcDbSymbolTable
 70
     1
  0
DIMSTYLE
105
27
330
A
100
AcDbSymbolTableRecord
100
AcDbDimStyleTableRecord
  2
ISO-25
 70
     0
  3

  4

  5

  6

  7

 40
1.0
 41
2.5
 42
0.625
 43
3.75
 44
1.25
 45
0.0
 46
0.0
 47
0.0
 48
0.0
140
2.5
141
2.5
142
0.0
143
0.03937007874016
144
1.0
145
0.0
146
1.0
147
0.625
 71
     0
 72
     0
 73
     0
 74
     0
 75
     0
 76
     0
 77
     1
 78
     8
170
     0
171
     3
172
     1
173
     0
174
     0
175
     0
176
     0
177
     0
178
     0
270
     2
271
     2
272
     2
273
     2
274
     3
340
11
275
     0
280
     0
281
     0
282
     0
283
     0
284
     8
285
     0
286
     0
287
     3
288
     0
  0
ENDTAB
  0
TABLE
  2
BLOCK_RECORD
  5
1
330
0
100
AcDbSymbolTable
 70
     1
  0
BLOCK_RECORD
  5
1F
330
1
100
AcDbSymbolTableRecord
100
AcDbBlockTableRecord
  2
*MODEL_SPACE
  0
BLOCK_RECORD
  5
1B
330
1
100
AcDbSymbolTableRecord
100
AcDbBlockTableRecord
  2
*PAPER_SPACE
  0
ENDTAB
  0
ENDSEC
  0
SECTION
  2
BLOCKS
  0
BLOCK
  5
20
330
1F
100
AcDbEntity
  8
0
100
AcDbBlockBegin
  2
*MODEL_SPACE
 70
     0
 10
0.0
 20
0.0
 30
0.0
  3
*MODEL_SPACE
  1

  0
ENDBLK
  5
21
330
1F
100
AcDbEntity
  8
0
100
AcDbBlockEnd
  0
BLOCK
  5
1C
330
1B
100
AcDbEntity
 67
     1
  8
0
100
AcDbBlockBegin
  2
*PAPER_SPACE
  1

  0
ENDBLK
  5
1D
330
1B
100
AcDbEntity
 67
     1
  8
0
100
AcDbBlockEnd
  0
ENDSEC
  0
SECTION
  2
ENTITIES
  0
SPLINE
  5
100
100
AcDbEntity
  8
Layer_1
 62
1
100
AcDbSpline
 70
8
 71
3
 72
8
 73
4
 74
0
 40
0
 40
0
 40
0
 40
0
 40
1
 40
1
 40
1
 40
1
 10
143.213626
 20
300.498117
 30
0.0
 10
169.328270
 20
300.498117
 30
0.0
 10
180.524704
 20
293.300574
 30
0.0
 10
198.223400
 20
286.257878
 30
0.0
  0
SPLINE
  5
101
100
AcDbEntity
  8
Layer_1
 62
1
100
AcDbSpline
 70
8
 71
3
 72
8
 73
4
 74
0
 40
0
 40
0
 40
0
 40
0
 40
1
 40
1
 40
1
 40
1
 10
198.223400
 20
286.257878
 30
0.0
 10
205.439840
 20
283.386307
 30
0.0
 10
215.638404
 20
279.296972
 30
0.0
 10
224.008545
 20
275.169992
 30
0.0
  0
SPLINE
  5
102
100
AcDbEntity
  8
Layer_1
 62
1
100
AcDbSpline
 70
8
 71
3
 72
8
 73
4
 74
0
 40
0
 40
0
 40
0
 40
0
 40
1
 40
1
 40
1
 40
1
 10
224.008545
 20
275.169992
 30
0.0
 10
228.193654
 20
273.106521
 30
0.0
 10
231.922233
 20
271.031258
 30
0.0
 10
234.578863
 20
269.109444
 30
0.0
  0
SPLINE
  5
103
100
AcDbEntity
  8
Layer_1
 62
1
100
AcDbSpline
 70
8
 71
3
 72
8
 73
4
 74
0
 40
0
 40
0
 40
0
 40
0
 40
1
 40
1
 40
1
 40
1
 10
234.578863
 20
269.109444
 30
0.0
 10
235.907140
 20
268.148537
 30
0.0
 10
236.964841
 20
267.229205
 30
0.0
 10
237.672633
 20
266.386786
 30
0.0
  0
SPLINE
  5
104
100
AcDbEntity
  8
Layer_1
 62
1
100
AcDbSpline
 70
8
 71
3
 72
8
 73
4
 74
0
 40
0
 40
0
 40
0
 40
0
 40
1
 40
1
 40
1
 40
1
 10
237.672633
 20
266.386786
 30
0.0
 10
238.380463
 20
265.544405
 30
0.0
 10
238.721452
 20
264.794547
 30
0.0
 10
238.721452
 20
264.201237
 30
0.0
  0
LWPOLYLINE
  5
105
100
AcDbEntity
  8
Layer_1
 62
1
100
AcDbPolyline
 90
3
 70
0
 10
95.592563
 20
300.498117
 30
0.0
 10
119.406987
 20
300.498117
 30
0.0
 10
143.213626
 20
300.498117
 30
0.0
  0
SPLINE
  5
106
100
AcDbEntity
  8
Layer_1
 62
1
100
AcDbSpline
 70
8
 71
3
 72
8
 73
4
 74
0
 40
0
 40
0
 40
0
 40
0
 40
1
 40
1
 40
1
 40
1
 10
238.721452
 20
237.640683
 30
0.0
 10
238.721452
 20
236.009402
 30
0.0
 10
238.034523
 20
233.959310
 30
0.0
 10
236.934340
 20
232.371153
 30
0.0
  0
SPLINE
  5
107
100
AcDbEntity
  8
Layer_1
 62
1
100
AcDbSpline
 70
8
 71
3
 72
8
 73
4
 74
0
 40
0
 40
0
 40
0
 40
0
 40
1
 40
1
 40
1
 40
1
 10
236.934340
 20
232.371153
 30
0.0
 10
235.834195
 20
230.783033
 30
0.0
 10
234.357383
 20
229.691468
 30
0.0
 10
232.823008
 20
229.691468
 30
0.0
  0
LWPOLYLINE
  5
108
100
AcDbEntity
  8
Layer_1
 62
1
100
AcDbPolyline
 90
2
 70
0
 10
238.721452
 20
264.201237
 30
0.0
 10
238.721452
 20
237.640683
 30
0.0
  0
SPLINE
  5
109
100
AcDbEntity
  8
Layer_1
 62
1
100
AcDbSpline
 70
8
 71
3
 72
8
 73
4
 74
0
 40
0
 40
0
 40
0
 40
0
 40
1
 40
1
 40
1
 40
1
 10
5.992894
 20
229.691468
 30
0.0
 10
4.458520
 20
229.691468
 30
0.0
 10
2.979779
 20
230.783033
 30
0.0
 10
1.879635
 20
232.371153
 30
0.0
  0
SPLINE
  5
10a
100
AcDbEntity
  8
Layer_1
 62
1
100
AcDbSpline
 70
8
 71
3
 72
8
 73
4
 74
0
 40
0
 40
0
 40
0
 40
0
 40
1
 40
1
 40
1
 40
1
 10
1.879635
 20
232.371153
 30
0.0
 10
0.779452
 20
233.959310
 30
0.0
 10
0.094488
 20
236.009402
 30
0.0
 10
0.094488
 20
237.640683
 30
0.0
  0
LWPOLYLINE
  5
10b
100
AcDbEntity
  8
Layer_1
 62
1
100
AcDbPolyline
 90
3
 70
0
 10
232.823008
 20
229.691468
 30
0.0
 10
119.406987
 20
229.691468
 30
0.0
 10
5.992894
 20
229.691468
 30
0.0
  0
SPLINE
  5
10c
100
AcDbEntity
  8
Layer_1
 62
1
100
AcDbSpline
 70
8
 71
3
 72
8
 73
4
 74
0
 40
0
 40
0
 40
0
 40
0
 40
1
 40
1
 40
1
 40
1
 10
0.094488
 20
264.201237
 30
0.0
 10
0.094488
 20
264.794585
 30
0.0
 10
0.433512
 20
265.544405
 30
0.0
 10
1.141342
 20
266.386786
 30
0.0
  0
SPLINE
  5
10d
100
AcDbEntity
  8
Layer_1
 62
1
100
AcDbSpline
 70
8
 71
3
 72
8
 73
4
 74
0
 40
0
 40
0
 40
0
 40
0
 40
1
 40
1
 40
1
 40
1
 10
1.141342
 20
266.386786
 30
0.0
 10
1.849172
 20
267.229205
 30
0.0
 10
2.906835
 20
268.148537
 30
0.0
 10
4.235112
 20
269.109444
 30
0.0
  0
SPLINE
  5
10e
100
AcDbEntity
  8
Layer_1
 62
1
100
AcDbSpline
 70
8
 71
3
 72
8
 73
4
 74
0
 40
0
 40
0
 40
0
 40
0
 40
1
 40
1
 40
1
 40
1
 10
4.235112
 20
269.109444
 30
0.0
 10
6.891741
 20
271.031258
 30
0.0
 10
10.620359
 20
273.106521
 30
0.0
 10
14.805429
 20
275.169992
 30
0.0
  0
SPLINE
  5
10f
100
AcDbEntity
  8
Layer_1
 62
1
100
AcDbSpline
 70
8
 71
3
 72
8
 73
4
 74
0
 40
0
 40
0
 40
0
 40
0
 40
1
 40
1
 40
1
 40
1
 10
14.805429
 20
275.169992
 30
0.0
 10
23.175495
 20
279.297009
 30
0.0
 10
33.366348
 20
283.386307
 30
0.0
 10
40.582751
 20
286.257878
 30
0.0
  0
SPLINE
  5
110
100
AcDbEntity
  8
Layer_1
 62
1
100
AcDbSpline
 70
8
 71
3
 72
8
 73
4
 74
0
 40
0
 40
0
 40
0
 40
0
 40
1
 40
1
 40
1
 40
1
 10
40.582751
 20
286.257878
 30
0.0
 10
58.281484
 20
293.300536
 30
0.0
 10
69.477956
 20
300.498117
 30
0.0
 10
95.592563
 20
300.498117
 30
0.0
  0
LWPOLYLINE
  5
111
100
AcDbEntity
  8
Layer_1
 62
1
100
AcDbPolyline
 90
2
 70
0
 10
0.094488
 20
237.640683
 30
0.0
 10
0.094488
 20
264.201237
 30
0.0
  0
LWPOLYLINE
  5
112
100
AcDbEntity
  8
Layer_1
 62
1
100
AcDbPolyline
 90
1
 70
1
 10
95.592563
 20
300.498117
 30
0.0
  0
SPLINE
  5
113
100
AcDbEntity
  8
Layer_1
 62
1
100
AcDbSpline
 70
8
 71
3
 72
8
 73
4
 74
0
 40
0
 40
0
 40
0
 40
0
 40
1
 40
1
 40
1
 40
1
 10
393.774031
 20
300.498117
 30
0.0
 10
419.888676
 20
300.498117
 30
0.0
 10
431.085110
 20
293.300574
 30
0.0
 10
448.783805
 20
286.257878
 30
0.0
  0
SPLINE
  5
114
100
AcDbEntity
  8
Layer_1
 62
1
100
AcDbSpline
 70
8
 71
3
 72
8
 73
4
 74
0
 40
0
 40
0
 40
0
 40
0
 40
1
 40
1
 40
1
 40
1
 10
448.783805
 20
286.257878
 30
0.0
 10
456.000246
 20
283.386307
 30
0.0
 10
466.198809
 20
279.296972
 30
0.0
 10
474.568951
 20
275.169992
 30
0.0
  0
SPLINE
  5
115
100
AcDbEntity
  8
Layer_1
 62
1
100
AcDbSpline
 70
8
 71
3
 72
8
 73
4
 74
0
 40
0
 40
0
 40
0
 40
0
 40
1
 40
1
 40
1
 40
1
 10
474.568951
 20
275.169992
 30
0.0
 10
478.754059
 20
273.106521
 30
0.0
 10
482.482638
 20
271.031258
 30
0.0
 10
485.139268
 20
269.109444
 30
0.0
  0
SPLINE
  5
116
100
AcDbEntity
  8
Layer_1
 62
1
100
AcDbSpline
 70
8
 71
3
 72
8
 73
4
 74
0
 40
0
 40
0
 40
0
 40
0
 40
1
 40
1
 40
1
 40
1
 10
485.139268
 20
269.109444
 30
0.0
 10
486.467545
 20
268.148537
 30
0.0
 10
487.525246
 20
267.229205
 30
0.0
 10
488.233038
 20
266.386786
 30
0.0
  0
SPLINE
  5
117
100
AcDbEntity
  8
Layer_1
 62
1
100
AcDbSpline
 70
8
 71
3
 72
8
 73
4
 74
0
 40
0
 40
0
 40
0
 40
0
 40
1
 40
1
 40
1
 40
1
 10
488.233038
 20
266.386786
 30
0.0
 10
488.940868
 20
265.544405
 30
0.0
 10
489.281857
 20
264.794547
 30
0.0
 10
489.281857
 20
264.201237
 30
0.0
  0
LWPOLYLINE
  5
118
100
AcDbEntity
  8
Layer_1
 62
1
100
AcDbPolyline
 90
3
 70
0
 10
346.152968
 20
300.498117
 30
0.0
 10
369.967393
 20
300.498117
 30
0.0
 10
393.774031
 20
300.498117
 30
0.0
  0
SPLINE
  5
119
100
AcDbEntity
  8
Layer_1
 62
1
100
AcDbSpline
 70
8
 71
3
 72
8
 73
4
 74
0
 40
0
 40
0
 40
0
 40
0
 40
1
 40
1
 40
1
 40
1
 10
489.281857
 20
237.640683
 30
0.0
 10
489.281857
 20
236.009402
 30
0.0
 10
488.594928
 20
233.959310
 30
0.0
 10
487.494745
 20
232.371153
 30
0.0
  0
SPLINE
  5
11a
100
AcDbEntity
  8
Layer_1
 62
1
100
AcDbSpline
 70
8
 71
3
 72
8
 73
4
 74
0
 40
0
 40
0
 40
0
 40
0
 40
1
 40
1
 40
1
 40
1
 10
487.494745
 20
232.371153
 30
0.0
 10
486.394601
 20
230.783033
 30
0.0
 10
484.917788
 20
229.691468
 30
0.0
 10
483.383413
 20
229.691468
 30
0.0
  0
LWPOLYLINE
  5
11b
100
AcDbEntity
  8
Layer_1
 62
1
100
AcDbPolyline
 90
2
 70
0
 10
489.281857
 20
264.201237
 30
0.0
 10
489.281857
 20
237.640683
 30
0.0
  0
SPLINE
  5
11c
100
AcDbEntity
  8
Layer_1
 62
1
100
AcDbSpline
 70
8
 71
3
 72
8
 73
4
 74
0
 40
0
 40
0
 40
0
 40
0
 40
1
 40
1
 40
1
 40
1
 10
256.553300
 20
229.691468
 30
0.0
 10
255.018925
 20
229.691468
 30
0.0
 10
253.540185
 20
230.783033
 30
0.0
 10
252.440040
 20
232.371153
 30
0.0
  0
SPLINE
  5
11d
100
AcDbEntity
  8
Layer_1
 62
1
100
AcDbSpline
 70
8
 71
3
 72
8
 73
4
 74
0
 40
0
 40
0
 40
0
 40
0
 40
1
 40
1
 40
1
 40
1
 10
252.440040
 20
232.371153
 30
0.0
 10
251.339857
 20
233.959310
 30
0.0
 10
250.654894
 20
236.009402
 30
0.0
 10
250.654894
 20
237.640683
 30
0.0
  0
LWPOLYLINE
  5
11e
100
AcDbEntity
  8
Layer_1
 62
1
100
AcDbPolyline
 90
3
 70
0
 10
483.383413
 20
229.691468
 30
0.0
 10
369.967393
 20
229.691468
 30
0.0
 10
256.553300
 20
229.691468
 30
0.0
  0
SPLINE
  5
11f
100
AcDbEntity
  8
Layer_1
 62
1
100
AcDbSpline
 70
8
 71
3
 72
8
 73
4
 74
0
 40
0
 40
0
 40
0
 40
0
 40
1
 40
1
 40
1
 40
1
 10
250.654894
 20
264.201237
 30
0.0
 10
250.654894
 20
264.794585
 30
0.0
 10
250.993917
 20
265.544405
 30
0.0
 10
251.701747
 20
266.386786
 30
0.0
  0
SPLINE
  5
120
100
AcDbEntity
  8
Layer_1
 62
1
100
AcDbSpline
 70
8
 71
3
 72
8
 73
4
 74
0
 40
0
 40
0
 40
0
 40
0
 40
1
 40
1
 40
1
 40
1
 10
251.701747
 20
266.386786
 30
0.0
 10
252.409577
 20
267.229205
 30
0.0
 10
253.467240
 20
268.148537
 30
0.0
 10
254.795517
 20
269.109444
 30
0.0
  0
SPLINE
  5
121
100
AcDbEntity
  8
Layer_1
 62
1
100
AcDbSpline
 70
8
 71
3
 72
8
 73
4
 74
0
 40
0
 40
0
 40
0
 40
0
 40
1
 40
1
 40
1
 40
1
 10
254.795517
 20
269.109444
 30
0.0
 10
257.452147
 20
271.031258
 30
0.0
 10
261.180764
 20
273.106521
 30
0.0
 10
265.365835
 20
275.169992
 30
0.0
  0
SPLINE
  5
122
100
AcDbEntity
  8
Layer_1
 62
1
100
AcDbSpline
 70
8
 71
3
 72
8
 73
4
 74
0
 40
0
 40
0
 40
0
 40
0
 40
1
 40
1
 40
1
 40
1
 10
265.365835
 20
275.169992
 30
0.0
 10
273.735901
 20
279.297009
 30
0.0
 10
283.926754
 20
283.386307
 30
0.0
 10
291.143157
 20
286.257878
 30
0.0
  0
SPLINE
  5
123
100
AcDbEntity
  8
Layer_1
 62
1
100
AcDbSpline
 70
8
 71
3
 72
8
 73
4
 74
0
 40
0
 40
0
 40
0
 40
0
 40
1
 40
1
 40
1
 40
1
 10
291.143157
 20
286.257878
 30
0.0
 10
308.841890
 20
293.300536
 30
0.0
 10
320.038362
 20
300.498117
 30
0.0
 10
346.152968
 20
300.498117
 30
0.0
  0
LWPOLYLINE
  5
124
100
AcDbEntity
  8
Layer_1
 62
1
100
AcDbPolyline
 90
2
 70
0
 10
250.654894
 20
237.640683
 30
0.0
 10
250.654894
 20
264.201237
 30
0.0
  0
LWPOLYLINE
  5
125
100
AcDbEntity
  8
Layer_1
 62
1
100
AcDbPolyline
 90
1
 70
1
 10
346.152968
 20
300.498117
 30
0.0
  0
SPLINE
  5
126
100
AcDbEntity
  8
Layer_1
 62
1
100
AcDbSpline
 70
8
 71
3
 72
8
 73
4
 74
0
 40
0
 40
0
 40
0
 40
0
 40
1
 40
1
 40
1
 40
1
 10
143.234904
 20
224.235985
 30
0.0
 10
169.349549
 20
224.235985
 30
0.0
 10
180.545983
 20
217.038442
 30
0.0
 10
198.244678
 20
209.995746
 30
0.0
  0
SPLINE
  5
127
100
AcDbEntity
  8
Layer_1
 62
1
100
AcDbSpline
 70
8
 71
3
 72
8
 73
4
 74
0
 40
0
 40
0
 40
0
 40
0
 40
1
 40
1
 40
1
 40
1
 10
198.244678
 20
209.995746
 30
0.0
 10
205.461119
 20
207.124174
 30
0.0
 10
215.659682
 20
203.034839
 30
0.0
 10
224.029824
 20
198.907860
 30
0.0
  0
SPLINE
  5
128
100
AcDbEntity
  8
Layer_1
 62
1
100
AcDbSpline
 70
8
 71
3
 72
8
 73
4
 74
0
 40
0
 40
0
 40
0
 40
0
 40
1
 40
1
 40
1
 40
1
 10
224.029824
 20
198.907860
 30
0.0
 10
228.214932
 20
196.844389
 30
0.0
 10
231.943512
 20
194.769126
 30
0.0
 10
234.600142
 20
192.847312
 30
0.0
  0
SPLINE
  5
129
100
AcDbEntity
  8
Layer_1
 62
1
100
AcDbSpline
 70
8
 71
3
 72
8
 73
4
 74
0
 40
0
 40
0
 40
0
 40
0
 40
1
 40
1
 40
1
 40
1
 10
234.600142
 20
192.847312
 30
0.0
 10
235.928419
 20
191.886405
 30
0.0
 10
236.986119
 20
190.967073
 30
0.0
 10
237.693912
 20
190.124654
 30
0.0
  0
SPLINE
  5
12a
100
AcDbEntity
  8
Layer_1
 62
1
100
AcDbSpline
 70
8
 71
3
 72
8
 73
4
 74
0
 40
0
 40
0
 40
0
 40
0
 40
1
 40
1
 40
1
 40
1
 10
237.693912
 20
190.124654
 30
0.0
 10
238.401741
 20
189.282273
 30
0.0
 10
238.742730
 20
188.532415
 30
0.0
 10
238.742730
 20
187.939104
 30
0.0
  0
LWPOLYLINE
  5
12b
100
AcDbEntity
  8
Layer_1
 62
1
100
AcDbPolyline
 90
3
 70
0
 10
95.613842
 20
224.235985
 30
0.0
 10
119.428266
 20
224.235985
 30
0.0
 10
143.234904
 20
224.235985
 30
0.0
  0
SPLINE
  5
12c
100
AcDbEntity
  8
Layer_1
 62
1
100
AcDbSpline
 70
8
 71
3
 72
8
 73
4
 74
0
 40
0
 40
0
 40
0
 40
0
 40
1
 40
1
 40
1
 40
1
 10
238.742730
 20
161.378551
 30
0.0
 10
238.742730
 20
159.747269
 30
0.0
 10
238.055801
 20
157.697178
 30
0.0
 10
236.955619
 20
156.109021
 30
0.0
  0
SPLINE
  5
12d
100
AcDbEntity
  8
Layer_1
 62
1
100
AcDbSpline
 70
8
 71
3
 72
8
 73
4
 74
0
 40
0
 40
0
 40
0
 40
0
 40
1
 40
1
 40
1
 40
1
 10
236.955619
 20
156.109021
 30
0.0
 10
235.855474
 20
154.520901
 30
0.0
 10
234.378661
 20
153.429336
 30
0.0
 10
232.844287
 20
153.429336
 30
0.0
  0
LWPOLYLINE
  5
12e
100
AcDbEntity
  8
Layer_1
 62
1
100
AcDbPolyline
 90
2
 70
0
 10
238.742730
 20
187.939104
 30
0.0
 10
238.742730
 20
161.378551
 30
0.0
  0
SPLINE
  5
12f
100
AcDbEntity
  8
Layer_1
 62
1
100
AcDbSpline
 70
8
 71
3
 72
8
 73
4
 74
0
 40
0
 40
0
 40
0
 40
0
 40
1
 40
1
 40
1
 40
1
 10
6.014173
 20
153.429336
 30
0.0
 10
4.479798
 20
153.429336
 30
0.0
 10
3.001058
 20
154.520901
 30
0.0
 10
1.900913
 20
156.109021
 30
0.0
  0
SPLINE
  5
130
100
AcDbEntity
  8
Layer_1
 62
1
100
AcDbSpline
 70
8
 71
3
 72
8
 73
4
 74
0
 40
0
 40
0
 40
0
 40
0
 40
1
 40
1
 40
1
 40
1
 10
1.900913
 20
156.109021
 30
0.0
 10
0.800731
 20
157.697178
 30
0.0
 10
0.115767
 20
159.747269
 30
0.0
 10
0.115767
 20
161.378551
 30
0.0
  0
LWPOLYLINE
  5
131
100
AcDbEntity
  8
Layer_1
 62
1
100
AcDbPolyline
 90
3
 70
0
 10
232.844287
 20
153.429336
 30
0.0
 10
119.428266
 20
153.429336
 30
0.0
 10
6.014173
 20
153.429336
 30
0.0
  0
SPLINE
  5
132
100
AcDbEntity
  8
Layer_1
 62
1
100
AcDbSpline
 70
8
 71
3
 72
8
 73
4
 74
0
 40
0
 40
0
 40
0
 40
0
 40
1
 40
1
 40
1
 40
1
 10
0.115767
 20
187.939104
 30
0.0
 10
0.115767
 20
188.532452
 30
0.0
 10
0.454791
 20
189.282273
 30
0.0
 10
1.162620
 20
190.124654
 30
0.0
  0
SPLINE
  5
133
100
AcDbEntity
  8
Layer_1
 62
1
100
AcDbSpline
 70
8
 71
3
 72
8
 73
4
 74
0
 40
0
 40
0
 40
0
 40
0
 40
1
 40
1
 40
1
 40
1
 10
1.162620
 20
190.124654
 30
0.0
 10
1.870450
 20
190.967073
 30
0.0
 10
2.928113
 20
191.886405
 30
0.0
 10
4.256390
 20
192.847312
 30
0.0
  0
SPLINE
  5
134
100
AcDbEntity
  8
Layer_1
 62
1
100
AcDbSpline
 70
8
 71
3
 72
8
 73
4
 74
0
 40
0
 40
0
 40
0
 40
0
 40
1
 40
1
 40
1
 40
1
 10
4.256390
 20
192.847312
 30
0.0
 10
6.913020
 20
194.769126
 30
0.0
 10
10.641637
 20
196.844389
 30
0.0
 10
14.826708
 20
198.907860
 30
0.0
  0
SPLINE
  5
135
100
AcDbEntity
  8
Layer_1
 62
1
100
AcDbSpline
 70
8
 71
3
 72
8
 73
4
 74
0
 40
0
 40
0
 40
0
 40
0
 40
1
 40
1
 40
1
 40
1
 10
14.826708
 20
198.907860
 30
0.0
 10
23.196774
 20
203.034877
 30
0.0
 10
33.387627
 20
207.124174
 30
0.0
 10
40.604030
 20
209.995746
 30
0.0
  0
SPLINE
  5
136
100
AcDbEntity
  8
Layer_1
 62
1
100
AcDbSpline
 70
8
 71
3
 72
8
 73
4
 74
0
 40
0
 40
0
 40
0
 40
0
 40
1
 40
1
 40
1
 40
1
 10
40.604030
 20
209.995746
 30
0.0
 10
58.302763
 20
217.038404
 30
0.0
 10
69.499235
 20
224.235985
 30
0.0
 10
95.613842
 20
224.235985
 30
0.0
  0
LWPOLYLINE
  5
137
100
AcDbEntity
  8
Layer_1
 62
1
100
AcDbPolyline
 90
2
 70
0
 10
0.115767
 20
161.378551
 30
0.0
 10
0.115767
 20
187.939104
 30
0.0
  0
LWPOLYLINE
  5
138
100
AcDbEntity
  8
Layer_1
 62
1
100
AcDbPolyline
 90
1
 70
1
 10
95.613842
 20
224.235985
 30
0.0
  0
SPLINE
  5
139
100
AcDbEntity
  8
Layer_1
 62
1
100
AcDbSpline
 70
8
 71
3
 72
8
 73
4
 74
0
 40
0
 40
0
 40
0
 40
0
 40
1
 40
1
 40
1
 40
1
 10
393.795310
 20
224.235985
 30
0.0
 10
419.909954
 20
224.235985
 30
0.0
 10
431.106389
 20
217.038442
 30
0.0
 10
448.805084
 20
209.995746
 30
0.0
  0
SPLINE
  5
13a
100
AcDbEntity
  8
Layer_1
 62
1
100
AcDbSpline
 70
8
 71
3
 72
8
 73
4
 74
0
 40
0
 40
0
 40
0
 40
0
 40
1
 40
1
 40
1
 40
1
 10
448.805084
 20
209.995746
 30
0.0
 10
456.021525
 20
207.124174
 30
0.0
 10
466.220088
 20
203.034839
 30
0.0
 10
474.590229
 20
198.907860
 30
0.0
  0
SPLINE
  5
13b
100
AcDbEntity
  8
Layer_1
 62
1
100
AcDbSpline
 70
8
 71
3
 72
8
 73
4
 74
0
 40
0
 40
0
 40
0
 40
0
 40
1
 40
1
 40
1
 40
1
 10
474.590229
 20
198.907860
 30
0.0
 10
478.775338
 20
196.844389
 30
0.0
 10
482.503917
 20
194.769126
 30
0.0
 10
485.160547
 20
192.847312
 30
0.0
  0
SPLINE
  5
13c
100
AcDbEntity
  8
Layer_1
 62
1
100
AcDbSpline
 70
8
 71
3
 72
8
 73
4
 74
0
 40
0
 40
0
 40
0
 40
0
 40
1
 40
1
 40
1
 40
1
 10
485.160547
 20
192.847312
 30
0.0
 10
486.488824
 20
191.886405
 30
0.0
 10
487.546525
 20
190.967073
 30
0.0
 10
488.254317
 20
190.124654
 30
0.0
  0
SPLINE
  5
13d
100
AcDbEntity
  8
Layer_1
 62
1
100
AcDbSpline
 70
8
 71
3
 72
8
 73
4
 74
0
 40
0
 40
0
 40
0
 40
0
 40
1
 40
1
 40
1
 40
1
 10
488.254317
 20
190.124654
 30
0.0
 10
488.962147
 20
189.282273
 30
0.0
 10
489.303136
 20
188.532415
 30
0.0
 10
489.303136
 20
187.939104
 30
0.0
  0
LWPOLYLINE
  5
13e
100
AcDbEntity
  8
Layer_1
 62
1
100
AcDbPolyline
 90
3
 70
0
 10
346.174247
 20
224.235985
 30
0.0
 10
369.988671
 20
224.235985
 30
0.0
 10
393.795310
 20
224.235985
 30
0.0
  0
SPLINE
  5
13f
100
AcDbEntity
  8
Layer_1
 62
1
100
AcDbSpline
 70
8
 71
3
 72
8
 73
4
 74
0
 40
0
 40
0
 40
0
 40
0
 40
1
 40
1
 40
1
 40
1
 10
489.303136
 20
161.378551
 30
0.0
 10
489.303136
 20
159.747269
 30
0.0
 10
488.616207
 20
157.697178
 30
0.0
 10
487.516024
 20
156.109021
 30
0.0
  0
SPLINE
  5
140
100
AcDbEntity
  8
Layer_1
 62
1
100
AcDbSpline
 70
8
 71
3
 72
8
 73
4
 74
0
 40
0
 40
0
 40
0
 40
0
 40
1
 40
1
 40
1
 40
1
 10
487.516024
 20
156.109021
 30
0.0
 10
486.415879
 20
154.520901
 30
0.0
 10
484.939067
 20
153.429336
 30
0.0
 10
483.404692
 20
153.429336
 30
0.0
  0
LWPOLYLINE
  5
141
100
AcDbEntity
  8
Layer_1
 62
1
100
AcDbPolyline
 90
2
 70
0
 10
489.303136
 20
187.939104
 30
0.0
 10
489.303136
 20
161.378551
 30
0.0
  0
SPLINE
  5
142
100
AcDbEntity
  8
Layer_1
 62
1
100
AcDbSpline
 70
8
 71
3
 72
8
 73
4
 74
0
 40
0
 40
0
 40
0
 40
0
 40
1
 40
1
 40
1
 40
1
 10
256.574578
 20
153.429336
 30
0.0
 10
255.040204
 20
153.429336
 30
0.0
 10
253.561464
 20
154.520901
 30
0.0
 10
252.461319
 20
156.109021
 30
0.0
  0
SPLINE
  5
143
100
AcDbEntity
  8
Layer_1
 62
1
100
AcDbSpline
 70
8
 71
3
 72
8
 73
4
 74
0
 40
0
 40
0
 40
0
 40
0
 40
1
 40
1
 40
1
 40
1
 10
252.461319
 20
156.109021
 30
0.0
 10
251.361136
 20
157.697178
 30
0.0
 10
250.676172
 20
159.747269
 30
0.0
 10
250.676172
 20
161.378551
 30
0.0
  0
LWPOLYLINE
  5
144
100
AcDbEntity
  8
Layer_1
 62
1
100
AcDbPolyline
 90
3
 70
0
 10
483.404692
 20
153.429336
 30
0.0
 10
369.988671
 20
153.429336
 30
0.0
 10
256.574578
 20
153.429336
 30
0.0
  0
SPLINE
  5
145
100
AcDbEntity
  8
Layer_1
 62
1
100
AcDbSpline
 70
8
 71
3
 72
8
 73
4
 74
0
 40
0
 40
0
 40
0
 40
0
 40
1
 40
1
 40
1
 40
1
 10
250.676172
 20
187.939104
 30
0.0
 10
250.676172
 20
188.532452
 30
0.0
 10
251.015196
 20
189.282273
 30
0.0
 10
251.723026
 20
190.124654
 30
0.0
  0
SPLINE
  5
146
100
AcDbEntity
  8
Layer_1
 62
1
100
AcDbSpline
 70
8
 71
3
 72
8
 73
4
 74
0
 40
0
 40
0
 40
0
 40
0
 40
1
 40
1
 40
1
 40
1
 10
251.723026
 20
190.124654
 30
0.0
 10
252.430856
 20
190.967073
 30
0.0
 10
253.488519
 20
191.886405
 30
0.0
 10
254.816796
 20
192.847312
 30
0.0
  0
SPLINE
  5
147
100
AcDbEntity
  8
Layer_1
 62
1
100
AcDbSpline
 70
8
 71
3
 72
8
 73
4
 74
0
 40
0
 40
0
 40
0
 40
0
 40
1
 40
1
 40
1
 40
1
 10
254.816796
 20
192.847312
 30
0.0
 10
257.473426
 20
194.769126
 30
0.0
 10
261.202043
 20
196.844389
 30
0.0
 10
265.387114
 20
198.907860
 30
0.0
  0
SPLINE
  5
148
100
AcDbEntity
  8
Layer_1
 62
1
100
AcDbSpline
 70
8
 71
3
 72
8
 73
4
 74
0
 40
0
 40
0
 40
0
 40
0
 40
1
 40
1
 40
1
 40
1
 10
265.387114
 20
198.907860
 30
0.0
 10
273.757179
 20
203.034877
 30
0.0
 10
283.948032
 20
207.124174
 30
0.0
 10
291.164435
 20
209.995746
 30
0.0
  0
SPLINE
  5
149
100
AcDbEntity
  8
Layer_1
 62
1
100
AcDbSpline
 70
8
 71
3
 72
8
 73
4
 74
0
 40
0
 40
0
 40
0
 40
0
 40
1
 40
1
 40
1
 40
1
 10
291.164435
 20
209.995746
 30
0.0
 10
308.863168
 20
217.038404
 30
0.0
 10
320.059640
 20
224.235985
 30
0.0
 10
346.174247
 20
224.235985
 30
0.0
  0
LWPOLYLINE
  5
14a
100
AcDbEntity
  8
Layer_1
 62
1
100
AcDbPolyline
 90
2
 70
0
 10
250.676172
 20
161.378551
 30
0.0
 10
250.676172
 20
187.939104
 30
0.0
  0
LWPOLYLINE
  5
14b
100
AcDbEntity
  8
Layer_1
 62
1
100
AcDbPolyline
 90
1
 70
1
 10
346.174247
 20
224.235985
 30
0.0
  0
SPLINE
  5
14c
100
AcDbEntity
  8
Layer_1
 62
1
100
AcDbSpline
 70
8
 71
3
 72
8
 73
4
 74
0
 40
0
 40
0
 40
0
 40
0
 40
1
 40
1
 40
1
 40
1
 10
144.185796
 20
147.163257
 30
0.0
 10
170.300440
 20
147.163257
 30
0.0
 10
181.496874
 20
139.965714
 30
0.0
 10
199.195570
 20
132.923018
 30
0.0
  0
SPLINE
  5
14d
100
AcDbEntity
  8
Layer_1
 62
1
100
AcDbSpline
 70
8
 71
3
 72
8
 73
4
 74
0
 40
0
 40
0
 40
0
 40
0
 40
1
 40
1
 40
1
 40
1
 10
199.195570
 20
132.923018
 30
0.0
 10
206.412010
 20
130.051447
 30
0.0
 10
216.610574
 20
125.962112
 30
0.0
 10
224.980715
 20
121.835132
 30
0.0
  0
SPLINE
  5
14e
100
AcDbEntity
  8
Layer_1
 62
1
100
AcDbSpline
 70
8
 71
3
 72
8
 73
4
 74
0
 40
0
 40
0
 40
0
 40
0
 40
1
 40
1
 40
1
 40
1
 10
224.980715
 20
121.835132
 30
0.0
 10
229.165824
 20
119.771662
 30
0.0
 10
232.894403
 20
117.696399
 30
0.0
 10
235.551033
 20
115.774585
 30
0.0
  0
SPLINE
  5
14f
100
AcDbEntity
  8
Layer_1
 62
1
100
AcDbSpline
 70
8
 71
3
 72
8
 73
4
 74
0
 40
0
 40
0
 40
0
 40
0
 40
1
 40
1
 40
1
 40
1
 10
235.551033
 20
115.774585
 30
0.0
 10
236.879310
 20
114.813677
 30
0.0
 10
237.937011
 20
113.894345
 30
0.0
 10
238.644803
 20
113.051926
 30
0.0
  0
SPLINE
  5
150
100
AcDbEntity
  8
Layer_1
 62
1
100
AcDbSpline
 70
8
 71
3
 72
8
 73
4
 74
0
 40
0
 40
0
 40
0
 40
0
 40
1
 40
1
 40
1
 40
1
 10
238.644803
 20
113.051926
 30
0.0
 10
239.352633
 20
112.209545
 30
0.0
 10
239.693622
 20
111.459687
 30
0.0
 10
239.693622
 20
110.866377
 30
0.0
  0
LWPOLYLINE
  5
151
100
AcDbEntity
  8
Layer_1
 62
1
100
AcDbPolyline
 90
3
 70
0
 10
96.564733
 20
147.163257
 30
0.0
 10
120.379157
 20
147.163257
 30
0.0
 10
144.185796
 20
147.163257
 30
0.0
  0
SPLINE
  5
152
100
AcDbEntity
  8
Layer_1
 62
1
100
AcDbSpline
 70
8
 71
3
 72
8
 73
4
 74
0
 40
0
 40
0
 40
0
 40
0
 40
1
 40
1
 40
1
 40
1
 10
239.693622
 20
84.305824
 30
0.0
 10
239.693622
 20
82.674542
 30
0.0
 10
239.006693
 20
80.624451
 30
0.0
 10
237.906510
 20
79.036293
 30
0.0
  0
SPLINE
  5
153
100
AcDbEntity
  8
Layer_1
 62
1
100
AcDbSpline
 70
8
 71
3
 72
8
 73
4
 74
0
 40
0
 40
0
 40
0
 40
0
 40
1
 40
1
 40
1
 40
1
 10
237.906510
 20
79.036293
 30
0.0
 10
236.806365
 20
77.448173
 30
0.0
 10
235.329553
 20
76.356608
 30
0.0
 10
233.795178
 20
76.356608
 30
0.0
  0
LWPOLYLINE
  5
154
100
AcDbEntity
  8
Layer_1
 62
1
100
AcDbPolyline
 90
2
 70
0
 10
239.693622
 20
110.866377
 30
0.0
 10
239.693622
 20
84.305824
 30
0.0
  0
SPLINE
  5
155
100
AcDbEntity
  8
Layer_1
 62
1
100
AcDbSpline
 70
8
 71
3
 72
8
 73
4
 74
0
 40
0
 40
0
 40
0
 40
0
 40
1
 40
1
 40
1
 40
1
 10
6.965064
 20
76.356608
 30
0.0
 10
5.430690
 20
76.356608
 30
0.0
 10
3.951949
 20
77.448173
 30
0.0
 10
2.851805
 20
79.036293
 30
0.0
  0
SPLINE
  5
156
100
AcDbEntity
  8
Layer_1
 62
1
100
AcDbSpline
 70
8
 71
3
 72
8
 73
4
 74
0
 40
0
 40
0
 40
0
 40
0
 40
1
 40
1
 40
1
 40
1
 10
2.851805
 20
79.036293
 30
0.0
 10
1.751622
 20
80.624451
 30
0.0
 10
1.066658
 20
82.674542
 30
0.0
 10
1.066658
 20
84.305824
 30
0.0
  0
LWPOLYLINE
  5
157
100
AcDbEntity
  8
Layer_1
 62
1
100
AcDbPolyline
 90
3
 70
0
 10
233.795178
 20
76.356608
 30
0.0
 10
120.379157
 20
76.356608
 30
0.0
 10
6.965064
 20
76.356608
 30
0.0
  0
SPLINE
  5
158
100
AcDbEntity
  8
Layer_1
 62
1
100
AcDbSpline
 70
8
 71
3
 72
8
 73
4
 74
0
 40
0
 40
0
 40
0
 40
0
 40
1
 40
1
 40
1
 40
1
 10
1.066658
 20
110.866377
 30
0.0
 10
1.066658
 20
111.459725
 30
0.0
 10
1.405682
 20
112.209545
 30
0.0
 10
2.113512
 20
113.051926
 30
0.0
  0
SPLINE
  5
159
100
AcDbEntity
  8
Layer_1
 62
1
100
AcDbSpline
 70
8
 71
3
 72
8
 73
4
 74
0
 40
0
 40
0
 40
0
 40
0
 40
1
 40
1
 40
1
 40
1
 10
2.113512
 20
113.051926
 30
0.0
 10
2.821342
 20
113.894345
 30
0.0
 10
3.879005
 20
114.813677
 30
0.0
 10
5.207282
 20
115.774585
 30
0.0
  0
SPLINE
  5
15a
100
AcDbEntity
  8
Layer_1
 62
1
100
AcDbSpline
 70
8
 71
3
 72
8
 73
4
 74
0
 40
0
 40
0
 40
0
 40
0
 40
1
 40
1
 40
1
 40
1
 10
5.207282
 20
115.774585
 30
0.0
 10
7.863911
 20
117.696399
 30
0.0
 10
11.592529
 20
119.771662
 30
0.0
 10
15.777599
 20
121.835132
 30
0.0
  0
SPLINE
  5
15b
100
AcDbEntity
  8
Layer_1
 62
1
100
AcDbSpline
 70
8
 71
3
 72
8
 73
4
 74
0
 40
0
 40
0
 40
0
 40
0
 40
1
 40
1
 40
1
 40
1
 10
15.777599
 20
121.835132
 30
0.0
 10
24.147665
 20
125.962149
 30
0.0
 10
34.338518
 20
130.051447
 30
0.0
 10
41.554921
 20
132.923018
 30
0.0
  0
SPLINE
  5
15c
100
AcDbEntity
  8
Layer_1
 62
1
100
AcDbSpline
 70
8
 71
3
 72
8
 73
4
 74
0
 40
0
 40
0
 40
0
 40
0
 40
1
 40
1
 40
1
 40
1
 10
41.554921
 20
132.923018
 30
0.0
 10
59.253654
 20
139.965676
 30
0.0
 10
70.450126
 20
147.163257
 30
0.0
 10
96.564733
 20
147.163257
 30
0.0
  0
LWPOLYLINE
  5
15d
100
AcDbEntity
  8
Layer_1
 62
1
100
AcDbPolyline
 90
2
 70
0
 10
1.066658
 20
84.305824
 30
0.0
 10
1.066658
 20
110.866377
 30
0.0
  0
LWPOLYLINE
  5
15e
100
AcDbEntity
  8
Layer_1
 62
1
100
AcDbPolyline
 90
1
 70
1
 10
96.564733
 20
147.163257
 30
0.0
  0
SPLINE
  5
15f
100
AcDbEntity
  8
Layer_1
 62
1
100
AcDbSpline
 70
8
 71
3
 72
8
 73
4
 74
0
 40
0
 40
0
 40
0
 40
0
 40
1
 40
1
 40
1
 40
1
 10
394.746201
 20
147.163257
 30
0.0
 10
420.860846
 20
147.163257
 30
0.0
 10
432.057280
 20
139.965714
 30
0.0
 10
449.755975
 20
132.923018
 30
0.0
  0
SPLINE
  5
160
100
AcDbEntity
  8
Layer_1
 62
1
100
AcDbSpline
 70
8
 71
3
 72
8
 73
4
 74
0
 40
0
 40
0
 40
0
 40
0
 40
1
 40
1
 40
1
 40
1
 10
449.755975
 20
132.923018
 30
0.0
 10
456.972416
 20
130.051447
 30
0.0
 10
467.170979
 20
125.962112
 30
0.0
 10
475.541121
 20
121.835132
 30
0.0
  0
SPLINE
  5
161
100
AcDbEntity
  8
Layer_1
 62
1
100
AcDbSpline
 70
8
 71
3
 72
8
 73
4
 74
0
 40
0
 40
0
 40
0
 40
0
 40
1
 40
1
 40
1
 40
1
 10
475.541121
 20
121.835132
 30
0.0
 10
479.726229
 20
119.771662
 30
0.0
 10
483.454809
 20
117.696399
 30
0.0
 10
486.111438
 20
115.774585
 30
0.0
  0
SPLINE
  5
162
100
AcDbEntity
  8
Layer_1
 62
1
100
AcDbSpline
 70
8
 71
3
 72
8
 73
4
 74
0
 40
0
 40
0
 40
0
 40
0
 40
1
 40
1
 40
1
 40
1
 10
486.111438
 20
115.774585
 30
0.0
 10
487.439715
 20
114.813677
 30
0.0
 10
488.497416
 20
113.894345
 30
0.0
 10
489.205208
 20
113.051926
 30
0.0
  0
SPLINE
  5
163
100
AcDbEntity
  8
Layer_1
 62
1
100
AcDbSpline
 70
8
 71
3
 72
8
 73
4
 74
0
 40
0
 40
0
 40
0
 40
0
 40
1
 40
1
 40
1
 40
1
 10
489.205208
 20
113.051926
 30
0.0
 10
489.913038
 20
112.209545
 30
0.0
 10
490.254027
 20
111.459687
 30
0.0
 10
490.254027
 20
110.866377
 30
0.0
  0
LWPOLYLINE
  5
164
100
AcDbEntity
  8
Layer_1
 62
1
100
AcDbPolyline
 90
3
 70
0
 10
347.125139
 20
147.163257
 30
0.0
 10
370.939563
 20
147.163257
 30
0.0
 10
394.746201
 20
147.163257
 30
0.0
  0
SPLINE
  5
165
100
AcDbEntity
  8
Layer_1
 62
1
100
AcDbSpline
 70
8
 71
3
 72
8
 73
4
 74
0
 40
0
 40
0
 40
0
 40
0
 40
1
 40
1
 40
1
 40
1
 10
490.254027
 20
84.305824
 30
0.0
 10
490.254027
 20
82.674542
 30
0.0
 10
489.567098
 20
80.624451
 30
0.0
 10
488.466915
 20
79.036293
 30
0.0
  0
SPLINE
  5
166
100
AcDbEntity
  8
Layer_1
 62
1
100
AcDbSpline
 70
8
 71
3
 72
8
 73
4
 74
0
 40
0
 40
0
 40
0
 40
0
 40
1
 40
1
 40
1
 40
1
 10
488.466915
 20
79.036293
 30
0.0
 10
487.366771
 20
77.448173
 30
0.0
 10
485.889958
 20
76.356608
 30
0.0
 10
484.355583
 20
76.356608
 30
0.0
  0
LWPOLYLINE
  5
167
100
AcDbEntity
  8
Layer_1
 62
1
100
AcDbPolyline
 90
2
 70
0
 10
490.254027
 20
110.866377
 30
0.0
 10
490.254027
 20
84.305824
 30
0.0
  0
SPLINE
  5
168
100
AcDbEntity
  8
Layer_1
 62
1
100
AcDbSpline
 70
8
 71
3
 72
8
 73
4
 74
0
 40
0
 40
0
 40
0
 40
0
 40
1
 40
1
 40
1
 40
1
 10
257.525470
 20
76.356608
 30
0.0
 10
255.991095
 20
76.356608
 30
0.0
 10
254.512355
 20
77.448173
 30
0.0
 10
253.412210
 20
79.036293
 30
0.0
  0
SPLINE
  5
169
100
AcDbEntity
  8
Layer_1
 62
1
100
AcDbSpline
 70
8
 71
3
 72
8
 73
4
 74
0
 40
0
 40
0
 40
0
 40
0
 40
1
 40
1
 40
1
 40
1
 10
253.412210
 20
79.036293
 30
0.0
 10
252.312027
 20
80.624451
 30
0.0
 10
251.627064
 20
82.674542
 30
0.0
 10
251.627064
 20
84.305824
 30
0.0
  0
LWPOLYLINE
  5
16a
100
AcDbEntity
  8
Layer_1
 62
1
100
AcDbPolyline
 90
3
 70
0
 10
484.355583
 20
76.356608
 30
0.0
 10
370.939563
 20
76.356608
 30
0.0
 10
257.525470
 20
76.356608
 30
0.0
  0
SPLINE
  5
16b
100
AcDbEntity
  8
Layer_1
 62
1
100
AcDbSpline
 70
8
 71
3
 72
8
 73
4
 74
0
 40
0
 40
0
 40
0
 40
0
 40
1
 40
1
 40
1
 40
1
 10
251.627064
 20
110.866377
 30
0.0
 10
251.627064
 20
111.459725
 30
0.0
 10
251.966087
 20
112.209545
 30
0.0
 10
252.673917
 20
113.051926
 30
0.0
  0
SPLINE
  5
16c
100
AcDbEntity
  8
Layer_1
 62
1
100
AcDbSpline
 70
8
 71
3
 72
8
 73
4
 74
0
 40
0
 40
0
 40
0
 40
0
 40
1
 40
1
 40
1
 40
1
 10
252.673917
 20
113.051926
 30
0.0
 10
253.381747
 20
113.894345
 30
0.0
 10
254.439410
 20
114.813677
 30
0.0
 10
255.767687
 20
115.774585
 30
0.0
  0
SPLINE
  5
16d
100
AcDbEntity
  8
Layer_1
 62
1
100
AcDbSpline
 70
8
 71
3
 72
8
 73
4
 74
0
 40
0
 40
0
 40
0
 40
0
 40
1
 40
1
 40
1
 40
1
 10
255.767687
 20
115.774585
 30
0.0
 10
258.424317
 20
117.696399
 30
0.0
 10
262.152934
 20
119.771662
 30
0.0
 10
266.338005
 20
121.835132
 30
0.0
  0
SPLINE
  5
16e
100
AcDbEntity
  8
Layer_1
 62
1
100
AcDbSpline
 70
8
 71
3
 72
8
 73
4
 74
0
 40
0
 40
0
 40
0
 40
0
 40
1
 40
1
 40
1
 40
1
 10
266.338005
 20
121.835132
 30
0.0
 10
274.708071
 20
125.962149
 30
0.0
 10
284.898924
 20
130.051447
 30
0.0
 10
292.115327
 20
132.923018
 30
0.0
  0
SPLINE
  5
16f
100
AcDbEntity
  8
Layer_1
 62
1
100
AcDbSpline
 70
8
 71
3
 72
8
 73
4
 74
0
 40
0
 40
0
 40
0
 40
0
 40
1
 40
1
 40
1
 40
1
 10
292.115327
 20
132.923018
 30
0.0
 10
309.814060
 20
139.965676
 30
0.0
 10
321.010532
 20
147.163257
 30
0.0
 10
347.125139
 20
147.163257
 30
0.0
  0
LWPOLYLINE
  5
170
100
AcDbEntity
  8
Layer_1
 62
1
100
AcDbPolyline
 90
2
 70
0
 10
251.627064
 20
84.305824
 30
0.0
 10
251.627064
 20
110.866377
 30
0.0
  0
LWPOLYLINE
  5
171
100
AcDbEntity
  8
Layer_1
 62
1
100
AcDbPolyline
 90
1
 70
1
 10
347.125139
 20
147.163257
 30
0.0
  0
SPLINE
  5
172
100
AcDbEntity
  8
Layer_1
 62
1
100
AcDbSpline
 70
8
 71
3
 72
8
 73
4
 74
0
 40
0
 40
0
 40
0
 40
0
 40
1
 40
1
 40
1
 40
1
 10
144.207074
 20
70.901125
 30
0.0
 10
170.321719
 20
70.901125
 30
0.0
 10
181.518153
 20
63.703582
 30
0.0
 10
199.216849
 20
56.660886
 30
0.0
  0
SPLINE
  5
173
100
AcDbEntity
  8
Layer_1
 62
1
100
AcDbSpline
 70
8
 71
3
 72
8
 73
4
 74
0
 40
0
 40
0
 40
0
 40
0
 40
1
 40
1
 40
1
 40
1
 10
199.216849
 20
56.660886
 30
0.0
 10
206.433289
 20
53.789315
 30
0.0
 10
216.631853
 20
49.699979
 30
0.0
 10
225.001994
 20
45.573000
 30
0.0
  0
SPLINE
  5
174
100
AcDbEntity
  8
Layer_1
 62
1
100
AcDbSpline
 70
8
 71
3
 72
8
 73
4
 74
0
 40
0
 40
0
 40
0
 40
0
 40
1
 40
1
 40
1
 40
1
 10
225.001994
 20
45.573000
 30
0.0
 10
229.187102
 20
43.509529
 30
0.0
 10
232.915682
 20
41.434266
 30
0.0
 10
235.572312
 20
39.512452
 30
0.0
  0
SPLINE
  5
175
100
AcDbEntity
  8
Layer_1
 62
1
100
AcDbSpline
 70
8
 71
3
 72
8
 73
4
 74
0
 40
0
 40
0
 40
0
 40
0
 40
1
 40
1
 40
1
 40
1
 10
235.572312
 20
39.512452
 30
0.0
 10
236.900589
 20
38.551545
 30
0.0
 10
237.958289
 20
37.632213
 30
0.0
 10
238.666082
 20
36.789794
 30
0.0
  0
SPLINE
  5
176
100
AcDbEntity
  8
Layer_1
 62
1
100
AcDbSpline
 70
8
 71
3
 72
8
 73
4
 74
0
 40
0
 40
0
 40
0
 40
0
 40
1
 40
1
 40
1
 40
1
 10
238.666082
 20
36.789794
 30
0.0
 10
239.373911
 20
35.947413
 30
0.0
 10
239.714900
 20
35.197555
 30
0.0
 10
239.714900
 20
34.604245
 30
0.0
  0
LWPOLYLINE
  5
177
100
AcDbEntity
  8
Layer_1
 62
1
100
AcDbPolyline
 90
3
 70
0
 10
96.586012
 20
70.901125
 30
0.0
 10
120.400436
 20
70.901125
 30
0.0
 10
144.207074
 20
70.901125
 30
0.0
  0
SPLINE
  5
178
100
AcDbEntity
  8
Layer_1
 62
1
100
AcDbSpline
 70
8
 71
3
 72
8
 73
4
 74
0
 40
0
 40
0
 40
0
 40
0
 40
1
 40
1
 40
1
 40
1
 10
239.714900
 20
8.043691
 30
0.0
 10
239.714900
 20
6.412409
 30
0.0
 10
239.027971
 20
4.362318
 30
0.0
 10
237.927789
 20
2.774161
 30
0.0
  0
SPLINE
  5
179
100
AcDbEntity
  8
Layer_1
 62
1
100
AcDbSpline
 70
8
 71
3
 72
8
 73
4
 74
0
 40
0
 40
0
 40
0
 40
0
 40
1
 40
1
 40
1
 40
1
 10
237.927789
 20
2.774161
 30
0.0
 10
236.827644
 20
1.186041
 30
0.0
 10
235.350831
 20
0.094476
 30
0.0
 10
233.816457
 20
0.094476
 30
0.0
  0
LWPOLYLINE
  5
17a
100
AcDbEntity
  8
Layer_1
 62
1
100
AcDbPolyline
 90
2
 70
0
 10
239.714900
 20
34.604245
 30
0.0
 10
239.714900
 20
8.043691
 30
0.0
  0
SPLINE
  5
17b
100
AcDbEntity
  8
Layer_1
 62
1
100
AcDbSpline
 70
8
 71
3
 72
8
 73
4
 74
0
 40
0
 40
0
 40
0
 40
0
 40
1
 40
1
 40
1
 40
1
 10
6.986343
 20
0.094476
 30
0.0
 10
5.451968
 20
0.094476
 30
0.0
 10
3.973228
 20
1.186041
 30
0.0
 10
2.873083
 20
2.774161
 30
0.0
  0
SPLINE
  5
17c
100
AcDbEntity
  8
Layer_1
 62
1
100
AcDbSpline
 70
8
 71
3
 72
8
 73
4
 74
0
 40
0
 40
0
 40
0
 40
0
 40
1
 40
1
 40
1
 40
1
 10
2.873083
 20
2.774161
 30
0.0
 10
1.772901
 20
4.362318
 30
0.0
 10
1.087937
 20
6.412409
 30
0.0
 10
1.087937
 20
8.043691
 30
0.0
  0
LWPOLYLINE
  5
17d
100
AcDbEntity
  8
Layer_1
 62
1
100
AcDbPolyline
 90
3
 70
0
 10
233.816457
 20
0.094476
 30
0.0
 10
120.400436
 20
0.094476
 30
0.0
 10
6.986343
 20
0.094476
 30
0.0
  0
SPLINE
  5
17e
100
AcDbEntity
  8
Layer_1
 62
1
100
AcDbSpline
 70
8
 71
3
 72
8
 73
4
 74
0
 40
0
 40
0
 40
0
 40
0
 40
1
 40
1
 40
1
 40
1
 10
1.087937
 20
34.604245
 30
0.0
 10
1.087937
 20
35.197593
 30
0.0
 10
1.426961
 20
35.947413
 30
0.0
 10
2.134790
 20
36.789794
 30
0.0
  0
SPLINE
  5
17f
100
AcDbEntity
  8
Layer_1
 62
1
100
AcDbSpline
 70
8
 71
3
 72
8
 73
4
 74
0
 40
0
 40
0
 40
0
 40
0
 40
1
 40
1
 40
1
 40
1
 10
2.134790
 20
36.789794
 30
0.0
 10
2.842620
 20
37.632213
 30
0.0
 10
3.900283
 20
38.551545
 30
0.0
 10
5.228560
 20
39.512452
 30
0.0
  0
SPLINE
  5
180
100
AcDbEntity
  8
Layer_1
 62
1
100
AcDbSpline
 70
8
 71
3
 72
8
 73
4
 74
0
 40
0
 40
0
 40
0
 40
0
 40
1
 40
1
 40
1
 40
1
 10
5.228560
 20
39.512452
 30
0.0
 10
7.885190
 20
41.434266
 30
0.0
 10
11.613807
 20
43.509529
 30
0.0
 10
15.798878
 20
45.573000
 30
0.0
  0
SPLINE
  5
181
100
AcDbEntity
  8
Layer_1
 62
1
100
AcDbSpline
 70
8
 71
3
 72
8
 73
4
 74
0
 40
0
 40
0
 40
0
 40
0
 40
1
 40
1
 40
1
 40
1
 10
15.798878
 20
45.573000
 30
0.0
 10
24.168944
 20
49.700017
 30
0.0
 10
34.359797
 20
53.789315
 30
0.0
 10
41.576200
 20
56.660886
 30
0.0
  0
SPLINE
  5
182
100
AcDbEntity
  8
Layer_1
 62
1
100
AcDbSpline
 70
8
 71
3
 72
8
 73
4
 74
0
 40
0
 40
0
 40
0
 40
0
 40
1
 40
1
 40
1
 40
1
 10
41.576200
 20
56.660886
 30
0.0
 10
59.274933
 20
63.703544
 30
0.0
 10
70.471405
 20
70.901125
 30
0.0
 10
96.586012
 20
70.901125
 30
0.0
  0
LWPOLYLINE
  5
183
100
AcDbEntity
  8
Layer_1
 62
1
100
AcDbPolyline
 90
2
 70
0
 10
1.087937
 20
8.043691
 30
0.0
 10
1.087937
 20
34.604245
 30
0.0
  0
LWPOLYLINE
  5
184
100
AcDbEntity
  8
Layer_1
 62
1
100
AcDbPolyline
 90
1
 70
1
 10
96.586012
 20
70.901125
 30
0.0
  0
SPLINE
  5
185
100
AcDbEntity
  8
Layer_1
 62
1
100
AcDbSpline
 70
8
 71
3
 72
8
 73
4
 74
0
 40
0
 40
0
 40
0
 40
0
 40
1
 40
1
 40
1
 40
1
 10
394.767480
 20
70.901125
 30
0.0
 10
420.882124
 20
70.901125
 30
0.0
 10
432.078559
 20
63.703582
 30
0.0
 10
449.777254
 20
56.660886
 30
0.0
  0
SPLINE
  5
186
100
AcDbEntity
  8
Layer_1
 62
1
100
AcDbSpline
 70
8
 71
3
 72
8
 73
4
 74
0
 40
0
 40
0
 40
0
 40
0
 40
1
 40
1
 40
1
 40
1
 10
449.777254
 20
56.660886
 30
0.0
 10
456.993695
 20
53.789315
 30
0.0
 10
467.192258
 20
49.699979
 30
0.0
 10
475.562399
 20
45.573000
 30
0.0
  0
SPLINE
  5
187
100
AcDbEntity
  8
Layer_1
 62
1
100
AcDbSpline
 70
8
 71
3
 72
8
 73
4
 74
0
 40
0
 40
0
 40
0
 40
0
 40
1
 40
1
 40
1
 40
1
 10
475.562399
 20
45.573000
 30
0.0
 10
479.747508
 20
43.509529
 30
0.0
 10
483.476087
 20
41.434266
 30
0.0
 10
486.132717
 20
39.512452
 30
0.0
  0
SPLINE
  5
188
100
AcDbEntity
  8
Layer_1
 62
1
100
AcDbSpline
 70
8
 71
3
 72
8
 73
4
 74
0
 40
0
 40
0
 40
0
 40
0
 40
1
 40
1
 40
1
 40
1
 10
486.132717
 20
39.512452
 30
0.0
 10
487.460994
 20
38.551545
 30
0.0
 10
488.518695
 20
37.632213
 30
0.0
 10
489.226487
 20
36.789794
 30
0.0
  0
SPLINE
  5
189
100
AcDbEntity
  8
Layer_1
 62
1
100
AcDbSpline
 70
8
 71
3
 72
8
 73
4
 74
0
 40
0
 40
0
 40
0
 40
0
 40
1
 40
1
 40
1
 40
1
 10
489.226487
 20
36.789794
 30
0.0
 10
489.934317
 20
35.947413
 30
0.0
 10
490.275306
 20
35.197555
 30
0.0
 10
490.275306
 20
34.604245
 30
0.0
  0
LWPOLYLINE
  5
18a
100
AcDbEntity
  8
Layer_1
 62
1
100
AcDbPolyline
 90
3
 70
0
 10
347.146417
 20
70.901125
 30
0.0
 10
370.960841
 20
70.901125
 30
0.0
 10
394.767480
 20
70.901125
 30
0.0
  0
SPLINE
  5
18b
100
AcDbEntity
  8
Layer_1
 62
1
100
AcDbSpline
 70
8
 71
3
 72
8
 73
4
 74
0
 40
0
 40
0
 40
0
 40
0
 40
1
 40
1
 40
1
 40
1
 10
490.275306
 20
8.043691
 30
0.0
 10
490.275306
 20
6.412409
 30
0.0
 10
489.588377
 20
4.362318
 30
0.0
 10
488.488194
 20
2.774161
 30
0.0
  0
SPLINE
  5
18c
100
AcDbEntity
  8
Layer_1
 62
1
100
AcDbSpline
 70
8
 71
3
 72
8
 73
4
 74
0
 40
0
 40
0
 40
0
 40
0
 40
1
 40
1
 40
1
 40
1
 10
488.488194
 20
2.774161
 30
0.0
 10
487.388049
 20
1.186041
 30
0.0
 10
485.911237
 20
0.094476
 30
0.0
 10
484.376862
 20
0.094476
 30
0.0
  0
LWPOLYLINE
  5
18d
100
AcDbEntity
  8
Layer_1
 62
1
100
AcDbPolyline
 90
2
 70
0
 10
490.275306
 20
34.604245
 30
0.0
 10
490.275306
 20
8.043691
 30
0.0
  0
SPLINE
  5
18e
100
AcDbEntity
  8
Layer_1
 62
1
100
AcDbSpline
 70
8
 71
3
 72
8
 73
4
 74
0
 40
0
 40
0
 40
0
 40
0
 40
1
 40
1
 40
1
 40
1
 10
257.546748
 20
0.094476
 30
0.0
 10
256.012374
 20
0.094476
 30
0.0
 10
254.533634
 20
1.186041
 30
0.0
 10
253.433489
 20
2.774161
 30
0.0
  0
SPLINE
  5
18f
100
AcDbEntity
  8
Layer_1
 62
1
100
AcDbSpline
 70
8
 71
3
 72
8
 73
4
 74
0
 40
0
 40
0
 40
0
 40
0
 40
1
 40
1
 40
1
 40
1
 10
253.433489
 20
2.774161
 30
0.0
 10
252.333306
 20
4.362318
 30
0.0
 10
251.648342
 20
6.412409
 30
0.0
 10
251.648342
 20
8.043691
 30
0.0
  0
LWPOLYLINE
  5
190
100
AcDbEntity
  8
Layer_1
 62
1
100
AcDbPolyline
 90
3
 70
0
 10
484.376862
 20
0.094476
 30
0.0
 10
370.960841
 20
0.094476
 30
0.0
 10
257.546748
 20
0.094476
 30
0.0
  0
SPLINE
  5
191
100
AcDbEntity
  8
Layer_1
 62
1
100
AcDbSpline
 70
8
 71
3
 72
8
 73
4
 74
0
 40
0
 40
0
 40
0
 40
0
 40
1
 40
1
 40
1
 40
1
 10
251.648342
 20
34.604245
 30
0.0
 10
251.648342
 20
35.197593
 30
0.0
 10
251.987366
 20
35.947413
 30
0.0
 10
252.695196
 20
36.789794
 30
0.0
  0
SPLINE
  5
192
100
AcDbEntity
  8
Layer_1
 62
1
100
AcDbSpline
 70
8
 71
3
 72
8
 73
4
 74
0
 40
0
 40
0
 40
0
 40
0
 40
1
 40
1
 40
1
 40
1
 10
252.695196
 20
36.789794
 30
0.0
 10
253.403026
 20
37.632213
 30
0.0
 10
254.460689
 20
38.551545
 30
0.0
 10
255.788966
 20
39.512452
 30
0.0
  0
SPLINE
  5
193
100
AcDbEntity
  8
Layer_1
 62
1
100
AcDbSpline
 70
8
 71
3
 72
8
 73
4
 74
0
 40
0
 40
0
 40
0
 40
0
 40
1
 40
1
 40
1
 40
1
 10
255.788966
 20
39.512452
 30
0.0
 10
258.445596
 20
41.434266
 30
0.0
 10
262.174213
 20
43.509529
 30
0.0
 10
266.359284
 20
45.573000
 30
0.0
  0
SPLINE
  5
194
100
AcDbEntity
  8
Layer_1
 62
1
100
AcDbSpline
 70
8
 71
3
 72
8
 73
4
 74
0
 40
0
 40
0
 40
0
 40
0
 40
1
 40
1
 40
1
 40
1
 10
266.359284
 20
45.573000
 30
0.0
 10
274.729349
 20
49.700017
 30
0.0
 10
284.920202
 20
53.789315
 30
0.0
 10
292.136605
 20
56.660886
 30
0.0
  0
SPLINE
  5
195
100
AcDbEntity
  8
Layer_1
 62
1
100
AcDbSpline
 70
8
 71
3
 72
8
 73
4
 74
0
 40
0
 40
0
 40
0
 40
0
 40
1
 40
1
 40
1
 40
1
 10
292.136605
 20
56.660886
 30
0.0
 10
309.835338
 20
63.703544
 30
0.0
 10
321.031810
 20
70.901125
 30
0.0
 10
347.146417
 20
70.901125
 30
0.0
  0
LWPOLYLINE
  5
196
100
AcDbEntity
  8
Layer_1
 62
1
100
AcDbPolyline
 90
2
 70
0
 10
251.648342
 20
8.043691
 30
0.0
 10
251.648342
 20
34.604245
 30
0.0
  0
LWPOLYLINE
  5
197
100
AcDbEntity
  8
Layer_1
 62
1
100
AcDbPolyline
 90
1
 70
1
 10
347.146417
 20
70.901125
 30
0.0
  0
ENDSEC
  0
SECTION
  2
OBJECTS
  0
DICTIONARY
  5
C
330
0
100
AcDbDictionary
  3
ACAD_GROUP
350
D
  3
ACAD_MLINESTYLE
350
17
  0
DICTIONARY
  5
D
330
C
100
AcDbDictionary
  0
DICTIONARY
  5
1A
330
C
100
AcDbDictionary
  0
DICTIONARY
  5
17
330
C
100
AcDbDictionary
  3
STANDARD
350
18
  0
DICTIONARY
  5
19
330
C
100
AcDbDictionary
  0
ENDSEC
  0
EOF
