<?xml version="1.0" encoding="UTF-8" standalone="no"?>
<!-- Created with Inkscape (http://www.inkscape.org/) -->

<svg
   xmlns:dc="http://purl.org/dc/elements/1.1/"
   xmlns:cc="http://creativecommons.org/ns#"
   xmlns:rdf="http://www.w3.org/1999/02/22-rdf-syntax-ns#"
   xmlns:svg="http://www.w3.org/2000/svg"
   xmlns="http://www.w3.org/2000/svg"
   xmlns:sodipodi="http://sodipodi.sourceforge.net/DTD/sodipodi-0.dtd"
   xmlns:inkscape="http://www.inkscape.org/namespaces/inkscape"
   width="5.1080189in"
   height="3.1311731in"
   viewBox="0 0 129.74368 79.5318"
   version="1.1"
   id="svg56"
   inkscape:version="0.92.4 (5da689c313, 2019-01-14)"
   sodipodi:docname="CUT Nose Patches (8).svg">
  <defs
     id="defs50" />
  <sodipodi:namedview
     id="base"
     pagecolor="#ffffff"
     bordercolor="#666666"
     borderopacity="1.0"
     inkscape:pageopacity="0.0"
     inkscape:pageshadow="2"
     inkscape:zoom="1.4"
     inkscape:cx="69.012944"
     inkscape:cy="178.27227"
     inkscape:document-units="in"
     inkscape:current-layer="layer1"
     showgrid="false"
     units="in"
     showguides="true"
     inkscape:guide-bbox="true"
     inkscape:window-width="2560"
     inkscape:window-height="1057"
     inkscape:window-x="-8"
     inkscape:window-y="-8"
     inkscape:window-maximized="1"
     fit-margin-top="0"
     fit-margin-left="0"
     fit-margin-right="0"
     fit-margin-bottom="0">
    <sodipodi:guide
       position="-11.28742,79.506798"
       orientation="0,1"
       id="guide1052"
       inkscape:locked="false" />
    <sodipodi:guide
       position="0.03288001,70.029985"
       orientation="1,0"
       id="guide961"
       inkscape:locked="false" />
  </sodipodi:namedview>
  <metadata
     id="metadata53">
    <rdf:RDF>
      <cc:Work
         rdf:about="">
        <dc:format>image/svg+xml</dc:format>
        <dc:type
           rdf:resource="http://purl.org/dc/dcmitype/StillImage" />
        <dc:title></dc:title>
      </cc:Work>
    </rdf:RDF>
  </metadata>
  <g
     inkscape:label="Layer 1"
     inkscape:groupmode="layer"
     id="layer1"
     transform="translate(-116.32434,-173.76373)">
    <path
       style="color:#000000;font-style:normal;font-variant:normal;font-weight:normal;font-stretch:normal;font-size:medium;line-height:normal;font-family:sans-serif;font-variant-ligatures:normal;font-variant-position:normal;font-variant-caps:normal;font-variant-numeric:normal;font-variant-alternates:normal;font-feature-settings:normal;text-indent:0;text-align:start;text-decoration:none;text-decoration-line:none;text-decoration-style:solid;text-decoration-color:#000000;letter-spacing:normal;word-spacing:normal;text-transform:none;writing-mode:lr-tb;direction:ltr;text-orientation:mixed;dominant-baseline:auto;baseline-shift:baseline;text-anchor:start;white-space:normal;shape-padding:0;clip-rule:nonzero;display:inline;overflow:visible;visibility:visible;opacity:1;isolation:auto;mix-blend-mode:normal;color-interpolation:sRGB;color-interpolation-filters:linearRGB;solid-color:#000000;solid-opacity:1;vector-effect:none;fill:none;fill-opacity:1;fill-rule:nonzero;stroke:#ff0000;stroke-width:0.05;stroke-linecap:butt;stroke-linejoin:miter;stroke-miterlimit:4;stroke-dasharray:none;stroke-dashoffset:0;stroke-opacity:1;color-rendering:auto;image-rendering:auto;shape-rendering:auto;text-rendering:auto;enable-background:accumulate"
       d="m 141.61654,173.78873 h 6.3009 6.29884 c 6.9095,0 9.87189,1.90435 14.55467,3.76773 1.90935,0.75977 4.60772,1.84174 6.82232,2.93367 1.10731,0.54596 2.09383,1.09504 2.79673,1.60352 0.35144,0.25424 0.63129,0.49748 0.81856,0.72037 0.18728,0.22288 0.2775,0.42128 0.2775,0.57826 v 7.02748 c 0,0.43161 -0.18175,0.97403 -0.47284,1.39423 -0.29108,0.42019 -0.68182,0.709 -1.08779,0.709 h -30.00799 -30.00748 c -0.40597,0 -0.79722,-0.28881 -1.0883,-0.709 -0.29109,-0.4202 -0.47232,-0.96262 -0.47232,-1.39423 v -7.02748 c 0,-0.15699 0.0897,-0.35538 0.27698,-0.57826 0.18728,-0.22289 0.46712,-0.46613 0.81856,-0.72037 0.7029,-0.50848 1.68943,-1.05756 2.79673,-1.60352 2.21458,-1.09194 4.91091,-2.1739 6.82025,-2.93367 4.68279,-1.86337 7.64519,-3.76773 14.55468,-3.76773 z"
       id="path883-8-0"
       inkscape:connector-curvature="0" />
    <path
       style="color:#000000;font-style:normal;font-variant:normal;font-weight:normal;font-stretch:normal;font-size:medium;line-height:normal;font-family:sans-serif;font-variant-ligatures:normal;font-variant-position:normal;font-variant-caps:normal;font-variant-numeric:normal;font-variant-alternates:normal;font-feature-settings:normal;text-indent:0;text-align:start;text-decoration:none;text-decoration-line:none;text-decoration-style:solid;text-decoration-color:#000000;letter-spacing:normal;word-spacing:normal;text-transform:none;writing-mode:lr-tb;direction:ltr;text-orientation:mixed;dominant-baseline:auto;baseline-shift:baseline;text-anchor:start;white-space:normal;shape-padding:0;clip-rule:nonzero;display:inline;overflow:visible;visibility:visible;opacity:1;isolation:auto;mix-blend-mode:normal;color-interpolation:sRGB;color-interpolation-filters:linearRGB;solid-color:#000000;solid-opacity:1;vector-effect:none;fill:none;fill-opacity:1;fill-rule:nonzero;stroke:#ff0000;stroke-width:0.05;stroke-linecap:butt;stroke-linejoin:miter;stroke-miterlimit:4;stroke-dasharray:none;stroke-dashoffset:0;stroke-opacity:1;color-rendering:auto;image-rendering:auto;shape-rendering:auto;text-rendering:auto;enable-background:accumulate"
       d="m 207.91065,173.78873 h 6.3009 6.29884 c 6.9095,0 9.87189,1.90435 14.55467,3.76773 1.90935,0.75977 4.60772,1.84174 6.82232,2.93367 1.10731,0.54596 2.09383,1.09504 2.79673,1.60352 0.35144,0.25424 0.63129,0.49748 0.81856,0.72037 0.18728,0.22288 0.2775,0.42128 0.2775,0.57826 v 7.02748 c 0,0.43161 -0.18175,0.97403 -0.47284,1.39423 -0.29108,0.42019 -0.68182,0.709 -1.08779,0.709 h -30.00799 -30.00748 c -0.40597,0 -0.79722,-0.28881 -1.0883,-0.709 -0.29109,-0.4202 -0.47232,-0.96262 -0.47232,-1.39423 v -7.02748 c 0,-0.15699 0.0897,-0.35538 0.27698,-0.57826 0.18728,-0.22289 0.46712,-0.46613 0.81856,-0.72037 0.7029,-0.50848 1.68943,-1.05756 2.79673,-1.60352 2.21458,-1.09194 4.91091,-2.1739 6.82025,-2.93367 4.68279,-1.86337 7.64519,-3.76773 14.55468,-3.76773 z"
       id="path883-8-0-5"
       inkscape:connector-curvature="0" />
    <path
       style="color:#000000;font-style:normal;font-variant:normal;font-weight:normal;font-stretch:normal;font-size:medium;line-height:normal;font-family:sans-serif;font-variant-ligatures:normal;font-variant-position:normal;font-variant-caps:normal;font-variant-numeric:normal;font-variant-alternates:normal;font-feature-settings:normal;text-indent:0;text-align:start;text-decoration:none;text-decoration-line:none;text-decoration-style:solid;text-decoration-color:#000000;letter-spacing:normal;word-spacing:normal;text-transform:none;writing-mode:lr-tb;direction:ltr;text-orientation:mixed;dominant-baseline:auto;baseline-shift:baseline;text-anchor:start;white-space:normal;shape-padding:0;clip-rule:nonzero;display:inline;overflow:visible;visibility:visible;opacity:1;isolation:auto;mix-blend-mode:normal;color-interpolation:sRGB;color-interpolation-filters:linearRGB;solid-color:#000000;solid-opacity:1;vector-effect:none;fill:none;fill-opacity:1;fill-rule:nonzero;stroke:#ff0000;stroke-width:0.05;stroke-linecap:butt;stroke-linejoin:miter;stroke-miterlimit:4;stroke-dasharray:none;stroke-dashoffset:0;stroke-opacity:1;color-rendering:auto;image-rendering:auto;shape-rendering:auto;text-rendering:auto;enable-background:accumulate"
       d="m 141.62217,193.96642 h 6.3009 6.29884 c 6.9095,0 9.87189,1.90435 14.55467,3.76773 1.90935,0.75977 4.60772,1.84174 6.82232,2.93367 1.10731,0.54596 2.09383,1.09504 2.79673,1.60352 0.35144,0.25424 0.63129,0.49748 0.81856,0.72037 0.18728,0.22288 0.2775,0.42128 0.2775,0.57826 v 7.02748 c 0,0.43161 -0.18175,0.97403 -0.47284,1.39423 -0.29108,0.42019 -0.68182,0.709 -1.08779,0.709 h -30.00799 -30.00748 c -0.40597,0 -0.79722,-0.28881 -1.0883,-0.709 -0.29109,-0.4202 -0.47232,-0.96262 -0.47232,-1.39423 v -7.02748 c 0,-0.15699 0.0897,-0.35538 0.27698,-0.57826 0.18728,-0.22289 0.46712,-0.46613 0.81856,-0.72037 0.7029,-0.50848 1.68943,-1.05756 2.79673,-1.60352 2.21458,-1.09194 4.91091,-2.1739 6.82025,-2.93367 4.68279,-1.86337 7.64519,-3.76773 14.55468,-3.76773 z"
       id="path883-8-0-2"
       inkscape:connector-curvature="0" />
    <path
       style="color:#000000;font-style:normal;font-variant:normal;font-weight:normal;font-stretch:normal;font-size:medium;line-height:normal;font-family:sans-serif;font-variant-ligatures:normal;font-variant-position:normal;font-variant-caps:normal;font-variant-numeric:normal;font-variant-alternates:normal;font-feature-settings:normal;text-indent:0;text-align:start;text-decoration:none;text-decoration-line:none;text-decoration-style:solid;text-decoration-color:#000000;letter-spacing:normal;word-spacing:normal;text-transform:none;writing-mode:lr-tb;direction:ltr;text-orientation:mixed;dominant-baseline:auto;baseline-shift:baseline;text-anchor:start;white-space:normal;shape-padding:0;clip-rule:nonzero;display:inline;overflow:visible;visibility:visible;opacity:1;isolation:auto;mix-blend-mode:normal;color-interpolation:sRGB;color-interpolation-filters:linearRGB;solid-color:#000000;solid-opacity:1;vector-effect:none;fill:none;fill-opacity:1;fill-rule:nonzero;stroke:#ff0000;stroke-width:0.05;stroke-linecap:butt;stroke-linejoin:miter;stroke-miterlimit:4;stroke-dasharray:none;stroke-dashoffset:0;stroke-opacity:1;color-rendering:auto;image-rendering:auto;shape-rendering:auto;text-rendering:auto;enable-background:accumulate"
       d="m 207.91628,193.96642 h 6.3009 6.29884 c 6.9095,0 9.87189,1.90435 14.55467,3.76773 1.90935,0.75977 4.60772,1.84174 6.82232,2.93367 1.10731,0.54596 2.09383,1.09504 2.79673,1.60352 0.35144,0.25424 0.63129,0.49748 0.81856,0.72037 0.18728,0.22288 0.2775,0.42128 0.2775,0.57826 v 7.02748 c 0,0.43161 -0.18175,0.97403 -0.47284,1.39423 -0.29108,0.42019 -0.68182,0.709 -1.08779,0.709 H 214.21718 184.2097 c -0.40597,0 -0.79722,-0.28881 -1.0883,-0.709 -0.29109,-0.4202 -0.47232,-0.96262 -0.47232,-1.39423 v -7.02748 c 0,-0.15699 0.0897,-0.35538 0.27698,-0.57826 0.18728,-0.22289 0.46712,-0.46613 0.81856,-0.72037 0.7029,-0.50848 1.68943,-1.05756 2.79673,-1.60352 2.21458,-1.09194 4.91091,-2.1739 6.82025,-2.93367 4.68279,-1.86337 7.64519,-3.76773 14.55468,-3.76773 z"
       id="path883-8-0-5-0"
       inkscape:connector-curvature="0" />
    <path
       style="color:#000000;font-style:normal;font-variant:normal;font-weight:normal;font-stretch:normal;font-size:medium;line-height:normal;font-family:sans-serif;font-variant-ligatures:normal;font-variant-position:normal;font-variant-caps:normal;font-variant-numeric:normal;font-variant-alternates:normal;font-feature-settings:normal;text-indent:0;text-align:start;text-decoration:none;text-decoration-line:none;text-decoration-style:solid;text-decoration-color:#000000;letter-spacing:normal;word-spacing:normal;text-transform:none;writing-mode:lr-tb;direction:ltr;text-orientation:mixed;dominant-baseline:auto;baseline-shift:baseline;text-anchor:start;white-space:normal;shape-padding:0;clip-rule:nonzero;display:inline;overflow:visible;visibility:visible;opacity:1;isolation:auto;mix-blend-mode:normal;color-interpolation:sRGB;color-interpolation-filters:linearRGB;solid-color:#000000;solid-opacity:1;vector-effect:none;fill:none;fill-opacity:1;fill-rule:nonzero;stroke:#ff0000;stroke-width:0.05;stroke-linecap:butt;stroke-linejoin:miter;stroke-miterlimit:4;stroke-dasharray:none;stroke-dashoffset:0;stroke-opacity:1;color-rendering:auto;image-rendering:auto;shape-rendering:auto;text-rendering:auto;enable-background:accumulate"
       d="m 141.87376,214.35858 h 6.3009 6.29884 c 6.9095,0 9.87189,1.90435 14.55467,3.76773 1.90935,0.75977 4.60772,1.84174 6.82232,2.93367 1.10731,0.54596 2.09383,1.09504 2.79673,1.60352 0.35144,0.25424 0.63129,0.49748 0.81856,0.72037 0.18728,0.22288 0.2775,0.42128 0.2775,0.57826 v 7.02748 c 0,0.43161 -0.18175,0.97403 -0.47284,1.39423 -0.29108,0.42019 -0.68182,0.709 -1.08779,0.709 h -30.00799 -30.00748 c -0.40597,0 -0.79722,-0.28881 -1.0883,-0.709 -0.29109,-0.4202 -0.47232,-0.96262 -0.47232,-1.39423 v -7.02748 c 0,-0.15699 0.0897,-0.35538 0.27698,-0.57826 0.18728,-0.22289 0.46712,-0.46613 0.81856,-0.72037 0.7029,-0.50848 1.68943,-1.05756 2.79673,-1.60352 2.21458,-1.09194 4.91091,-2.1739 6.82025,-2.93367 4.68279,-1.86337 7.64519,-3.76773 14.55468,-3.76773 z"
       id="path883-8-0-3"
       inkscape:connector-curvature="0" />
    <path
       style="color:#000000;font-style:normal;font-variant:normal;font-weight:normal;font-stretch:normal;font-size:medium;line-height:normal;font-family:sans-serif;font-variant-ligatures:normal;font-variant-position:normal;font-variant-caps:normal;font-variant-numeric:normal;font-variant-alternates:normal;font-feature-settings:normal;text-indent:0;text-align:start;text-decoration:none;text-decoration-line:none;text-decoration-style:solid;text-decoration-color:#000000;letter-spacing:normal;word-spacing:normal;text-transform:none;writing-mode:lr-tb;direction:ltr;text-orientation:mixed;dominant-baseline:auto;baseline-shift:baseline;text-anchor:start;white-space:normal;shape-padding:0;clip-rule:nonzero;display:inline;overflow:visible;visibility:visible;opacity:1;isolation:auto;mix-blend-mode:normal;color-interpolation:sRGB;color-interpolation-filters:linearRGB;solid-color:#000000;solid-opacity:1;vector-effect:none;fill:none;fill-opacity:1;fill-rule:nonzero;stroke:#ff0000;stroke-width:0.05;stroke-linecap:butt;stroke-linejoin:miter;stroke-miterlimit:4;stroke-dasharray:none;stroke-dashoffset:0;stroke-opacity:1;color-rendering:auto;image-rendering:auto;shape-rendering:auto;text-rendering:auto;enable-background:accumulate"
       d="m 208.16787,214.35858 h 6.3009 6.29884 c 6.9095,0 9.87189,1.90435 14.55467,3.76773 1.90935,0.75977 4.60772,1.84174 6.82232,2.93367 1.10731,0.54596 2.09383,1.09504 2.79673,1.60352 0.35144,0.25424 0.63129,0.49748 0.81856,0.72037 0.18728,0.22288 0.2775,0.42128 0.2775,0.57826 v 7.02748 c 0,0.43161 -0.18175,0.97403 -0.47284,1.39423 -0.29108,0.42019 -0.68182,0.709 -1.08779,0.709 h -30.00799 -30.00748 c -0.40597,0 -0.79722,-0.28881 -1.0883,-0.709 -0.29109,-0.4202 -0.47232,-0.96262 -0.47232,-1.39423 v -7.02748 c 0,-0.15699 0.0897,-0.35538 0.27698,-0.57826 0.18728,-0.22289 0.46712,-0.46613 0.81856,-0.72037 0.7029,-0.50848 1.68943,-1.05756 2.79673,-1.60352 2.21458,-1.09194 4.91091,-2.1739 6.82025,-2.93367 4.68279,-1.86337 7.64519,-3.76773 14.55468,-3.76773 z"
       id="path883-8-0-5-6"
       inkscape:connector-curvature="0" />
    <path
       style="color:#000000;font-style:normal;font-variant:normal;font-weight:normal;font-stretch:normal;font-size:medium;line-height:normal;font-family:sans-serif;font-variant-ligatures:normal;font-variant-position:normal;font-variant-caps:normal;font-variant-numeric:normal;font-variant-alternates:normal;font-feature-settings:normal;text-indent:0;text-align:start;text-decoration:none;text-decoration-line:none;text-decoration-style:solid;text-decoration-color:#000000;letter-spacing:normal;word-spacing:normal;text-transform:none;writing-mode:lr-tb;direction:ltr;text-orientation:mixed;dominant-baseline:auto;baseline-shift:baseline;text-anchor:start;white-space:normal;shape-padding:0;clip-rule:nonzero;display:inline;overflow:visible;visibility:visible;opacity:1;isolation:auto;mix-blend-mode:normal;color-interpolation:sRGB;color-interpolation-filters:linearRGB;solid-color:#000000;solid-opacity:1;vector-effect:none;fill:none;fill-opacity:1;fill-rule:nonzero;stroke:#ff0000;stroke-width:0.05;stroke-linecap:butt;stroke-linejoin:miter;stroke-miterlimit:4;stroke-dasharray:none;stroke-dashoffset:0;stroke-opacity:1;color-rendering:auto;image-rendering:auto;shape-rendering:auto;text-rendering:auto;enable-background:accumulate"
       d="m 141.87939,234.53627 h 6.3009 6.29884 c 6.9095,0 9.87189,1.90435 14.55467,3.76773 1.90935,0.75977 4.60772,1.84174 6.82232,2.93367 1.10731,0.54596 2.09383,1.09504 2.79673,1.60352 0.35144,0.25424 0.63129,0.49748 0.81856,0.72037 0.18728,0.22288 0.2775,0.42128 0.2775,0.57826 v 7.02748 c 0,0.43161 -0.18175,0.97403 -0.47284,1.39423 -0.29108,0.42019 -0.68182,0.709 -1.08779,0.709 h -30.00799 -30.00748 c -0.40597,0 -0.79722,-0.28881 -1.0883,-0.709 -0.29109,-0.4202 -0.47232,-0.96262 -0.47232,-1.39423 v -7.02748 c 0,-0.15699 0.0897,-0.35538 0.27698,-0.57826 0.18728,-0.22289 0.46712,-0.46613 0.81856,-0.72037 0.7029,-0.50848 1.68943,-1.05756 2.79673,-1.60352 2.21458,-1.09194 4.91091,-2.1739 6.82025,-2.93367 4.68279,-1.86337 7.64519,-3.76773 14.55468,-3.76773 z"
       id="path883-8-0-2-7"
       inkscape:connector-curvature="0" />
    <path
       style="color:#000000;font-style:normal;font-variant:normal;font-weight:normal;font-stretch:normal;font-size:medium;line-height:normal;font-family:sans-serif;font-variant-ligatures:normal;font-variant-position:normal;font-variant-caps:normal;font-variant-numeric:normal;font-variant-alternates:normal;font-feature-settings:normal;text-indent:0;text-align:start;text-decoration:none;text-decoration-line:none;text-decoration-style:solid;text-decoration-color:#000000;letter-spacing:normal;word-spacing:normal;text-transform:none;writing-mode:lr-tb;direction:ltr;text-orientation:mixed;dominant-baseline:auto;baseline-shift:baseline;text-anchor:start;white-space:normal;shape-padding:0;clip-rule:nonzero;display:inline;overflow:visible;visibility:visible;opacity:1;isolation:auto;mix-blend-mode:normal;color-interpolation:sRGB;color-interpolation-filters:linearRGB;solid-color:#000000;solid-opacity:1;vector-effect:none;fill:none;fill-opacity:1;fill-rule:nonzero;stroke:#ff0000;stroke-width:0.05;stroke-linecap:butt;stroke-linejoin:miter;stroke-miterlimit:4;stroke-dasharray:none;stroke-dashoffset:0;stroke-opacity:1;color-rendering:auto;image-rendering:auto;shape-rendering:auto;text-rendering:auto;enable-background:accumulate"
       d="m 208.1735,234.53627 h 6.3009 6.29884 c 6.9095,0 9.87189,1.90435 14.55467,3.76773 1.90935,0.75977 4.60772,1.84174 6.82232,2.93367 1.10731,0.54596 2.09383,1.09504 2.79673,1.60352 0.35144,0.25424 0.63129,0.49748 0.81856,0.72037 0.18728,0.22288 0.2775,0.42128 0.2775,0.57826 v 7.02748 c 0,0.43161 -0.18175,0.97403 -0.47284,1.39423 -0.29108,0.42019 -0.68182,0.709 -1.08779,0.709 H 214.4744 184.46692 c -0.40597,0 -0.79722,-0.28881 -1.0883,-0.709 -0.29109,-0.4202 -0.47232,-0.96262 -0.47232,-1.39423 v -7.02748 c 0,-0.15699 0.0897,-0.35538 0.27698,-0.57826 0.18728,-0.22289 0.46712,-0.46613 0.81856,-0.72037 0.7029,-0.50848 1.68943,-1.05756 2.79673,-1.60352 2.21458,-1.09194 4.91091,-2.1739 6.82025,-2.93367 4.68279,-1.86337 7.64519,-3.76773 14.55468,-3.76773 z"
       id="path883-8-0-5-0-3"
       inkscape:connector-curvature="0" />
  </g>
</svg>
