  0
SECTION
  2
HEADER
  9
$ACADVER
  1
AC1014
  9
$HANDSEED
  5
FFFF
  9
$MEASUREMENT
 70
     1
  0
ENDSEC
  0
SECTION
  2
TABLES
  0
TABLE
  2
VPORT
  5
8
330
0
100
AcDbSymbolTable
 70
     4
  0
VPORT
  5
2E
330
8
100
AcDbSymbolTableRecord
100
AcDbViewportTableRecord
  2
*ACTIVE
 70
     0
 10
0.0
 20
0.0
 11
1.0
 21
1.0
 12
210.0
 22
148.5
 13
0.0
 23
0.0
 14
10.0
 24
10.0
 15
10.0
 25
10.0
 16
0.0
 26
0.0
 36
1.0
 17
0.0
 27
0.0
 37
0.0
 40
341.0
 41
1.24
 42
50.0
 43
0.0
 44
0.0
 50
0.0
 51
0.0
 71
     0
 72
   100
 73
     1
 74
     3
 75
     0
 76
     0
 77
     0
 78
     0
  0
ENDTAB
  0
TABLE
  2
LTYPE
  5
5
330
0
100
AcDbSymbolTable
 70
     1
  0
LTYPE
  5
14
330
5
100
AcDbSymbolTableRecord
100
AcDbLinetypeTableRecord
  2
BYBLOCK
 70
     0
  3

 72
    65
 73
     0
 40
0.0
  0
LTYPE
  5
15
330
5
100
AcDbSymbolTableRecord
100
AcDbLinetypeTableRecord
  2
BYLAYER
 70
     0
  3

 72
    65
 73
     0
 40
0.0
  0
LTYPE
  5
16
330
5
100
AcDbSymbolTableRecord
100
AcDbLinetypeTableRecord
  2
CONTINUOUS
 70
     0
  3
Solid line
 72
    65
 73
     0
 40
0.0
  0
ENDTAB
  0
TABLE
  2
LAYER
  5
2
100
AcDbSymbolTable
 70
2
  0
LAYER
  5
50
100
AcDbSymbolTableRecord
100
AcDbLayerTableRecord
  2
0
 70
0
  6
CONTINUOUS
  0
LAYER
  5
51
100
AcDbSymbolTableRecord
100
AcDbLayerTableRecord
  2
Layer_1
 70
0
  6
CONTINUOUS
  0
ENDTAB
  0
TABLE
  2
STYLE
  5
3
330
0
100
AcDbSymbolTable
 70
     1
  0
STYLE
  5
11
330
3
100
AcDbSymbolTableRecord
100
AcDbTextStyleTableRecord
  2
STANDARD
 70
     0
 40
0.0
 41
1.0
 50
0.0
 71
     0
 42
2.5
  3
txt
  4

  0
ENDTAB
  0
TABLE
  2
VIEW
  5
6
330
0
100
AcDbSymbolTable
 70
     0
  0
ENDTAB
  0
TABLE
  2
UCS
  5
7
330
0
100
AcDbSymbolTable
 70
     0
  0
ENDTAB
  0
TABLE
  2
APPID
  5
9
330
0
100
AcDbSymbolTable
 70
     2
  0
APPID
  5
12
330
9
100
AcDbSymbolTableRecord
100
AcDbRegAppTableRecord
  2
ACAD
 70
     0
  0
ENDTAB
  0
TABLE
  2
DIMSTYLE
  5
A
330
0
100
AcDbSymbolTable
 70
     1
  0
DIMSTYLE
105
27
330
A
100
AcDbSymbolTableRecord
100
AcDbDimStyleTableRecord
  2
ISO-25
 70
     0
  3

  4

  5

  6

  7

 40
1.0
 41
2.5
 42
0.625
 43
3.75
 44
1.25
 45
0.0
 46
0.0
 47
0.0
 48
0.0
140
2.5
141
2.5
142
0.0
143
0.03937007874016
144
1.0
145
0.0
146
1.0
147
0.625
 71
     0
 72
     0
 73
     0
 74
     0
 75
     0
 76
     0
 77
     1
 78
     8
170
     0
171
     3
172
     1
173
     0
174
     0
175
     0
176
     0
177
     0
178
     0
270
     2
271
     2
272
     2
273
     2
274
     3
340
11
275
     0
280
     0
281
     0
282
     0
283
     0
284
     8
285
     0
286
     0
287
     3
288
     0
  0
ENDTAB
  0
TABLE
  2
BLOCK_RECORD
  5
1
330
0
100
AcDbSymbolTable
 70
     1
  0
BLOCK_RECORD
  5
1F
330
1
100
AcDbSymbolTableRecord
100
AcDbBlockTableRecord
  2
*MODEL_SPACE
  0
BLOCK_RECORD
  5
1B
330
1
100
AcDbSymbolTableRecord
100
AcDbBlockTableRecord
  2
*PAPER_SPACE
  0
ENDTAB
  0
ENDSEC
  0
SECTION
  2
BLOCKS
  0
BLOCK
  5
20
330
1F
100
AcDbEntity
  8
0
100
AcDbBlockBegin
  2
*MODEL_SPACE
 70
     0
 10
0.0
 20
0.0
 30
0.0
  3
*MODEL_SPACE
  1

  0
ENDBLK
  5
21
330
1F
100
AcDbEntity
  8
0
100
AcDbBlockEnd
  0
BLOCK
  5
1C
330
1B
100
AcDbEntity
 67
     1
  8
0
100
AcDbBlockBegin
  2
*PAPER_SPACE
  1

  0
ENDBLK
  5
1D
330
1B
100
AcDbEntity
 67
     1
  8
0
100
AcDbBlockEnd
  0
ENDSEC
  0
SECTION
  2
ENTITIES
  0
SPLINE
  5
100
100
AcDbEntity
  8
Layer_1
 62
1
100
AcDbSpline
 70
8
 71
3
 72
8
 73
4
 74
0
 40
0
 40
0
 40
0
 40
0
 40
1
 40
1
 40
1
 40
1
 10
54.520257
 20
476.372751
 30
0.0
 10
24.368775
 20
476.372751
 30
0.0
 10
0.094477
 20
468.617781
 30
0.0
 10
0.094477
 20
458.986033
 30
0.0
  0
SPLINE
  5
101
100
AcDbEntity
  8
Layer_1
 62
1
100
AcDbSpline
 70
8
 71
3
 72
8
 73
4
 74
0
 40
0
 40
0
 40
0
 40
0
 40
1
 40
1
 40
1
 40
1
 10
0.094477
 20
418.167674
 30
0.0
 10
0.094477
 20
408.535926
 30
0.0
 10
24.368775
 20
400.780955
 30
0.0
 10
54.520257
 20
400.780955
 30
0.0
  0
LWPOLYLINE
  5
102
100
AcDbEntity
  8
Layer_1
 62
1
100
AcDbPolyline
 90
2
 70
0
 10
0.094477
 20
458.986033
 30
0.0
 10
0.094477
 20
418.167674
 30
0.0
  0
SPLINE
  5
103
100
AcDbEntity
  8
Layer_1
 62
1
100
AcDbSpline
 70
8
 71
3
 72
8
 73
4
 74
0
 40
0
 40
0
 40
0
 40
0
 40
1
 40
1
 40
1
 40
1
 10
172.442134
 20
400.780955
 30
0.0
 10
202.593613
 20
400.780955
 30
0.0
 10
226.867913
 20
408.535926
 30
0.0
 10
226.867913
 20
418.167674
 30
0.0
  0
LWPOLYLINE
  5
104
100
AcDbEntity
  8
Layer_1
 62
1
100
AcDbPolyline
 90
3
 70
0
 10
54.520257
 20
400.780955
 30
0.0
 10
113.481195
 20
400.780955
 30
0.0
 10
172.442134
 20
400.780955
 30
0.0
  0
SPLINE
  5
105
100
AcDbEntity
  8
Layer_1
 62
1
100
AcDbSpline
 70
8
 71
3
 72
8
 73
4
 74
0
 40
0
 40
0
 40
0
 40
0
 40
1
 40
1
 40
1
 40
1
 10
226.867913
 20
458.986033
 30
0.0
 10
226.867913
 20
468.617781
 30
0.0
 10
202.593613
 20
476.372751
 30
0.0
 10
172.442134
 20
476.372751
 30
0.0
  0
LWPOLYLINE
  5
106
100
AcDbEntity
  8
Layer_1
 62
1
100
AcDbPolyline
 90
2
 70
0
 10
226.867913
 20
418.167674
 30
0.0
 10
226.867913
 20
458.986033
 30
0.0
  0
SPLINE
  5
107
100
AcDbEntity
  8
Layer_1
 62
1
100
AcDbSpline
 70
8
 71
3
 72
8
 73
4
 74
0
 40
0
 40
0
 40
0
 40
0
 40
1
 40
1
 40
1
 40
1
 10
39.281159
 20
439.144165
 30
0.0
 10
39.281159
 20
436.544847
 30
0.0
 10
37.894440
 20
434.142978
 30
0.0
 10
35.643364
 20
432.843318
 30
0.0
  0
SPLINE
  5
108
100
AcDbEntity
  8
Layer_1
 62
1
100
AcDbSpline
 70
8
 71
3
 72
8
 73
4
 74
0
 40
0
 40
0
 40
0
 40
0
 40
1
 40
1
 40
1
 40
1
 10
35.643364
 20
432.843318
 30
0.0
 10
33.392288
 20
431.543659
 30
0.0
 10
30.618849
 20
431.543659
 30
0.0
 10
28.367773
 20
432.843318
 30
0.0
  0
SPLINE
  5
109
100
AcDbEntity
  8
Layer_1
 62
1
100
AcDbSpline
 70
8
 71
3
 72
8
 73
4
 74
0
 40
0
 40
0
 40
0
 40
0
 40
1
 40
1
 40
1
 40
1
 10
28.367773
 20
432.843318
 30
0.0
 10
26.116697
 20
434.142978
 30
0.0
 10
24.729978
 20
436.544847
 30
0.0
 10
24.729978
 20
439.144165
 30
0.0
  0
SPLINE
  5
10a
100
AcDbEntity
  8
Layer_1
 62
1
100
AcDbSpline
 70
8
 71
3
 72
8
 73
4
 74
0
 40
0
 40
0
 40
0
 40
0
 40
1
 40
1
 40
1
 40
1
 10
24.729978
 20
439.144165
 30
0.0
 10
24.729978
 20
441.743483
 30
0.0
 10
26.116697
 20
444.145352
 30
0.0
 10
28.367773
 20
445.445012
 30
0.0
  0
SPLINE
  5
10b
100
AcDbEntity
  8
Layer_1
 62
1
100
AcDbSpline
 70
8
 71
3
 72
8
 73
4
 74
0
 40
0
 40
0
 40
0
 40
0
 40
1
 40
1
 40
1
 40
1
 10
28.367773
 20
445.445012
 30
0.0
 10
30.618849
 20
446.744671
 30
0.0
 10
33.392288
 20
446.744671
 30
0.0
 10
35.643364
 20
445.445012
 30
0.0
  0
SPLINE
  5
10c
100
AcDbEntity
  8
Layer_1
 62
1
100
AcDbSpline
 70
8
 71
3
 72
8
 73
4
 74
0
 40
0
 40
0
 40
0
 40
0
 40
1
 40
1
 40
1
 40
1
 10
35.643364
 20
445.445012
 30
0.0
 10
37.894440
 20
444.145352
 30
0.0
 10
39.281159
 20
441.743483
 30
0.0
 10
39.281159
 20
439.144165
 30
0.0
  0
LWPOLYLINE
  5
10d
100
AcDbEntity
  8
Layer_1
 62
1
100
AcDbPolyline
 90
3
 70
0
 10
172.442134
 20
476.372751
 30
0.0
 10
113.481195
 20
476.372751
 30
0.0
 10
54.520257
 20
476.372751
 30
0.0
  0
LWPOLYLINE
  5
10e
100
AcDbEntity
  8
Layer_1
 62
1
100
AcDbPolyline
 90
1
 70
1
 10
39.281159
 20
439.144165
 30
0.0
  0
SPLINE
  5
10f
100
AcDbEntity
  8
Layer_1
 62
1
100
AcDbSpline
 70
8
 71
3
 72
8
 73
4
 74
0
 40
0
 40
0
 40
0
 40
0
 40
1
 40
1
 40
1
 40
1
 10
187.680340
 20
439.144165
 30
0.0
 10
187.680340
 20
436.544847
 30
0.0
 10
189.067060
 20
434.142978
 30
0.0
 10
191.318135
 20
432.843318
 30
0.0
  0
SPLINE
  5
110
100
AcDbEntity
  8
Layer_1
 62
1
100
AcDbSpline
 70
8
 71
3
 72
8
 73
4
 74
0
 40
0
 40
0
 40
0
 40
0
 40
1
 40
1
 40
1
 40
1
 10
191.318135
 20
432.843318
 30
0.0
 10
193.569211
 20
431.543659
 30
0.0
 10
196.342651
 20
431.543659
 30
0.0
 10
198.593726
 20
432.843318
 30
0.0
  0
SPLINE
  5
111
100
AcDbEntity
  8
Layer_1
 62
1
100
AcDbSpline
 70
8
 71
3
 72
8
 73
4
 74
0
 40
0
 40
0
 40
0
 40
0
 40
1
 40
1
 40
1
 40
1
 10
198.593726
 20
432.843318
 30
0.0
 10
200.844802
 20
434.142978
 30
0.0
 10
202.231522
 20
436.544847
 30
0.0
 10
202.231522
 20
439.144165
 30
0.0
  0
SPLINE
  5
112
100
AcDbEntity
  8
Layer_1
 62
1
100
AcDbSpline
 70
8
 71
3
 72
8
 73
4
 74
0
 40
0
 40
0
 40
0
 40
0
 40
1
 40
1
 40
1
 40
1
 10
202.231522
 20
439.144165
 30
0.0
 10
202.231522
 20
441.743483
 30
0.0
 10
200.844802
 20
444.145352
 30
0.0
 10
198.593726
 20
445.445012
 30
0.0
  0
SPLINE
  5
113
100
AcDbEntity
  8
Layer_1
 62
1
100
AcDbSpline
 70
8
 71
3
 72
8
 73
4
 74
0
 40
0
 40
0
 40
0
 40
0
 40
1
 40
1
 40
1
 40
1
 10
198.593726
 20
445.445012
 30
0.0
 10
196.342651
 20
446.744671
 30
0.0
 10
193.569211
 20
446.744671
 30
0.0
 10
191.318135
 20
445.445012
 30
0.0
  0
SPLINE
  5
114
100
AcDbEntity
  8
Layer_1
 62
1
100
AcDbSpline
 70
8
 71
3
 72
8
 73
4
 74
0
 40
0
 40
0
 40
0
 40
0
 40
1
 40
1
 40
1
 40
1
 10
191.318135
 20
445.445012
 30
0.0
 10
189.067060
 20
444.145352
 30
0.0
 10
187.680340
 20
441.743483
 30
0.0
 10
187.680340
 20
439.144165
 30
0.0
  0
LWPOLYLINE
  5
115
100
AcDbEntity
  8
Layer_1
 62
1
100
AcDbPolyline
 90
4
 70
1
 10
67.944756
 20
457.684414
 30
0.0
 10
73.425071
 20
457.684414
 30
0.0
 10
73.425071
 20
419.470125
 30
0.0
 10
67.944756
 20
419.470125
 30
0.0
  0
LWPOLYLINE
  5
116
100
AcDbEntity
  8
Layer_1
 62
1
100
AcDbPolyline
 90
1
 70
1
 10
187.680340
 20
439.144165
 30
0.0
  0
SPLINE
  5
117
100
AcDbEntity
  8
Layer_1
 62
1
100
AcDbSpline
 70
8
 71
3
 72
8
 73
4
 74
0
 40
0
 40
0
 40
0
 40
0
 40
1
 40
1
 40
1
 40
1
 10
54.520255
 20
396.268084
 30
0.0
 10
24.368772
 20
396.268084
 30
0.0
 10
0.094475
 20
388.513114
 30
0.0
 10
0.094475
 20
378.881366
 30
0.0
  0
LWPOLYLINE
  5
118
100
AcDbEntity
  8
Layer_1
 62
1
100
AcDbPolyline
 90
4
 70
1
 10
159.016743
 20
457.684414
 30
0.0
 10
153.536428
 20
457.684414
 30
0.0
 10
153.536428
 20
419.470125
 30
0.0
 10
159.016743
 20
419.470125
 30
0.0
  0
SPLINE
  5
119
100
AcDbEntity
  8
Layer_1
 62
1
100
AcDbSpline
 70
8
 71
3
 72
8
 73
4
 74
0
 40
0
 40
0
 40
0
 40
0
 40
1
 40
1
 40
1
 40
1
 10
0.094475
 20
338.063006
 30
0.0
 10
0.094475
 20
328.431258
 30
0.0
 10
24.368772
 20
320.676288
 30
0.0
 10
54.520255
 20
320.676288
 30
0.0
  0
LWPOLYLINE
  5
11a
100
AcDbEntity
  8
Layer_1
 62
1
100
AcDbPolyline
 90
2
 70
0
 10
0.094475
 20
378.881366
 30
0.0
 10
0.094475
 20
338.063006
 30
0.0
  0
SPLINE
  5
11b
100
AcDbEntity
  8
Layer_1
 62
1
100
AcDbSpline
 70
8
 71
3
 72
8
 73
4
 74
0
 40
0
 40
0
 40
0
 40
0
 40
1
 40
1
 40
1
 40
1
 10
172.442132
 20
320.676288
 30
0.0
 10
202.593611
 20
320.676288
 30
0.0
 10
226.867911
 20
328.431258
 30
0.0
 10
226.867911
 20
338.063006
 30
0.0
  0
LWPOLYLINE
  5
11c
100
AcDbEntity
  8
Layer_1
 62
1
100
AcDbPolyline
 90
3
 70
0
 10
54.520255
 20
320.676288
 30
0.0
 10
113.481192
 20
320.676288
 30
0.0
 10
172.442132
 20
320.676288
 30
0.0
  0
SPLINE
  5
11d
100
AcDbEntity
  8
Layer_1
 62
1
100
AcDbSpline
 70
8
 71
3
 72
8
 73
4
 74
0
 40
0
 40
0
 40
0
 40
0
 40
1
 40
1
 40
1
 40
1
 10
226.867911
 20
378.881366
 30
0.0
 10
226.867911
 20
388.513114
 30
0.0
 10
202.593611
 20
396.268084
 30
0.0
 10
172.442132
 20
396.268084
 30
0.0
  0
LWPOLYLINE
  5
11e
100
AcDbEntity
  8
Layer_1
 62
1
100
AcDbPolyline
 90
2
 70
0
 10
226.867911
 20
338.063006
 30
0.0
 10
226.867911
 20
378.881366
 30
0.0
  0
SPLINE
  5
11f
100
AcDbEntity
  8
Layer_1
 62
1
100
AcDbSpline
 70
8
 71
3
 72
8
 73
4
 74
0
 40
0
 40
0
 40
0
 40
0
 40
1
 40
1
 40
1
 40
1
 10
39.281157
 20
359.039497
 30
0.0
 10
39.281157
 20
356.440179
 30
0.0
 10
37.894437
 20
354.038310
 30
0.0
 10
35.643362
 20
352.738651
 30
0.0
  0
SPLINE
  5
120
100
AcDbEntity
  8
Layer_1
 62
1
100
AcDbSpline
 70
8
 71
3
 72
8
 73
4
 74
0
 40
0
 40
0
 40
0
 40
0
 40
1
 40
1
 40
1
 40
1
 10
35.643362
 20
352.738651
 30
0.0
 10
33.392286
 20
351.438992
 30
0.0
 10
30.618846
 20
351.438992
 30
0.0
 10
28.367771
 20
352.738651
 30
0.0
  0
SPLINE
  5
121
100
AcDbEntity
  8
Layer_1
 62
1
100
AcDbSpline
 70
8
 71
3
 72
8
 73
4
 74
0
 40
0
 40
0
 40
0
 40
0
 40
1
 40
1
 40
1
 40
1
 10
28.367771
 20
352.738651
 30
0.0
 10
26.116695
 20
354.038310
 30
0.0
 10
24.729975
 20
356.440179
 30
0.0
 10
24.729975
 20
359.039497
 30
0.0
  0
SPLINE
  5
122
100
AcDbEntity
  8
Layer_1
 62
1
100
AcDbSpline
 70
8
 71
3
 72
8
 73
4
 74
0
 40
0
 40
0
 40
0
 40
0
 40
1
 40
1
 40
1
 40
1
 10
24.729975
 20
359.039497
 30
0.0
 10
24.729975
 20
361.638816
 30
0.0
 10
26.116695
 20
364.040685
 30
0.0
 10
28.367771
 20
365.340344
 30
0.0
  0
SPLINE
  5
123
100
AcDbEntity
  8
Layer_1
 62
1
100
AcDbSpline
 70
8
 71
3
 72
8
 73
4
 74
0
 40
0
 40
0
 40
0
 40
0
 40
1
 40
1
 40
1
 40
1
 10
28.367771
 20
365.340344
 30
0.0
 10
30.618846
 20
366.640003
 30
0.0
 10
33.392286
 20
366.640003
 30
0.0
 10
35.643362
 20
365.340344
 30
0.0
  0
SPLINE
  5
124
100
AcDbEntity
  8
Layer_1
 62
1
100
AcDbSpline
 70
8
 71
3
 72
8
 73
4
 74
0
 40
0
 40
0
 40
0
 40
0
 40
1
 40
1
 40
1
 40
1
 10
35.643362
 20
365.340344
 30
0.0
 10
37.894437
 20
364.040685
 30
0.0
 10
39.281157
 20
361.638816
 30
0.0
 10
39.281157
 20
359.039497
 30
0.0
  0
LWPOLYLINE
  5
125
100
AcDbEntity
  8
Layer_1
 62
1
100
AcDbPolyline
 90
3
 70
0
 10
172.442132
 20
396.268084
 30
0.0
 10
113.481192
 20
396.268084
 30
0.0
 10
54.520255
 20
396.268084
 30
0.0
  0
LWPOLYLINE
  5
126
100
AcDbEntity
  8
Layer_1
 62
1
100
AcDbPolyline
 90
1
 70
1
 10
39.281157
 20
359.039497
 30
0.0
  0
SPLINE
  5
127
100
AcDbEntity
  8
Layer_1
 62
1
100
AcDbSpline
 70
8
 71
3
 72
8
 73
4
 74
0
 40
0
 40
0
 40
0
 40
0
 40
1
 40
1
 40
1
 40
1
 10
187.680338
 20
359.039497
 30
0.0
 10
187.680338
 20
356.440179
 30
0.0
 10
189.067057
 20
354.038310
 30
0.0
 10
191.318133
 20
352.738651
 30
0.0
  0
SPLINE
  5
128
100
AcDbEntity
  8
Layer_1
 62
1
100
AcDbSpline
 70
8
 71
3
 72
8
 73
4
 74
0
 40
0
 40
0
 40
0
 40
0
 40
1
 40
1
 40
1
 40
1
 10
191.318133
 20
352.738651
 30
0.0
 10
193.569209
 20
351.438992
 30
0.0
 10
196.342648
 20
351.438992
 30
0.0
 10
198.593724
 20
352.738651
 30
0.0
  0
SPLINE
  5
129
100
AcDbEntity
  8
Layer_1
 62
1
100
AcDbSpline
 70
8
 71
3
 72
8
 73
4
 74
0
 40
0
 40
0
 40
0
 40
0
 40
1
 40
1
 40
1
 40
1
 10
198.593724
 20
352.738651
 30
0.0
 10
200.844800
 20
354.038310
 30
0.0
 10
202.231519
 20
356.440179
 30
0.0
 10
202.231519
 20
359.039497
 30
0.0
  0
SPLINE
  5
12a
100
AcDbEntity
  8
Layer_1
 62
1
100
AcDbSpline
 70
8
 71
3
 72
8
 73
4
 74
0
 40
0
 40
0
 40
0
 40
0
 40
1
 40
1
 40
1
 40
1
 10
202.231519
 20
359.039497
 30
0.0
 10
202.231519
 20
361.638816
 30
0.0
 10
200.844800
 20
364.040685
 30
0.0
 10
198.593724
 20
365.340344
 30
0.0
  0
SPLINE
  5
12b
100
AcDbEntity
  8
Layer_1
 62
1
100
AcDbSpline
 70
8
 71
3
 72
8
 73
4
 74
0
 40
0
 40
0
 40
0
 40
0
 40
1
 40
1
 40
1
 40
1
 10
198.593724
 20
365.340344
 30
0.0
 10
196.342648
 20
366.640003
 30
0.0
 10
193.569209
 20
366.640003
 30
0.0
 10
191.318133
 20
365.340344
 30
0.0
  0
SPLINE
  5
12c
100
AcDbEntity
  8
Layer_1
 62
1
100
AcDbSpline
 70
8
 71
3
 72
8
 73
4
 74
0
 40
0
 40
0
 40
0
 40
0
 40
1
 40
1
 40
1
 40
1
 10
191.318133
 20
365.340344
 30
0.0
 10
189.067057
 20
364.040685
 30
0.0
 10
187.680338
 20
361.638816
 30
0.0
 10
187.680338
 20
359.039497
 30
0.0
  0
LWPOLYLINE
  5
12d
100
AcDbEntity
  8
Layer_1
 62
1
100
AcDbPolyline
 90
4
 70
1
 10
67.944754
 20
377.579747
 30
0.0
 10
73.425069
 20
377.579747
 30
0.0
 10
73.425069
 20
339.365458
 30
0.0
 10
67.944754
 20
339.365458
 30
0.0
  0
LWPOLYLINE
  5
12e
100
AcDbEntity
  8
Layer_1
 62
1
100
AcDbPolyline
 90
1
 70
1
 10
187.680338
 20
359.039497
 30
0.0
  0
SPLINE
  5
12f
100
AcDbEntity
  8
Layer_1
 62
1
100
AcDbSpline
 70
8
 71
3
 72
8
 73
4
 74
0
 40
0
 40
0
 40
0
 40
0
 40
1
 40
1
 40
1
 40
1
 10
54.520255
 20
316.391839
 30
0.0
 10
24.368772
 20
316.391839
 30
0.0
 10
0.094475
 20
308.636869
 30
0.0
 10
0.094475
 20
299.005121
 30
0.0
  0
LWPOLYLINE
  5
130
100
AcDbEntity
  8
Layer_1
 62
1
100
AcDbPolyline
 90
4
 70
1
 10
159.016741
 20
377.579747
 30
0.0
 10
153.536426
 20
377.579747
 30
0.0
 10
153.536426
 20
339.365458
 30
0.0
 10
159.016741
 20
339.365458
 30
0.0
  0
SPLINE
  5
131
100
AcDbEntity
  8
Layer_1
 62
1
100
AcDbSpline
 70
8
 71
3
 72
8
 73
4
 74
0
 40
0
 40
0
 40
0
 40
0
 40
1
 40
1
 40
1
 40
1
 10
0.094475
 20
258.186762
 30
0.0
 10
0.094475
 20
248.555014
 30
0.0
 10
24.368772
 20
240.800043
 30
0.0
 10
54.520255
 20
240.800043
 30
0.0
  0
LWPOLYLINE
  5
132
100
AcDbEntity
  8
Layer_1
 62
1
100
AcDbPolyline
 90
2
 70
0
 10
0.094475
 20
299.005121
 30
0.0
 10
0.094475
 20
258.186762
 30
0.0
  0
SPLINE
  5
133
100
AcDbEntity
  8
Layer_1
 62
1
100
AcDbSpline
 70
8
 71
3
 72
8
 73
4
 74
0
 40
0
 40
0
 40
0
 40
0
 40
1
 40
1
 40
1
 40
1
 10
172.442132
 20
240.800043
 30
0.0
 10
202.593611
 20
240.800043
 30
0.0
 10
226.867911
 20
248.555014
 30
0.0
 10
226.867911
 20
258.186762
 30
0.0
  0
LWPOLYLINE
  5
134
100
AcDbEntity
  8
Layer_1
 62
1
100
AcDbPolyline
 90
3
 70
0
 10
54.520255
 20
240.800043
 30
0.0
 10
113.481192
 20
240.800043
 30
0.0
 10
172.442132
 20
240.800043
 30
0.0
  0
SPLINE
  5
135
100
AcDbEntity
  8
Layer_1
 62
1
100
AcDbSpline
 70
8
 71
3
 72
8
 73
4
 74
0
 40
0
 40
0
 40
0
 40
0
 40
1
 40
1
 40
1
 40
1
 10
226.867911
 20
299.005121
 30
0.0
 10
226.867911
 20
308.636869
 30
0.0
 10
202.593611
 20
316.391839
 30
0.0
 10
172.442132
 20
316.391839
 30
0.0
  0
LWPOLYLINE
  5
136
100
AcDbEntity
  8
Layer_1
 62
1
100
AcDbPolyline
 90
2
 70
0
 10
226.867911
 20
258.186762
 30
0.0
 10
226.867911
 20
299.005121
 30
0.0
  0
SPLINE
  5
137
100
AcDbEntity
  8
Layer_1
 62
1
100
AcDbSpline
 70
8
 71
3
 72
8
 73
4
 74
0
 40
0
 40
0
 40
0
 40
0
 40
1
 40
1
 40
1
 40
1
 10
39.281157
 20
279.163253
 30
0.0
 10
39.281157
 20
276.563935
 30
0.0
 10
37.894437
 20
274.162065
 30
0.0
 10
35.643362
 20
272.862406
 30
0.0
  0
SPLINE
  5
138
100
AcDbEntity
  8
Layer_1
 62
1
100
AcDbSpline
 70
8
 71
3
 72
8
 73
4
 74
0
 40
0
 40
0
 40
0
 40
0
 40
1
 40
1
 40
1
 40
1
 10
35.643362
 20
272.862406
 30
0.0
 10
33.392286
 20
271.562747
 30
0.0
 10
30.618846
 20
271.562747
 30
0.0
 10
28.367771
 20
272.862406
 30
0.0
  0
SPLINE
  5
139
100
AcDbEntity
  8
Layer_1
 62
1
100
AcDbSpline
 70
8
 71
3
 72
8
 73
4
 74
0
 40
0
 40
0
 40
0
 40
0
 40
1
 40
1
 40
1
 40
1
 10
28.367771
 20
272.862406
 30
0.0
 10
26.116695
 20
274.162065
 30
0.0
 10
24.729975
 20
276.563935
 30
0.0
 10
24.729975
 20
279.163253
 30
0.0
  0
SPLINE
  5
13a
100
AcDbEntity
  8
Layer_1
 62
1
100
AcDbSpline
 70
8
 71
3
 72
8
 73
4
 74
0
 40
0
 40
0
 40
0
 40
0
 40
1
 40
1
 40
1
 40
1
 10
24.729975
 20
279.163253
 30
0.0
 10
24.729975
 20
281.762571
 30
0.0
 10
26.116695
 20
284.164440
 30
0.0
 10
28.367771
 20
285.464099
 30
0.0
  0
SPLINE
  5
13b
100
AcDbEntity
  8
Layer_1
 62
1
100
AcDbSpline
 70
8
 71
3
 72
8
 73
4
 74
0
 40
0
 40
0
 40
0
 40
0
 40
1
 40
1
 40
1
 40
1
 10
28.367771
 20
285.464099
 30
0.0
 10
30.618846
 20
286.763759
 30
0.0
 10
33.392286
 20
286.763759
 30
0.0
 10
35.643362
 20
285.464099
 30
0.0
  0
SPLINE
  5
13c
100
AcDbEntity
  8
Layer_1
 62
1
100
AcDbSpline
 70
8
 71
3
 72
8
 73
4
 74
0
 40
0
 40
0
 40
0
 40
0
 40
1
 40
1
 40
1
 40
1
 10
35.643362
 20
285.464099
 30
0.0
 10
37.894437
 20
284.164440
 30
0.0
 10
39.281157
 20
281.762571
 30
0.0
 10
39.281157
 20
279.163253
 30
0.0
  0
LWPOLYLINE
  5
13d
100
AcDbEntity
  8
Layer_1
 62
1
100
AcDbPolyline
 90
3
 70
0
 10
172.442132
 20
316.391839
 30
0.0
 10
113.481192
 20
316.391839
 30
0.0
 10
54.520255
 20
316.391839
 30
0.0
  0
LWPOLYLINE
  5
13e
100
AcDbEntity
  8
Layer_1
 62
1
100
AcDbPolyline
 90
1
 70
1
 10
39.281157
 20
279.163253
 30
0.0
  0
SPLINE
  5
13f
100
AcDbEntity
  8
Layer_1
 62
1
100
AcDbSpline
 70
8
 71
3
 72
8
 73
4
 74
0
 40
0
 40
0
 40
0
 40
0
 40
1
 40
1
 40
1
 40
1
 10
187.680338
 20
279.163253
 30
0.0
 10
187.680338
 20
276.563935
 30
0.0
 10
189.067057
 20
274.162065
 30
0.0
 10
191.318133
 20
272.862406
 30
0.0
  0
SPLINE
  5
140
100
AcDbEntity
  8
Layer_1
 62
1
100
AcDbSpline
 70
8
 71
3
 72
8
 73
4
 74
0
 40
0
 40
0
 40
0
 40
0
 40
1
 40
1
 40
1
 40
1
 10
191.318133
 20
272.862406
 30
0.0
 10
193.569209
 20
271.562747
 30
0.0
 10
196.342648
 20
271.562747
 30
0.0
 10
198.593724
 20
272.862406
 30
0.0
  0
SPLINE
  5
141
100
AcDbEntity
  8
Layer_1
 62
1
100
AcDbSpline
 70
8
 71
3
 72
8
 73
4
 74
0
 40
0
 40
0
 40
0
 40
0
 40
1
 40
1
 40
1
 40
1
 10
198.593724
 20
272.862406
 30
0.0
 10
200.844800
 20
274.162065
 30
0.0
 10
202.231519
 20
276.563935
 30
0.0
 10
202.231519
 20
279.163253
 30
0.0
  0
SPLINE
  5
142
100
AcDbEntity
  8
Layer_1
 62
1
100
AcDbSpline
 70
8
 71
3
 72
8
 73
4
 74
0
 40
0
 40
0
 40
0
 40
0
 40
1
 40
1
 40
1
 40
1
 10
202.231519
 20
279.163253
 30
0.0
 10
202.231519
 20
281.762571
 30
0.0
 10
200.844800
 20
284.164440
 30
0.0
 10
198.593724
 20
285.464099
 30
0.0
  0
SPLINE
  5
143
100
AcDbEntity
  8
Layer_1
 62
1
100
AcDbSpline
 70
8
 71
3
 72
8
 73
4
 74
0
 40
0
 40
0
 40
0
 40
0
 40
1
 40
1
 40
1
 40
1
 10
198.593724
 20
285.464099
 30
0.0
 10
196.342648
 20
286.763759
 30
0.0
 10
193.569209
 20
286.763759
 30
0.0
 10
191.318133
 20
285.464099
 30
0.0
  0
SPLINE
  5
144
100
AcDbEntity
  8
Layer_1
 62
1
100
AcDbSpline
 70
8
 71
3
 72
8
 73
4
 74
0
 40
0
 40
0
 40
0
 40
0
 40
1
 40
1
 40
1
 40
1
 10
191.318133
 20
285.464099
 30
0.0
 10
189.067057
 20
284.164440
 30
0.0
 10
187.680338
 20
281.762571
 30
0.0
 10
187.680338
 20
279.163253
 30
0.0
  0
LWPOLYLINE
  5
145
100
AcDbEntity
  8
Layer_1
 62
1
100
AcDbPolyline
 90
4
 70
1
 10
67.944754
 20
297.703502
 30
0.0
 10
73.425069
 20
297.703502
 30
0.0
 10
73.425069
 20
259.489213
 30
0.0
 10
67.944754
 20
259.489213
 30
0.0
  0
LWPOLYLINE
  5
146
100
AcDbEntity
  8
Layer_1
 62
1
100
AcDbPolyline
 90
1
 70
1
 10
187.680338
 20
279.163253
 30
0.0
  0
SPLINE
  5
147
100
AcDbEntity
  8
Layer_1
 62
1
100
AcDbSpline
 70
8
 71
3
 72
8
 73
4
 74
0
 40
0
 40
0
 40
0
 40
0
 40
1
 40
1
 40
1
 40
1
 10
54.520255
 20
236.287175
 30
0.0
 10
24.368772
 20
236.287175
 30
0.0
 10
0.094475
 20
228.532205
 30
0.0
 10
0.094475
 20
218.900457
 30
0.0
  0
LWPOLYLINE
  5
148
100
AcDbEntity
  8
Layer_1
 62
1
100
AcDbPolyline
 90
4
 70
1
 10
159.016741
 20
297.703502
 30
0.0
 10
153.536426
 20
297.703502
 30
0.0
 10
153.536426
 20
259.489213
 30
0.0
 10
159.016741
 20
259.489213
 30
0.0
  0
SPLINE
  5
149
100
AcDbEntity
  8
Layer_1
 62
1
100
AcDbSpline
 70
8
 71
3
 72
8
 73
4
 74
0
 40
0
 40
0
 40
0
 40
0
 40
1
 40
1
 40
1
 40
1
 10
0.094475
 20
178.082098
 30
0.0
 10
0.094475
 20
168.450350
 30
0.0
 10
24.368772
 20
160.695379
 30
0.0
 10
54.520255
 20
160.695379
 30
0.0
  0
LWPOLYLINE
  5
14a
100
AcDbEntity
  8
Layer_1
 62
1
100
AcDbPolyline
 90
2
 70
0
 10
0.094475
 20
218.900457
 30
0.0
 10
0.094475
 20
178.082098
 30
0.0
  0
SPLINE
  5
14b
100
AcDbEntity
  8
Layer_1
 62
1
100
AcDbSpline
 70
8
 71
3
 72
8
 73
4
 74
0
 40
0
 40
0
 40
0
 40
0
 40
1
 40
1
 40
1
 40
1
 10
172.442132
 20
160.695379
 30
0.0
 10
202.593611
 20
160.695379
 30
0.0
 10
226.867911
 20
168.450350
 30
0.0
 10
226.867911
 20
178.082098
 30
0.0
  0
LWPOLYLINE
  5
14c
100
AcDbEntity
  8
Layer_1
 62
1
100
AcDbPolyline
 90
3
 70
0
 10
54.520255
 20
160.695379
 30
0.0
 10
113.481192
 20
160.695379
 30
0.0
 10
172.442132
 20
160.695379
 30
0.0
  0
SPLINE
  5
14d
100
AcDbEntity
  8
Layer_1
 62
1
100
AcDbSpline
 70
8
 71
3
 72
8
 73
4
 74
0
 40
0
 40
0
 40
0
 40
0
 40
1
 40
1
 40
1
 40
1
 10
226.867911
 20
218.900457
 30
0.0
 10
226.867911
 20
228.532205
 30
0.0
 10
202.593611
 20
236.287175
 30
0.0
 10
172.442132
 20
236.287175
 30
0.0
  0
LWPOLYLINE
  5
14e
100
AcDbEntity
  8
Layer_1
 62
1
100
AcDbPolyline
 90
2
 70
0
 10
226.867911
 20
178.082098
 30
0.0
 10
226.867911
 20
218.900457
 30
0.0
  0
SPLINE
  5
14f
100
AcDbEntity
  8
Layer_1
 62
1
100
AcDbSpline
 70
8
 71
3
 72
8
 73
4
 74
0
 40
0
 40
0
 40
0
 40
0
 40
1
 40
1
 40
1
 40
1
 10
39.281157
 20
199.058589
 30
0.0
 10
39.281157
 20
196.459271
 30
0.0
 10
37.894437
 20
194.057402
 30
0.0
 10
35.643362
 20
192.757742
 30
0.0
  0
SPLINE
  5
150
100
AcDbEntity
  8
Layer_1
 62
1
100
AcDbSpline
 70
8
 71
3
 72
8
 73
4
 74
0
 40
0
 40
0
 40
0
 40
0
 40
1
 40
1
 40
1
 40
1
 10
35.643362
 20
192.757742
 30
0.0
 10
33.392286
 20
191.458083
 30
0.0
 10
30.618846
 20
191.458083
 30
0.0
 10
28.367771
 20
192.757742
 30
0.0
  0
SPLINE
  5
151
100
AcDbEntity
  8
Layer_1
 62
1
100
AcDbSpline
 70
8
 71
3
 72
8
 73
4
 74
0
 40
0
 40
0
 40
0
 40
0
 40
1
 40
1
 40
1
 40
1
 10
28.367771
 20
192.757742
 30
0.0
 10
26.116695
 20
194.057402
 30
0.0
 10
24.729975
 20
196.459271
 30
0.0
 10
24.729975
 20
199.058589
 30
0.0
  0
SPLINE
  5
152
100
AcDbEntity
  8
Layer_1
 62
1
100
AcDbSpline
 70
8
 71
3
 72
8
 73
4
 74
0
 40
0
 40
0
 40
0
 40
0
 40
1
 40
1
 40
1
 40
1
 10
24.729975
 20
199.058589
 30
0.0
 10
24.729975
 20
201.657907
 30
0.0
 10
26.116695
 20
204.059776
 30
0.0
 10
28.367771
 20
205.359436
 30
0.0
  0
SPLINE
  5
153
100
AcDbEntity
  8
Layer_1
 62
1
100
AcDbSpline
 70
8
 71
3
 72
8
 73
4
 74
0
 40
0
 40
0
 40
0
 40
0
 40
1
 40
1
 40
1
 40
1
 10
28.367771
 20
205.359436
 30
0.0
 10
30.618846
 20
206.659095
 30
0.0
 10
33.392286
 20
206.659095
 30
0.0
 10
35.643362
 20
205.359436
 30
0.0
  0
SPLINE
  5
154
100
AcDbEntity
  8
Layer_1
 62
1
100
AcDbSpline
 70
8
 71
3
 72
8
 73
4
 74
0
 40
0
 40
0
 40
0
 40
0
 40
1
 40
1
 40
1
 40
1
 10
35.643362
 20
205.359436
 30
0.0
 10
37.894437
 20
204.059776
 30
0.0
 10
39.281157
 20
201.657907
 30
0.0
 10
39.281157
 20
199.058589
 30
0.0
  0
LWPOLYLINE
  5
155
100
AcDbEntity
  8
Layer_1
 62
1
100
AcDbPolyline
 90
3
 70
0
 10
172.442132
 20
236.287175
 30
0.0
 10
113.481192
 20
236.287175
 30
0.0
 10
54.520255
 20
236.287175
 30
0.0
  0
LWPOLYLINE
  5
156
100
AcDbEntity
  8
Layer_1
 62
1
100
AcDbPolyline
 90
1
 70
1
 10
39.281157
 20
199.058589
 30
0.0
  0
SPLINE
  5
157
100
AcDbEntity
  8
Layer_1
 62
1
100
AcDbSpline
 70
8
 71
3
 72
8
 73
4
 74
0
 40
0
 40
0
 40
0
 40
0
 40
1
 40
1
 40
1
 40
1
 10
187.680338
 20
199.058589
 30
0.0
 10
187.680338
 20
196.459271
 30
0.0
 10
189.067057
 20
194.057402
 30
0.0
 10
191.318133
 20
192.757742
 30
0.0
  0
SPLINE
  5
158
100
AcDbEntity
  8
Layer_1
 62
1
100
AcDbSpline
 70
8
 71
3
 72
8
 73
4
 74
0
 40
0
 40
0
 40
0
 40
0
 40
1
 40
1
 40
1
 40
1
 10
191.318133
 20
192.757742
 30
0.0
 10
193.569209
 20
191.458083
 30
0.0
 10
196.342648
 20
191.458083
 30
0.0
 10
198.593724
 20
192.757742
 30
0.0
  0
SPLINE
  5
159
100
AcDbEntity
  8
Layer_1
 62
1
100
AcDbSpline
 70
8
 71
3
 72
8
 73
4
 74
0
 40
0
 40
0
 40
0
 40
0
 40
1
 40
1
 40
1
 40
1
 10
198.593724
 20
192.757742
 30
0.0
 10
200.844800
 20
194.057402
 30
0.0
 10
202.231519
 20
196.459271
 30
0.0
 10
202.231519
 20
199.058589
 30
0.0
  0
SPLINE
  5
15a
100
AcDbEntity
  8
Layer_1
 62
1
100
AcDbSpline
 70
8
 71
3
 72
8
 73
4
 74
0
 40
0
 40
0
 40
0
 40
0
 40
1
 40
1
 40
1
 40
1
 10
202.231519
 20
199.058589
 30
0.0
 10
202.231519
 20
201.657907
 30
0.0
 10
200.844800
 20
204.059776
 30
0.0
 10
198.593724
 20
205.359436
 30
0.0
  0
SPLINE
  5
15b
100
AcDbEntity
  8
Layer_1
 62
1
100
AcDbSpline
 70
8
 71
3
 72
8
 73
4
 74
0
 40
0
 40
0
 40
0
 40
0
 40
1
 40
1
 40
1
 40
1
 10
198.593724
 20
205.359436
 30
0.0
 10
196.342648
 20
206.659095
 30
0.0
 10
193.569209
 20
206.659095
 30
0.0
 10
191.318133
 20
205.359436
 30
0.0
  0
SPLINE
  5
15c
100
AcDbEntity
  8
Layer_1
 62
1
100
AcDbSpline
 70
8
 71
3
 72
8
 73
4
 74
0
 40
0
 40
0
 40
0
 40
0
 40
1
 40
1
 40
1
 40
1
 10
191.318133
 20
205.359436
 30
0.0
 10
189.067057
 20
204.059776
 30
0.0
 10
187.680338
 20
201.657907
 30
0.0
 10
187.680338
 20
199.058589
 30
0.0
  0
LWPOLYLINE
  5
15d
100
AcDbEntity
  8
Layer_1
 62
1
100
AcDbPolyline
 90
4
 70
1
 10
67.944754
 20
217.598838
 30
0.0
 10
73.425069
 20
217.598838
 30
0.0
 10
73.425069
 20
179.384549
 30
0.0
 10
67.944754
 20
179.384549
 30
0.0
  0
LWPOLYLINE
  5
15e
100
AcDbEntity
  8
Layer_1
 62
1
100
AcDbPolyline
 90
1
 70
1
 10
187.680338
 20
199.058589
 30
0.0
  0
SPLINE
  5
15f
100
AcDbEntity
  8
Layer_1
 62
1
100
AcDbSpline
 70
8
 71
3
 72
8
 73
4
 74
0
 40
0
 40
0
 40
0
 40
0
 40
1
 40
1
 40
1
 40
1
 10
54.520255
 20
155.790956
 30
0.0
 10
24.368772
 20
155.790956
 30
0.0
 10
0.094475
 20
148.035986
 30
0.0
 10
0.094475
 20
138.404238
 30
0.0
  0
LWPOLYLINE
  5
160
100
AcDbEntity
  8
Layer_1
 62
1
100
AcDbPolyline
 90
4
 70
1
 10
159.016741
 20
217.598838
 30
0.0
 10
153.536426
 20
217.598838
 30
0.0
 10
153.536426
 20
179.384549
 30
0.0
 10
159.016741
 20
179.384549
 30
0.0
  0
SPLINE
  5
161
100
AcDbEntity
  8
Layer_1
 62
1
100
AcDbSpline
 70
8
 71
3
 72
8
 73
4
 74
0
 40
0
 40
0
 40
0
 40
0
 40
1
 40
1
 40
1
 40
1
 10
0.094475
 20
97.585879
 30
0.0
 10
0.094475
 20
87.954131
 30
0.0
 10
24.368772
 20
80.199160
 30
0.0
 10
54.520255
 20
80.199160
 30
0.0
  0
LWPOLYLINE
  5
162
100
AcDbEntity
  8
Layer_1
 62
1
100
AcDbPolyline
 90
2
 70
0
 10
0.094475
 20
138.404238
 30
0.0
 10
0.094475
 20
97.585879
 30
0.0
  0
SPLINE
  5
163
100
AcDbEntity
  8
Layer_1
 62
1
100
AcDbSpline
 70
8
 71
3
 72
8
 73
4
 74
0
 40
0
 40
0
 40
0
 40
0
 40
1
 40
1
 40
1
 40
1
 10
172.442132
 20
80.199160
 30
0.0
 10
202.593611
 20
80.199160
 30
0.0
 10
226.867911
 20
87.954131
 30
0.0
 10
226.867911
 20
97.585879
 30
0.0
  0
LWPOLYLINE
  5
164
100
AcDbEntity
  8
Layer_1
 62
1
100
AcDbPolyline
 90
3
 70
0
 10
54.520255
 20
80.199160
 30
0.0
 10
113.481192
 20
80.199160
 30
0.0
 10
172.442132
 20
80.199160
 30
0.0
  0
SPLINE
  5
165
100
AcDbEntity
  8
Layer_1
 62
1
100
AcDbSpline
 70
8
 71
3
 72
8
 73
4
 74
0
 40
0
 40
0
 40
0
 40
0
 40
1
 40
1
 40
1
 40
1
 10
226.867911
 20
138.404238
 30
0.0
 10
226.867911
 20
148.035986
 30
0.0
 10
202.593611
 20
155.790956
 30
0.0
 10
172.442132
 20
155.790956
 30
0.0
  0
LWPOLYLINE
  5
166
100
AcDbEntity
  8
Layer_1
 62
1
100
AcDbPolyline
 90
2
 70
0
 10
226.867911
 20
97.585879
 30
0.0
 10
226.867911
 20
138.404238
 30
0.0
  0
SPLINE
  5
167
100
AcDbEntity
  8
Layer_1
 62
1
100
AcDbSpline
 70
8
 71
3
 72
8
 73
4
 74
0
 40
0
 40
0
 40
0
 40
0
 40
1
 40
1
 40
1
 40
1
 10
39.281157
 20
118.562370
 30
0.0
 10
39.281157
 20
115.963051
 30
0.0
 10
37.894437
 20
113.561182
 30
0.0
 10
35.643362
 20
112.261523
 30
0.0
  0
SPLINE
  5
168
100
AcDbEntity
  8
Layer_1
 62
1
100
AcDbSpline
 70
8
 71
3
 72
8
 73
4
 74
0
 40
0
 40
0
 40
0
 40
0
 40
1
 40
1
 40
1
 40
1
 10
35.643362
 20
112.261523
 30
0.0
 10
33.392286
 20
110.961864
 30
0.0
 10
30.618846
 20
110.961864
 30
0.0
 10
28.367771
 20
112.261523
 30
0.0
  0
SPLINE
  5
169
100
AcDbEntity
  8
Layer_1
 62
1
100
AcDbSpline
 70
8
 71
3
 72
8
 73
4
 74
0
 40
0
 40
0
 40
0
 40
0
 40
1
 40
1
 40
1
 40
1
 10
28.367771
 20
112.261523
 30
0.0
 10
26.116695
 20
113.561182
 30
0.0
 10
24.729975
 20
115.963051
 30
0.0
 10
24.729975
 20
118.562370
 30
0.0
  0
SPLINE
  5
16a
100
AcDbEntity
  8
Layer_1
 62
1
100
AcDbSpline
 70
8
 71
3
 72
8
 73
4
 74
0
 40
0
 40
0
 40
0
 40
0
 40
1
 40
1
 40
1
 40
1
 10
24.729975
 20
118.562370
 30
0.0
 10
24.729975
 20
121.161688
 30
0.0
 10
26.116695
 20
123.563557
 30
0.0
 10
28.367771
 20
124.863216
 30
0.0
  0
SPLINE
  5
16b
100
AcDbEntity
  8
Layer_1
 62
1
100
AcDbSpline
 70
8
 71
3
 72
8
 73
4
 74
0
 40
0
 40
0
 40
0
 40
0
 40
1
 40
1
 40
1
 40
1
 10
28.367771
 20
124.863216
 30
0.0
 10
30.618846
 20
126.162875
 30
0.0
 10
33.392286
 20
126.162875
 30
0.0
 10
35.643362
 20
124.863216
 30
0.0
  0
SPLINE
  5
16c
100
AcDbEntity
  8
Layer_1
 62
1
100
AcDbSpline
 70
8
 71
3
 72
8
 73
4
 74
0
 40
0
 40
0
 40
0
 40
0
 40
1
 40
1
 40
1
 40
1
 10
35.643362
 20
124.863216
 30
0.0
 10
37.894437
 20
123.563557
 30
0.0
 10
39.281157
 20
121.161688
 30
0.0
 10
39.281157
 20
118.562370
 30
0.0
  0
LWPOLYLINE
  5
16d
100
AcDbEntity
  8
Layer_1
 62
1
100
AcDbPolyline
 90
3
 70
0
 10
172.442132
 20
155.790956
 30
0.0
 10
113.481192
 20
155.790956
 30
0.0
 10
54.520255
 20
155.790956
 30
0.0
  0
LWPOLYLINE
  5
16e
100
AcDbEntity
  8
Layer_1
 62
1
100
AcDbPolyline
 90
1
 70
1
 10
39.281157
 20
118.562370
 30
0.0
  0
SPLINE
  5
16f
100
AcDbEntity
  8
Layer_1
 62
1
100
AcDbSpline
 70
8
 71
3
 72
8
 73
4
 74
0
 40
0
 40
0
 40
0
 40
0
 40
1
 40
1
 40
1
 40
1
 10
187.680338
 20
118.562370
 30
0.0
 10
187.680338
 20
115.963051
 30
0.0
 10
189.067057
 20
113.561182
 30
0.0
 10
191.318133
 20
112.261523
 30
0.0
  0
SPLINE
  5
170
100
AcDbEntity
  8
Layer_1
 62
1
100
AcDbSpline
 70
8
 71
3
 72
8
 73
4
 74
0
 40
0
 40
0
 40
0
 40
0
 40
1
 40
1
 40
1
 40
1
 10
191.318133
 20
112.261523
 30
0.0
 10
193.569209
 20
110.961864
 30
0.0
 10
196.342648
 20
110.961864
 30
0.0
 10
198.593724
 20
112.261523
 30
0.0
  0
SPLINE
  5
171
100
AcDbEntity
  8
Layer_1
 62
1
100
AcDbSpline
 70
8
 71
3
 72
8
 73
4
 74
0
 40
0
 40
0
 40
0
 40
0
 40
1
 40
1
 40
1
 40
1
 10
198.593724
 20
112.261523
 30
0.0
 10
200.844800
 20
113.561182
 30
0.0
 10
202.231519
 20
115.963051
 30
0.0
 10
202.231519
 20
118.562370
 30
0.0
  0
SPLINE
  5
172
100
AcDbEntity
  8
Layer_1
 62
1
100
AcDbSpline
 70
8
 71
3
 72
8
 73
4
 74
0
 40
0
 40
0
 40
0
 40
0
 40
1
 40
1
 40
1
 40
1
 10
202.231519
 20
118.562370
 30
0.0
 10
202.231519
 20
121.161688
 30
0.0
 10
200.844800
 20
123.563557
 30
0.0
 10
198.593724
 20
124.863216
 30
0.0
  0
SPLINE
  5
173
100
AcDbEntity
  8
Layer_1
 62
1
100
AcDbSpline
 70
8
 71
3
 72
8
 73
4
 74
0
 40
0
 40
0
 40
0
 40
0
 40
1
 40
1
 40
1
 40
1
 10
198.593724
 20
124.863216
 30
0.0
 10
196.342648
 20
126.162875
 30
0.0
 10
193.569209
 20
126.162875
 30
0.0
 10
191.318133
 20
124.863216
 30
0.0
  0
SPLINE
  5
174
100
AcDbEntity
  8
Layer_1
 62
1
100
AcDbSpline
 70
8
 71
3
 72
8
 73
4
 74
0
 40
0
 40
0
 40
0
 40
0
 40
1
 40
1
 40
1
 40
1
 10
191.318133
 20
124.863216
 30
0.0
 10
189.067057
 20
123.563557
 30
0.0
 10
187.680338
 20
121.161688
 30
0.0
 10
187.680338
 20
118.562370
 30
0.0
  0
LWPOLYLINE
  5
175
100
AcDbEntity
  8
Layer_1
 62
1
100
AcDbPolyline
 90
4
 70
1
 10
67.944754
 20
137.102619
 30
0.0
 10
73.425069
 20
137.102619
 30
0.0
 10
73.425069
 20
98.888330
 30
0.0
 10
67.944754
 20
98.888330
 30
0.0
  0
LWPOLYLINE
  5
176
100
AcDbEntity
  8
Layer_1
 62
1
100
AcDbPolyline
 90
1
 70
1
 10
187.680338
 20
118.562370
 30
0.0
  0
SPLINE
  5
177
100
AcDbEntity
  8
Layer_1
 62
1
100
AcDbSpline
 70
8
 71
3
 72
8
 73
4
 74
0
 40
0
 40
0
 40
0
 40
0
 40
1
 40
1
 40
1
 40
1
 10
54.520255
 20
75.686288
 30
0.0
 10
24.368772
 20
75.686288
 30
0.0
 10
0.094475
 20
67.931318
 30
0.0
 10
0.094475
 20
58.299570
 30
0.0
  0
LWPOLYLINE
  5
178
100
AcDbEntity
  8
Layer_1
 62
1
100
AcDbPolyline
 90
4
 70
1
 10
159.016741
 20
137.102619
 30
0.0
 10
153.536426
 20
137.102619
 30
0.0
 10
153.536426
 20
98.888330
 30
0.0
 10
159.016741
 20
98.888330
 30
0.0
  0
SPLINE
  5
179
100
AcDbEntity
  8
Layer_1
 62
1
100
AcDbSpline
 70
8
 71
3
 72
8
 73
4
 74
0
 40
0
 40
0
 40
0
 40
0
 40
1
 40
1
 40
1
 40
1
 10
0.094475
 20
17.481211
 30
0.0
 10
0.094475
 20
7.849463
 30
0.0
 10
24.368772
 20
0.094492
 30
0.0
 10
54.520255
 20
0.094492
 30
0.0
  0
LWPOLYLINE
  5
17a
100
AcDbEntity
  8
Layer_1
 62
1
100
AcDbPolyline
 90
2
 70
0
 10
0.094475
 20
58.299570
 30
0.0
 10
0.094475
 20
17.481211
 30
0.0
  0
SPLINE
  5
17b
100
AcDbEntity
  8
Layer_1
 62
1
100
AcDbSpline
 70
8
 71
3
 72
8
 73
4
 74
0
 40
0
 40
0
 40
0
 40
0
 40
1
 40
1
 40
1
 40
1
 10
172.442132
 20
0.094492
 30
0.0
 10
202.593611
 20
0.094492
 30
0.0
 10
226.867911
 20
7.849463
 30
0.0
 10
226.867911
 20
17.481211
 30
0.0
  0
LWPOLYLINE
  5
17c
100
AcDbEntity
  8
Layer_1
 62
1
100
AcDbPolyline
 90
3
 70
0
 10
54.520255
 20
0.094492
 30
0.0
 10
113.481192
 20
0.094492
 30
0.0
 10
172.442132
 20
0.094492
 30
0.0
  0
SPLINE
  5
17d
100
AcDbEntity
  8
Layer_1
 62
1
100
AcDbSpline
 70
8
 71
3
 72
8
 73
4
 74
0
 40
0
 40
0
 40
0
 40
0
 40
1
 40
1
 40
1
 40
1
 10
226.867911
 20
58.299570
 30
0.0
 10
226.867911
 20
67.931318
 30
0.0
 10
202.593611
 20
75.686288
 30
0.0
 10
172.442132
 20
75.686288
 30
0.0
  0
LWPOLYLINE
  5
17e
100
AcDbEntity
  8
Layer_1
 62
1
100
AcDbPolyline
 90
2
 70
0
 10
226.867911
 20
17.481211
 30
0.0
 10
226.867911
 20
58.299570
 30
0.0
  0
SPLINE
  5
17f
100
AcDbEntity
  8
Layer_1
 62
1
100
AcDbSpline
 70
8
 71
3
 72
8
 73
4
 74
0
 40
0
 40
0
 40
0
 40
0
 40
1
 40
1
 40
1
 40
1
 10
39.281157
 20
38.457702
 30
0.0
 10
39.281157
 20
35.858384
 30
0.0
 10
37.894437
 20
33.456515
 30
0.0
 10
35.643362
 20
32.156855
 30
0.0
  0
SPLINE
  5
180
100
AcDbEntity
  8
Layer_1
 62
1
100
AcDbSpline
 70
8
 71
3
 72
8
 73
4
 74
0
 40
0
 40
0
 40
0
 40
0
 40
1
 40
1
 40
1
 40
1
 10
35.643362
 20
32.156855
 30
0.0
 10
33.392286
 20
30.857196
 30
0.0
 10
30.618846
 20
30.857196
 30
0.0
 10
28.367771
 20
32.156855
 30
0.0
  0
SPLINE
  5
181
100
AcDbEntity
  8
Layer_1
 62
1
100
AcDbSpline
 70
8
 71
3
 72
8
 73
4
 74
0
 40
0
 40
0
 40
0
 40
0
 40
1
 40
1
 40
1
 40
1
 10
28.367771
 20
32.156855
 30
0.0
 10
26.116695
 20
33.456515
 30
0.0
 10
24.729975
 20
35.858384
 30
0.0
 10
24.729975
 20
38.457702
 30
0.0
  0
SPLINE
  5
182
100
AcDbEntity
  8
Layer_1
 62
1
100
AcDbSpline
 70
8
 71
3
 72
8
 73
4
 74
0
 40
0
 40
0
 40
0
 40
0
 40
1
 40
1
 40
1
 40
1
 10
24.729975
 20
38.457702
 30
0.0
 10
24.729975
 20
41.057020
 30
0.0
 10
26.116695
 20
43.458889
 30
0.0
 10
28.367771
 20
44.758549
 30
0.0
  0
SPLINE
  5
183
100
AcDbEntity
  8
Layer_1
 62
1
100
AcDbSpline
 70
8
 71
3
 72
8
 73
4
 74
0
 40
0
 40
0
 40
0
 40
0
 40
1
 40
1
 40
1
 40
1
 10
28.367771
 20
44.758549
 30
0.0
 10
30.618846
 20
46.058208
 30
0.0
 10
33.392286
 20
46.058208
 30
0.0
 10
35.643362
 20
44.758549
 30
0.0
  0
SPLINE
  5
184
100
AcDbEntity
  8
Layer_1
 62
1
100
AcDbSpline
 70
8
 71
3
 72
8
 73
4
 74
0
 40
0
 40
0
 40
0
 40
0
 40
1
 40
1
 40
1
 40
1
 10
35.643362
 20
44.758549
 30
0.0
 10
37.894437
 20
43.458889
 30
0.0
 10
39.281157
 20
41.057020
 30
0.0
 10
39.281157
 20
38.457702
 30
0.0
  0
LWPOLYLINE
  5
185
100
AcDbEntity
  8
Layer_1
 62
1
100
AcDbPolyline
 90
3
 70
0
 10
172.442132
 20
75.686288
 30
0.0
 10
113.481192
 20
75.686288
 30
0.0
 10
54.520255
 20
75.686288
 30
0.0
  0
LWPOLYLINE
  5
186
100
AcDbEntity
  8
Layer_1
 62
1
100
AcDbPolyline
 90
1
 70
1
 10
39.281157
 20
38.457702
 30
0.0
  0
SPLINE
  5
187
100
AcDbEntity
  8
Layer_1
 62
1
100
AcDbSpline
 70
8
 71
3
 72
8
 73
4
 74
0
 40
0
 40
0
 40
0
 40
0
 40
1
 40
1
 40
1
 40
1
 10
187.680338
 20
38.457702
 30
0.0
 10
187.680338
 20
35.858384
 30
0.0
 10
189.067057
 20
33.456515
 30
0.0
 10
191.318133
 20
32.156855
 30
0.0
  0
SPLINE
  5
188
100
AcDbEntity
  8
Layer_1
 62
1
100
AcDbSpline
 70
8
 71
3
 72
8
 73
4
 74
0
 40
0
 40
0
 40
0
 40
0
 40
1
 40
1
 40
1
 40
1
 10
191.318133
 20
32.156855
 30
0.0
 10
193.569209
 20
30.857196
 30
0.0
 10
196.342648
 20
30.857196
 30
0.0
 10
198.593724
 20
32.156855
 30
0.0
  0
SPLINE
  5
189
100
AcDbEntity
  8
Layer_1
 62
1
100
AcDbSpline
 70
8
 71
3
 72
8
 73
4
 74
0
 40
0
 40
0
 40
0
 40
0
 40
1
 40
1
 40
1
 40
1
 10
198.593724
 20
32.156855
 30
0.0
 10
200.844800
 20
33.456515
 30
0.0
 10
202.231519
 20
35.858384
 30
0.0
 10
202.231519
 20
38.457702
 30
0.0
  0
SPLINE
  5
18a
100
AcDbEntity
  8
Layer_1
 62
1
100
AcDbSpline
 70
8
 71
3
 72
8
 73
4
 74
0
 40
0
 40
0
 40
0
 40
0
 40
1
 40
1
 40
1
 40
1
 10
202.231519
 20
38.457702
 30
0.0
 10
202.231519
 20
41.057020
 30
0.0
 10
200.844800
 20
43.458889
 30
0.0
 10
198.593724
 20
44.758549
 30
0.0
  0
SPLINE
  5
18b
100
AcDbEntity
  8
Layer_1
 62
1
100
AcDbSpline
 70
8
 71
3
 72
8
 73
4
 74
0
 40
0
 40
0
 40
0
 40
0
 40
1
 40
1
 40
1
 40
1
 10
198.593724
 20
44.758549
 30
0.0
 10
196.342648
 20
46.058208
 30
0.0
 10
193.569209
 20
46.058208
 30
0.0
 10
191.318133
 20
44.758549
 30
0.0
  0
SPLINE
  5
18c
100
AcDbEntity
  8
Layer_1
 62
1
100
AcDbSpline
 70
8
 71
3
 72
8
 73
4
 74
0
 40
0
 40
0
 40
0
 40
0
 40
1
 40
1
 40
1
 40
1
 10
191.318133
 20
44.758549
 30
0.0
 10
189.067057
 20
43.458889
 30
0.0
 10
187.680338
 20
41.057020
 30
0.0
 10
187.680338
 20
38.457702
 30
0.0
  0
LWPOLYLINE
  5
18d
100
AcDbEntity
  8
Layer_1
 62
1
100
AcDbPolyline
 90
4
 70
1
 10
67.944754
 20
56.997951
 30
0.0
 10
73.425069
 20
56.997951
 30
0.0
 10
73.425069
 20
18.783662
 30
0.0
 10
67.944754
 20
18.783662
 30
0.0
  0
LWPOLYLINE
  5
18e
100
AcDbEntity
  8
Layer_1
 62
1
100
AcDbPolyline
 90
1
 70
1
 10
187.680338
 20
38.457702
 30
0.0
  0
SPLINE
  5
18f
100
AcDbEntity
  8
Layer_1
 62
1
100
AcDbSpline
 70
8
 71
3
 72
8
 73
4
 74
0
 40
0
 40
0
 40
0
 40
0
 40
1
 40
1
 40
1
 40
1
 10
285.324776
 20
476.372751
 30
0.0
 10
255.173294
 20
476.372751
 30
0.0
 10
230.898996
 20
468.617781
 30
0.0
 10
230.898996
 20
458.986033
 30
0.0
  0
LWPOLYLINE
  5
190
100
AcDbEntity
  8
Layer_1
 62
1
100
AcDbPolyline
 90
4
 70
1
 10
159.016741
 20
56.997951
 30
0.0
 10
153.536426
 20
56.997951
 30
0.0
 10
153.536426
 20
18.783662
 30
0.0
 10
159.016741
 20
18.783662
 30
0.0
  0
SPLINE
  5
191
100
AcDbEntity
  8
Layer_1
 62
1
100
AcDbSpline
 70
8
 71
3
 72
8
 73
4
 74
0
 40
0
 40
0
 40
0
 40
0
 40
1
 40
1
 40
1
 40
1
 10
230.898996
 20
418.167674
 30
0.0
 10
230.898996
 20
408.535926
 30
0.0
 10
255.173294
 20
400.780955
 30
0.0
 10
285.324776
 20
400.780955
 30
0.0
  0
LWPOLYLINE
  5
192
100
AcDbEntity
  8
Layer_1
 62
1
100
AcDbPolyline
 90
2
 70
0
 10
230.898996
 20
458.986033
 30
0.0
 10
230.898996
 20
418.167674
 30
0.0
  0
SPLINE
  5
193
100
AcDbEntity
  8
Layer_1
 62
1
100
AcDbSpline
 70
8
 71
3
 72
8
 73
4
 74
0
 40
0
 40
0
 40
0
 40
0
 40
1
 40
1
 40
1
 40
1
 10
403.246653
 20
400.780955
 30
0.0
 10
433.398133
 20
400.780955
 30
0.0
 10
457.672432
 20
408.535926
 30
0.0
 10
457.672432
 20
418.167674
 30
0.0
  0
LWPOLYLINE
  5
194
100
AcDbEntity
  8
Layer_1
 62
1
100
AcDbPolyline
 90
3
 70
0
 10
285.324776
 20
400.780955
 30
0.0
 10
344.285714
 20
400.780955
 30
0.0
 10
403.246653
 20
400.780955
 30
0.0
  0
SPLINE
  5
195
100
AcDbEntity
  8
Layer_1
 62
1
100
AcDbSpline
 70
8
 71
3
 72
8
 73
4
 74
0
 40
0
 40
0
 40
0
 40
0
 40
1
 40
1
 40
1
 40
1
 10
457.672432
 20
458.986033
 30
0.0
 10
457.672432
 20
468.617781
 30
0.0
 10
433.398133
 20
476.372751
 30
0.0
 10
403.246653
 20
476.372751
 30
0.0
  0
LWPOLYLINE
  5
196
100
AcDbEntity
  8
Layer_1
 62
1
100
AcDbPolyline
 90
2
 70
0
 10
457.672432
 20
418.167674
 30
0.0
 10
457.672432
 20
458.986033
 30
0.0
  0
SPLINE
  5
197
100
AcDbEntity
  8
Layer_1
 62
1
100
AcDbSpline
 70
8
 71
3
 72
8
 73
4
 74
0
 40
0
 40
0
 40
0
 40
0
 40
1
 40
1
 40
1
 40
1
 10
270.085678
 20
439.144165
 30
0.0
 10
270.085678
 20
436.544847
 30
0.0
 10
268.698959
 20
434.142978
 30
0.0
 10
266.447883
 20
432.843318
 30
0.0
  0
SPLINE
  5
198
100
AcDbEntity
  8
Layer_1
 62
1
100
AcDbSpline
 70
8
 71
3
 72
8
 73
4
 74
0
 40
0
 40
0
 40
0
 40
0
 40
1
 40
1
 40
1
 40
1
 10
266.447883
 20
432.843318
 30
0.0
 10
264.196807
 20
431.543659
 30
0.0
 10
261.423368
 20
431.543659
 30
0.0
 10
259.172292
 20
432.843318
 30
0.0
  0
SPLINE
  5
199
100
AcDbEntity
  8
Layer_1
 62
1
100
AcDbSpline
 70
8
 71
3
 72
8
 73
4
 74
0
 40
0
 40
0
 40
0
 40
0
 40
1
 40
1
 40
1
 40
1
 10
259.172292
 20
432.843318
 30
0.0
 10
256.921216
 20
434.142978
 30
0.0
 10
255.534497
 20
436.544847
 30
0.0
 10
255.534497
 20
439.144165
 30
0.0
  0
SPLINE
  5
19a
100
AcDbEntity
  8
Layer_1
 62
1
100
AcDbSpline
 70
8
 71
3
 72
8
 73
4
 74
0
 40
0
 40
0
 40
0
 40
0
 40
1
 40
1
 40
1
 40
1
 10
255.534497
 20
439.144165
 30
0.0
 10
255.534497
 20
441.743483
 30
0.0
 10
256.921216
 20
444.145352
 30
0.0
 10
259.172292
 20
445.445012
 30
0.0
  0
SPLINE
  5
19b
100
AcDbEntity
  8
Layer_1
 62
1
100
AcDbSpline
 70
8
 71
3
 72
8
 73
4
 74
0
 40
0
 40
0
 40
0
 40
0
 40
1
 40
1
 40
1
 40
1
 10
259.172292
 20
445.445012
 30
0.0
 10
261.423368
 20
446.744671
 30
0.0
 10
264.196807
 20
446.744671
 30
0.0
 10
266.447883
 20
445.445012
 30
0.0
  0
SPLINE
  5
19c
100
AcDbEntity
  8
Layer_1
 62
1
100
AcDbSpline
 70
8
 71
3
 72
8
 73
4
 74
0
 40
0
 40
0
 40
0
 40
0
 40
1
 40
1
 40
1
 40
1
 10
266.447883
 20
445.445012
 30
0.0
 10
268.698959
 20
444.145352
 30
0.0
 10
270.085678
 20
441.743483
 30
0.0
 10
270.085678
 20
439.144165
 30
0.0
  0
LWPOLYLINE
  5
19d
100
AcDbEntity
  8
Layer_1
 62
1
100
AcDbPolyline
 90
3
 70
0
 10
403.246653
 20
476.372751
 30
0.0
 10
344.285714
 20
476.372751
 30
0.0
 10
285.324776
 20
476.372751
 30
0.0
  0
LWPOLYLINE
  5
19e
100
AcDbEntity
  8
Layer_1
 62
1
100
AcDbPolyline
 90
1
 70
1
 10
270.085678
 20
439.144165
 30
0.0
  0
SPLINE
  5
19f
100
AcDbEntity
  8
Layer_1
 62
1
100
AcDbSpline
 70
8
 71
3
 72
8
 73
4
 74
0
 40
0
 40
0
 40
0
 40
0
 40
1
 40
1
 40
1
 40
1
 10
418.484859
 20
439.144165
 30
0.0
 10
418.484859
 20
436.544847
 30
0.0
 10
419.871579
 20
434.142978
 30
0.0
 10
422.122654
 20
432.843318
 30
0.0
  0
SPLINE
  5
1a0
100
AcDbEntity
  8
Layer_1
 62
1
100
AcDbSpline
 70
8
 71
3
 72
8
 73
4
 74
0
 40
0
 40
0
 40
0
 40
0
 40
1
 40
1
 40
1
 40
1
 10
422.122654
 20
432.843318
 30
0.0
 10
424.373730
 20
431.543659
 30
0.0
 10
427.147170
 20
431.543659
 30
0.0
 10
429.398245
 20
432.843318
 30
0.0
  0
SPLINE
  5
1a1
100
AcDbEntity
  8
Layer_1
 62
1
100
AcDbSpline
 70
8
 71
3
 72
8
 73
4
 74
0
 40
0
 40
0
 40
0
 40
0
 40
1
 40
1
 40
1
 40
1
 10
429.398245
 20
432.843318
 30
0.0
 10
431.649321
 20
434.142978
 30
0.0
 10
433.036041
 20
436.544847
 30
0.0
 10
433.036041
 20
439.144165
 30
0.0
  0
SPLINE
  5
1a2
100
AcDbEntity
  8
Layer_1
 62
1
100
AcDbSpline
 70
8
 71
3
 72
8
 73
4
 74
0
 40
0
 40
0
 40
0
 40
0
 40
1
 40
1
 40
1
 40
1
 10
433.036041
 20
439.144165
 30
0.0
 10
433.036041
 20
441.743483
 30
0.0
 10
431.649321
 20
444.145352
 30
0.0
 10
429.398245
 20
445.445012
 30
0.0
  0
SPLINE
  5
1a3
100
AcDbEntity
  8
Layer_1
 62
1
100
AcDbSpline
 70
8
 71
3
 72
8
 73
4
 74
0
 40
0
 40
0
 40
0
 40
0
 40
1
 40
1
 40
1
 40
1
 10
429.398245
 20
445.445012
 30
0.0
 10
427.147170
 20
446.744671
 30
0.0
 10
424.373730
 20
446.744671
 30
0.0
 10
422.122654
 20
445.445012
 30
0.0
  0
SPLINE
  5
1a4
100
AcDbEntity
  8
Layer_1
 62
1
100
AcDbSpline
 70
8
 71
3
 72
8
 73
4
 74
0
 40
0
 40
0
 40
0
 40
0
 40
1
 40
1
 40
1
 40
1
 10
422.122654
 20
445.445012
 30
0.0
 10
419.871579
 20
444.145352
 30
0.0
 10
418.484859
 20
441.743483
 30
0.0
 10
418.484859
 20
439.144165
 30
0.0
  0
LWPOLYLINE
  5
1a5
100
AcDbEntity
  8
Layer_1
 62
1
100
AcDbPolyline
 90
4
 70
1
 10
298.749275
 20
457.684414
 30
0.0
 10
304.229590
 20
457.684414
 30
0.0
 10
304.229590
 20
419.470125
 30
0.0
 10
298.749275
 20
419.470125
 30
0.0
  0
LWPOLYLINE
  5
1a6
100
AcDbEntity
  8
Layer_1
 62
1
100
AcDbPolyline
 90
1
 70
1
 10
418.484859
 20
439.144165
 30
0.0
  0
SPLINE
  5
1a7
100
AcDbEntity
  8
Layer_1
 62
1
100
AcDbSpline
 70
8
 71
3
 72
8
 73
4
 74
0
 40
0
 40
0
 40
0
 40
0
 40
1
 40
1
 40
1
 40
1
 10
285.324776
 20
396.268091
 30
0.0
 10
255.173294
 20
396.268091
 30
0.0
 10
230.898996
 20
388.513121
 30
0.0
 10
230.898996
 20
378.881373
 30
0.0
  0
LWPOLYLINE
  5
1a8
100
AcDbEntity
  8
Layer_1
 62
1
100
AcDbPolyline
 90
4
 70
1
 10
389.821262
 20
457.684414
 30
0.0
 10
384.340947
 20
457.684414
 30
0.0
 10
384.340947
 20
419.470125
 30
0.0
 10
389.821262
 20
419.470125
 30
0.0
  0
SPLINE
  5
1a9
100
AcDbEntity
  8
Layer_1
 62
1
100
AcDbSpline
 70
8
 71
3
 72
8
 73
4
 74
0
 40
0
 40
0
 40
0
 40
0
 40
1
 40
1
 40
1
 40
1
 10
230.898996
 20
338.063014
 30
0.0
 10
230.898996
 20
328.431266
 30
0.0
 10
255.173294
 20
320.676295
 30
0.0
 10
285.324776
 20
320.676295
 30
0.0
  0
LWPOLYLINE
  5
1aa
100
AcDbEntity
  8
Layer_1
 62
1
100
AcDbPolyline
 90
2
 70
0
 10
230.898996
 20
378.881373
 30
0.0
 10
230.898996
 20
338.063014
 30
0.0
  0
SPLINE
  5
1ab
100
AcDbEntity
  8
Layer_1
 62
1
100
AcDbSpline
 70
8
 71
3
 72
8
 73
4
 74
0
 40
0
 40
0
 40
0
 40
0
 40
1
 40
1
 40
1
 40
1
 10
403.246653
 20
320.676295
 30
0.0
 10
433.398133
 20
320.676295
 30
0.0
 10
457.672432
 20
328.431266
 30
0.0
 10
457.672432
 20
338.063014
 30
0.0
  0
LWPOLYLINE
  5
1ac
100
AcDbEntity
  8
Layer_1
 62
1
100
AcDbPolyline
 90
3
 70
0
 10
285.324776
 20
320.676295
 30
0.0
 10
344.285714
 20
320.676295
 30
0.0
 10
403.246653
 20
320.676295
 30
0.0
  0
SPLINE
  5
1ad
100
AcDbEntity
  8
Layer_1
 62
1
100
AcDbSpline
 70
8
 71
3
 72
8
 73
4
 74
0
 40
0
 40
0
 40
0
 40
0
 40
1
 40
1
 40
1
 40
1
 10
457.672432
 20
378.881373
 30
0.0
 10
457.672432
 20
388.513121
 30
0.0
 10
433.398133
 20
396.268091
 30
0.0
 10
403.246653
 20
396.268091
 30
0.0
  0
LWPOLYLINE
  5
1ae
100
AcDbEntity
  8
Layer_1
 62
1
100
AcDbPolyline
 90
2
 70
0
 10
457.672432
 20
338.063014
 30
0.0
 10
457.672432
 20
378.881373
 30
0.0
  0
SPLINE
  5
1af
100
AcDbEntity
  8
Layer_1
 62
1
100
AcDbSpline
 70
8
 71
3
 72
8
 73
4
 74
0
 40
0
 40
0
 40
0
 40
0
 40
1
 40
1
 40
1
 40
1
 10
270.085678
 20
359.039505
 30
0.0
 10
270.085678
 20
356.440187
 30
0.0
 10
268.698959
 20
354.038317
 30
0.0
 10
266.447883
 20
352.738658
 30
0.0
  0
SPLINE
  5
1b0
100
AcDbEntity
  8
Layer_1
 62
1
100
AcDbSpline
 70
8
 71
3
 72
8
 73
4
 74
0
 40
0
 40
0
 40
0
 40
0
 40
1
 40
1
 40
1
 40
1
 10
266.447883
 20
352.738658
 30
0.0
 10
264.196807
 20
351.438999
 30
0.0
 10
261.423368
 20
351.438999
 30
0.0
 10
259.172292
 20
352.738658
 30
0.0
  0
SPLINE
  5
1b1
100
AcDbEntity
  8
Layer_1
 62
1
100
AcDbSpline
 70
8
 71
3
 72
8
 73
4
 74
0
 40
0
 40
0
 40
0
 40
0
 40
1
 40
1
 40
1
 40
1
 10
259.172292
 20
352.738658
 30
0.0
 10
256.921216
 20
354.038317
 30
0.0
 10
255.534497
 20
356.440187
 30
0.0
 10
255.534497
 20
359.039505
 30
0.0
  0
SPLINE
  5
1b2
100
AcDbEntity
  8
Layer_1
 62
1
100
AcDbSpline
 70
8
 71
3
 72
8
 73
4
 74
0
 40
0
 40
0
 40
0
 40
0
 40
1
 40
1
 40
1
 40
1
 10
255.534497
 20
359.039505
 30
0.0
 10
255.534497
 20
361.638823
 30
0.0
 10
256.921216
 20
364.040692
 30
0.0
 10
259.172292
 20
365.340351
 30
0.0
  0
SPLINE
  5
1b3
100
AcDbEntity
  8
Layer_1
 62
1
100
AcDbSpline
 70
8
 71
3
 72
8
 73
4
 74
0
 40
0
 40
0
 40
0
 40
0
 40
1
 40
1
 40
1
 40
1
 10
259.172292
 20
365.340351
 30
0.0
 10
261.423368
 20
366.640011
 30
0.0
 10
264.196807
 20
366.640011
 30
0.0
 10
266.447883
 20
365.340351
 30
0.0
  0
SPLINE
  5
1b4
100
AcDbEntity
  8
Layer_1
 62
1
100
AcDbSpline
 70
8
 71
3
 72
8
 73
4
 74
0
 40
0
 40
0
 40
0
 40
0
 40
1
 40
1
 40
1
 40
1
 10
266.447883
 20
365.340351
 30
0.0
 10
268.698959
 20
364.040692
 30
0.0
 10
270.085678
 20
361.638823
 30
0.0
 10
270.085678
 20
359.039505
 30
0.0
  0
LWPOLYLINE
  5
1b5
100
AcDbEntity
  8
Layer_1
 62
1
100
AcDbPolyline
 90
3
 70
0
 10
403.246653
 20
396.268091
 30
0.0
 10
344.285714
 20
396.268091
 30
0.0
 10
285.324776
 20
396.268091
 30
0.0
  0
LWPOLYLINE
  5
1b6
100
AcDbEntity
  8
Layer_1
 62
1
100
AcDbPolyline
 90
1
 70
1
 10
270.085678
 20
359.039505
 30
0.0
  0
SPLINE
  5
1b7
100
AcDbEntity
  8
Layer_1
 62
1
100
AcDbSpline
 70
8
 71
3
 72
8
 73
4
 74
0
 40
0
 40
0
 40
0
 40
0
 40
1
 40
1
 40
1
 40
1
 10
418.484859
 20
359.039505
 30
0.0
 10
418.484859
 20
356.440187
 30
0.0
 10
419.871579
 20
354.038317
 30
0.0
 10
422.122654
 20
352.738658
 30
0.0
  0
SPLINE
  5
1b8
100
AcDbEntity
  8
Layer_1
 62
1
100
AcDbSpline
 70
8
 71
3
 72
8
 73
4
 74
0
 40
0
 40
0
 40
0
 40
0
 40
1
 40
1
 40
1
 40
1
 10
422.122654
 20
352.738658
 30
0.0
 10
424.373730
 20
351.438999
 30
0.0
 10
427.147170
 20
351.438999
 30
0.0
 10
429.398245
 20
352.738658
 30
0.0
  0
SPLINE
  5
1b9
100
AcDbEntity
  8
Layer_1
 62
1
100
AcDbSpline
 70
8
 71
3
 72
8
 73
4
 74
0
 40
0
 40
0
 40
0
 40
0
 40
1
 40
1
 40
1
 40
1
 10
429.398245
 20
352.738658
 30
0.0
 10
431.649321
 20
354.038317
 30
0.0
 10
433.036041
 20
356.440187
 30
0.0
 10
433.036041
 20
359.039505
 30
0.0
  0
SPLINE
  5
1ba
100
AcDbEntity
  8
Layer_1
 62
1
100
AcDbSpline
 70
8
 71
3
 72
8
 73
4
 74
0
 40
0
 40
0
 40
0
 40
0
 40
1
 40
1
 40
1
 40
1
 10
433.036041
 20
359.039505
 30
0.0
 10
433.036041
 20
361.638823
 30
0.0
 10
431.649321
 20
364.040692
 30
0.0
 10
429.398245
 20
365.340351
 30
0.0
  0
SPLINE
  5
1bb
100
AcDbEntity
  8
Layer_1
 62
1
100
AcDbSpline
 70
8
 71
3
 72
8
 73
4
 74
0
 40
0
 40
0
 40
0
 40
0
 40
1
 40
1
 40
1
 40
1
 10
429.398245
 20
365.340351
 30
0.0
 10
427.147170
 20
366.640011
 30
0.0
 10
424.373730
 20
366.640011
 30
0.0
 10
422.122654
 20
365.340351
 30
0.0
  0
SPLINE
  5
1bc
100
AcDbEntity
  8
Layer_1
 62
1
100
AcDbSpline
 70
8
 71
3
 72
8
 73
4
 74
0
 40
0
 40
0
 40
0
 40
0
 40
1
 40
1
 40
1
 40
1
 10
422.122654
 20
365.340351
 30
0.0
 10
419.871579
 20
364.040692
 30
0.0
 10
418.484859
 20
361.638823
 30
0.0
 10
418.484859
 20
359.039505
 30
0.0
  0
LWPOLYLINE
  5
1bd
100
AcDbEntity
  8
Layer_1
 62
1
100
AcDbPolyline
 90
4
 70
1
 10
298.749275
 20
377.579754
 30
0.0
 10
304.229590
 20
377.579754
 30
0.0
 10
304.229590
 20
339.365465
 30
0.0
 10
298.749275
 20
339.365465
 30
0.0
  0
LWPOLYLINE
  5
1be
100
AcDbEntity
  8
Layer_1
 62
1
100
AcDbPolyline
 90
1
 70
1
 10
418.484859
 20
359.039505
 30
0.0
  0
SPLINE
  5
1bf
100
AcDbEntity
  8
Layer_1
 62
1
100
AcDbSpline
 70
8
 71
3
 72
8
 73
4
 74
0
 40
0
 40
0
 40
0
 40
0
 40
1
 40
1
 40
1
 40
1
 10
285.324776
 20
316.391847
 30
0.0
 10
255.173294
 20
316.391847
 30
0.0
 10
230.898996
 20
308.636877
 30
0.0
 10
230.898996
 20
299.005129
 30
0.0
  0
LWPOLYLINE
  5
1c0
100
AcDbEntity
  8
Layer_1
 62
1
100
AcDbPolyline
 90
4
 70
1
 10
389.821262
 20
377.579754
 30
0.0
 10
384.340947
 20
377.579754
 30
0.0
 10
384.340947
 20
339.365465
 30
0.0
 10
389.821262
 20
339.365465
 30
0.0
  0
SPLINE
  5
1c1
100
AcDbEntity
  8
Layer_1
 62
1
100
AcDbSpline
 70
8
 71
3
 72
8
 73
4
 74
0
 40
0
 40
0
 40
0
 40
0
 40
1
 40
1
 40
1
 40
1
 10
230.898996
 20
258.186769
 30
0.0
 10
230.898996
 20
248.555022
 30
0.0
 10
255.173294
 20
240.800051
 30
0.0
 10
285.324776
 20
240.800051
 30
0.0
  0
LWPOLYLINE
  5
1c2
100
AcDbEntity
  8
Layer_1
 62
1
100
AcDbPolyline
 90
2
 70
0
 10
230.898996
 20
299.005129
 30
0.0
 10
230.898996
 20
258.186769
 30
0.0
  0
SPLINE
  5
1c3
100
AcDbEntity
  8
Layer_1
 62
1
100
AcDbSpline
 70
8
 71
3
 72
8
 73
4
 74
0
 40
0
 40
0
 40
0
 40
0
 40
1
 40
1
 40
1
 40
1
 10
403.246653
 20
240.800051
 30
0.0
 10
433.398133
 20
240.800051
 30
0.0
 10
457.672432
 20
248.555022
 30
0.0
 10
457.672432
 20
258.186769
 30
0.0
  0
LWPOLYLINE
  5
1c4
100
AcDbEntity
  8
Layer_1
 62
1
100
AcDbPolyline
 90
3
 70
0
 10
285.324776
 20
240.800051
 30
0.0
 10
344.285714
 20
240.800051
 30
0.0
 10
403.246653
 20
240.800051
 30
0.0
  0
SPLINE
  5
1c5
100
AcDbEntity
  8
Layer_1
 62
1
100
AcDbSpline
 70
8
 71
3
 72
8
 73
4
 74
0
 40
0
 40
0
 40
0
 40
0
 40
1
 40
1
 40
1
 40
1
 10
457.672432
 20
299.005129
 30
0.0
 10
457.672432
 20
308.636877
 30
0.0
 10
433.398133
 20
316.391847
 30
0.0
 10
403.246653
 20
316.391847
 30
0.0
  0
LWPOLYLINE
  5
1c6
100
AcDbEntity
  8
Layer_1
 62
1
100
AcDbPolyline
 90
2
 70
0
 10
457.672432
 20
258.186769
 30
0.0
 10
457.672432
 20
299.005129
 30
0.0
  0
SPLINE
  5
1c7
100
AcDbEntity
  8
Layer_1
 62
1
100
AcDbSpline
 70
8
 71
3
 72
8
 73
4
 74
0
 40
0
 40
0
 40
0
 40
0
 40
1
 40
1
 40
1
 40
1
 10
270.085678
 20
279.163260
 30
0.0
 10
270.085678
 20
276.563942
 30
0.0
 10
268.698959
 20
274.162073
 30
0.0
 10
266.447883
 20
272.862414
 30
0.0
  0
SPLINE
  5
1c8
100
AcDbEntity
  8
Layer_1
 62
1
100
AcDbSpline
 70
8
 71
3
 72
8
 73
4
 74
0
 40
0
 40
0
 40
0
 40
0
 40
1
 40
1
 40
1
 40
1
 10
266.447883
 20
272.862414
 30
0.0
 10
264.196807
 20
271.562755
 30
0.0
 10
261.423368
 20
271.562755
 30
0.0
 10
259.172292
 20
272.862414
 30
0.0
  0
SPLINE
  5
1c9
100
AcDbEntity
  8
Layer_1
 62
1
100
AcDbSpline
 70
8
 71
3
 72
8
 73
4
 74
0
 40
0
 40
0
 40
0
 40
0
 40
1
 40
1
 40
1
 40
1
 10
259.172292
 20
272.862414
 30
0.0
 10
256.921216
 20
274.162073
 30
0.0
 10
255.534497
 20
276.563942
 30
0.0
 10
255.534497
 20
279.163260
 30
0.0
  0
SPLINE
  5
1ca
100
AcDbEntity
  8
Layer_1
 62
1
100
AcDbSpline
 70
8
 71
3
 72
8
 73
4
 74
0
 40
0
 40
0
 40
0
 40
0
 40
1
 40
1
 40
1
 40
1
 10
255.534497
 20
279.163260
 30
0.0
 10
255.534497
 20
281.762579
 30
0.0
 10
256.921216
 20
284.164448
 30
0.0
 10
259.172292
 20
285.464107
 30
0.0
  0
SPLINE
  5
1cb
100
AcDbEntity
  8
Layer_1
 62
1
100
AcDbSpline
 70
8
 71
3
 72
8
 73
4
 74
0
 40
0
 40
0
 40
0
 40
0
 40
1
 40
1
 40
1
 40
1
 10
259.172292
 20
285.464107
 30
0.0
 10
261.423368
 20
286.763766
 30
0.0
 10
264.196807
 20
286.763766
 30
0.0
 10
266.447883
 20
285.464107
 30
0.0
  0
SPLINE
  5
1cc
100
AcDbEntity
  8
Layer_1
 62
1
100
AcDbSpline
 70
8
 71
3
 72
8
 73
4
 74
0
 40
0
 40
0
 40
0
 40
0
 40
1
 40
1
 40
1
 40
1
 10
266.447883
 20
285.464107
 30
0.0
 10
268.698959
 20
284.164448
 30
0.0
 10
270.085678
 20
281.762579
 30
0.0
 10
270.085678
 20
279.163260
 30
0.0
  0
LWPOLYLINE
  5
1cd
100
AcDbEntity
  8
Layer_1
 62
1
100
AcDbPolyline
 90
3
 70
0
 10
403.246653
 20
316.391847
 30
0.0
 10
344.285714
 20
316.391847
 30
0.0
 10
285.324776
 20
316.391847
 30
0.0
  0
LWPOLYLINE
  5
1ce
100
AcDbEntity
  8
Layer_1
 62
1
100
AcDbPolyline
 90
1
 70
1
 10
270.085678
 20
279.163260
 30
0.0
  0
SPLINE
  5
1cf
100
AcDbEntity
  8
Layer_1
 62
1
100
AcDbSpline
 70
8
 71
3
 72
8
 73
4
 74
0
 40
0
 40
0
 40
0
 40
0
 40
1
 40
1
 40
1
 40
1
 10
418.484859
 20
279.163260
 30
0.0
 10
418.484859
 20
276.563942
 30
0.0
 10
419.871579
 20
274.162073
 30
0.0
 10
422.122654
 20
272.862414
 30
0.0
  0
SPLINE
  5
1d0
100
AcDbEntity
  8
Layer_1
 62
1
100
AcDbSpline
 70
8
 71
3
 72
8
 73
4
 74
0
 40
0
 40
0
 40
0
 40
0
 40
1
 40
1
 40
1
 40
1
 10
422.122654
 20
272.862414
 30
0.0
 10
424.373730
 20
271.562755
 30
0.0
 10
427.147170
 20
271.562755
 30
0.0
 10
429.398245
 20
272.862414
 30
0.0
  0
SPLINE
  5
1d1
100
AcDbEntity
  8
Layer_1
 62
1
100
AcDbSpline
 70
8
 71
3
 72
8
 73
4
 74
0
 40
0
 40
0
 40
0
 40
0
 40
1
 40
1
 40
1
 40
1
 10
429.398245
 20
272.862414
 30
0.0
 10
431.649321
 20
274.162073
 30
0.0
 10
433.036041
 20
276.563942
 30
0.0
 10
433.036041
 20
279.163260
 30
0.0
  0
SPLINE
  5
1d2
100
AcDbEntity
  8
Layer_1
 62
1
100
AcDbSpline
 70
8
 71
3
 72
8
 73
4
 74
0
 40
0
 40
0
 40
0
 40
0
 40
1
 40
1
 40
1
 40
1
 10
433.036041
 20
279.163260
 30
0.0
 10
433.036041
 20
281.762579
 30
0.0
 10
431.649321
 20
284.164448
 30
0.0
 10
429.398245
 20
285.464107
 30
0.0
  0
SPLINE
  5
1d3
100
AcDbEntity
  8
Layer_1
 62
1
100
AcDbSpline
 70
8
 71
3
 72
8
 73
4
 74
0
 40
0
 40
0
 40
0
 40
0
 40
1
 40
1
 40
1
 40
1
 10
429.398245
 20
285.464107
 30
0.0
 10
427.147170
 20
286.763766
 30
0.0
 10
424.373730
 20
286.763766
 30
0.0
 10
422.122654
 20
285.464107
 30
0.0
  0
SPLINE
  5
1d4
100
AcDbEntity
  8
Layer_1
 62
1
100
AcDbSpline
 70
8
 71
3
 72
8
 73
4
 74
0
 40
0
 40
0
 40
0
 40
0
 40
1
 40
1
 40
1
 40
1
 10
422.122654
 20
285.464107
 30
0.0
 10
419.871579
 20
284.164448
 30
0.0
 10
418.484859
 20
281.762579
 30
0.0
 10
418.484859
 20
279.163260
 30
0.0
  0
LWPOLYLINE
  5
1d5
100
AcDbEntity
  8
Layer_1
 62
1
100
AcDbPolyline
 90
4
 70
1
 10
298.749275
 20
297.703510
 30
0.0
 10
304.229590
 20
297.703510
 30
0.0
 10
304.229590
 20
259.489221
 30
0.0
 10
298.749275
 20
259.489221
 30
0.0
  0
LWPOLYLINE
  5
1d6
100
AcDbEntity
  8
Layer_1
 62
1
100
AcDbPolyline
 90
1
 70
1
 10
418.484859
 20
279.163260
 30
0.0
  0
SPLINE
  5
1d7
100
AcDbEntity
  8
Layer_1
 62
1
100
AcDbSpline
 70
8
 71
3
 72
8
 73
4
 74
0
 40
0
 40
0
 40
0
 40
0
 40
1
 40
1
 40
1
 40
1
 10
285.324776
 20
236.287183
 30
0.0
 10
255.173294
 20
236.287183
 30
0.0
 10
230.898996
 20
228.532213
 30
0.0
 10
230.898996
 20
218.900465
 30
0.0
  0
LWPOLYLINE
  5
1d8
100
AcDbEntity
  8
Layer_1
 62
1
100
AcDbPolyline
 90
4
 70
1
 10
389.821262
 20
297.703510
 30
0.0
 10
384.340947
 20
297.703510
 30
0.0
 10
384.340947
 20
259.489221
 30
0.0
 10
389.821262
 20
259.489221
 30
0.0
  0
SPLINE
  5
1d9
100
AcDbEntity
  8
Layer_1
 62
1
100
AcDbSpline
 70
8
 71
3
 72
8
 73
4
 74
0
 40
0
 40
0
 40
0
 40
0
 40
1
 40
1
 40
1
 40
1
 10
230.898996
 20
178.082106
 30
0.0
 10
230.898996
 20
168.450358
 30
0.0
 10
255.173294
 20
160.695387
 30
0.0
 10
285.324776
 20
160.695387
 30
0.0
  0
LWPOLYLINE
  5
1da
100
AcDbEntity
  8
Layer_1
 62
1
100
AcDbPolyline
 90
2
 70
0
 10
230.898996
 20
218.900465
 30
0.0
 10
230.898996
 20
178.082106
 30
0.0
  0
SPLINE
  5
1db
100
AcDbEntity
  8
Layer_1
 62
1
100
AcDbSpline
 70
8
 71
3
 72
8
 73
4
 74
0
 40
0
 40
0
 40
0
 40
0
 40
1
 40
1
 40
1
 40
1
 10
403.246653
 20
160.695387
 30
0.0
 10
433.398133
 20
160.695387
 30
0.0
 10
457.672432
 20
168.450358
 30
0.0
 10
457.672432
 20
178.082106
 30
0.0
  0
LWPOLYLINE
  5
1dc
100
AcDbEntity
  8
Layer_1
 62
1
100
AcDbPolyline
 90
3
 70
0
 10
285.324776
 20
160.695387
 30
0.0
 10
344.285714
 20
160.695387
 30
0.0
 10
403.246653
 20
160.695387
 30
0.0
  0
SPLINE
  5
1dd
100
AcDbEntity
  8
Layer_1
 62
1
100
AcDbSpline
 70
8
 71
3
 72
8
 73
4
 74
0
 40
0
 40
0
 40
0
 40
0
 40
1
 40
1
 40
1
 40
1
 10
457.672432
 20
218.900465
 30
0.0
 10
457.672432
 20
228.532213
 30
0.0
 10
433.398133
 20
236.287183
 30
0.0
 10
403.246653
 20
236.287183
 30
0.0
  0
LWPOLYLINE
  5
1de
100
AcDbEntity
  8
Layer_1
 62
1
100
AcDbPolyline
 90
2
 70
0
 10
457.672432
 20
178.082106
 30
0.0
 10
457.672432
 20
218.900465
 30
0.0
  0
SPLINE
  5
1df
100
AcDbEntity
  8
Layer_1
 62
1
100
AcDbSpline
 70
8
 71
3
 72
8
 73
4
 74
0
 40
0
 40
0
 40
0
 40
0
 40
1
 40
1
 40
1
 40
1
 10
270.085678
 20
199.058597
 30
0.0
 10
270.085678
 20
196.459278
 30
0.0
 10
268.698959
 20
194.057409
 30
0.0
 10
266.447883
 20
192.757750
 30
0.0
  0
SPLINE
  5
1e0
100
AcDbEntity
  8
Layer_1
 62
1
100
AcDbSpline
 70
8
 71
3
 72
8
 73
4
 74
0
 40
0
 40
0
 40
0
 40
0
 40
1
 40
1
 40
1
 40
1
 10
266.447883
 20
192.757750
 30
0.0
 10
264.196807
 20
191.458091
 30
0.0
 10
261.423368
 20
191.458091
 30
0.0
 10
259.172292
 20
192.757750
 30
0.0
  0
SPLINE
  5
1e1
100
AcDbEntity
  8
Layer_1
 62
1
100
AcDbSpline
 70
8
 71
3
 72
8
 73
4
 74
0
 40
0
 40
0
 40
0
 40
0
 40
1
 40
1
 40
1
 40
1
 10
259.172292
 20
192.757750
 30
0.0
 10
256.921216
 20
194.057409
 30
0.0
 10
255.534497
 20
196.459278
 30
0.0
 10
255.534497
 20
199.058597
 30
0.0
  0
SPLINE
  5
1e2
100
AcDbEntity
  8
Layer_1
 62
1
100
AcDbSpline
 70
8
 71
3
 72
8
 73
4
 74
0
 40
0
 40
0
 40
0
 40
0
 40
1
 40
1
 40
1
 40
1
 10
255.534497
 20
199.058597
 30
0.0
 10
255.534497
 20
201.657915
 30
0.0
 10
256.921216
 20
204.059784
 30
0.0
 10
259.172292
 20
205.359443
 30
0.0
  0
SPLINE
  5
1e3
100
AcDbEntity
  8
Layer_1
 62
1
100
AcDbSpline
 70
8
 71
3
 72
8
 73
4
 74
0
 40
0
 40
0
 40
0
 40
0
 40
1
 40
1
 40
1
 40
1
 10
259.172292
 20
205.359443
 30
0.0
 10
261.423368
 20
206.659102
 30
0.0
 10
264.196807
 20
206.659102
 30
0.0
 10
266.447883
 20
205.359443
 30
0.0
  0
SPLINE
  5
1e4
100
AcDbEntity
  8
Layer_1
 62
1
100
AcDbSpline
 70
8
 71
3
 72
8
 73
4
 74
0
 40
0
 40
0
 40
0
 40
0
 40
1
 40
1
 40
1
 40
1
 10
266.447883
 20
205.359443
 30
0.0
 10
268.698959
 20
204.059784
 30
0.0
 10
270.085678
 20
201.657915
 30
0.0
 10
270.085678
 20
199.058597
 30
0.0
  0
LWPOLYLINE
  5
1e5
100
AcDbEntity
  8
Layer_1
 62
1
100
AcDbPolyline
 90
3
 70
0
 10
403.246653
 20
236.287183
 30
0.0
 10
344.285714
 20
236.287183
 30
0.0
 10
285.324776
 20
236.287183
 30
0.0
  0
LWPOLYLINE
  5
1e6
100
AcDbEntity
  8
Layer_1
 62
1
100
AcDbPolyline
 90
1
 70
1
 10
270.085678
 20
199.058597
 30
0.0
  0
SPLINE
  5
1e7
100
AcDbEntity
  8
Layer_1
 62
1
100
AcDbSpline
 70
8
 71
3
 72
8
 73
4
 74
0
 40
0
 40
0
 40
0
 40
0
 40
1
 40
1
 40
1
 40
1
 10
418.484859
 20
199.058597
 30
0.0
 10
418.484859
 20
196.459278
 30
0.0
 10
419.871579
 20
194.057409
 30
0.0
 10
422.122654
 20
192.757750
 30
0.0
  0
SPLINE
  5
1e8
100
AcDbEntity
  8
Layer_1
 62
1
100
AcDbSpline
 70
8
 71
3
 72
8
 73
4
 74
0
 40
0
 40
0
 40
0
 40
0
 40
1
 40
1
 40
1
 40
1
 10
422.122654
 20
192.757750
 30
0.0
 10
424.373730
 20
191.458091
 30
0.0
 10
427.147170
 20
191.458091
 30
0.0
 10
429.398245
 20
192.757750
 30
0.0
  0
SPLINE
  5
1e9
100
AcDbEntity
  8
Layer_1
 62
1
100
AcDbSpline
 70
8
 71
3
 72
8
 73
4
 74
0
 40
0
 40
0
 40
0
 40
0
 40
1
 40
1
 40
1
 40
1
 10
429.398245
 20
192.757750
 30
0.0
 10
431.649321
 20
194.057409
 30
0.0
 10
433.036041
 20
196.459278
 30
0.0
 10
433.036041
 20
199.058597
 30
0.0
  0
SPLINE
  5
1ea
100
AcDbEntity
  8
Layer_1
 62
1
100
AcDbSpline
 70
8
 71
3
 72
8
 73
4
 74
0
 40
0
 40
0
 40
0
 40
0
 40
1
 40
1
 40
1
 40
1
 10
433.036041
 20
199.058597
 30
0.0
 10
433.036041
 20
201.657915
 30
0.0
 10
431.649321
 20
204.059784
 30
0.0
 10
429.398245
 20
205.359443
 30
0.0
  0
SPLINE
  5
1eb
100
AcDbEntity
  8
Layer_1
 62
1
100
AcDbSpline
 70
8
 71
3
 72
8
 73
4
 74
0
 40
0
 40
0
 40
0
 40
0
 40
1
 40
1
 40
1
 40
1
 10
429.398245
 20
205.359443
 30
0.0
 10
427.147170
 20
206.659102
 30
0.0
 10
424.373730
 20
206.659102
 30
0.0
 10
422.122654
 20
205.359443
 30
0.0
  0
SPLINE
  5
1ec
100
AcDbEntity
  8
Layer_1
 62
1
100
AcDbSpline
 70
8
 71
3
 72
8
 73
4
 74
0
 40
0
 40
0
 40
0
 40
0
 40
1
 40
1
 40
1
 40
1
 10
422.122654
 20
205.359443
 30
0.0
 10
419.871579
 20
204.059784
 30
0.0
 10
418.484859
 20
201.657915
 30
0.0
 10
418.484859
 20
199.058597
 30
0.0
  0
LWPOLYLINE
  5
1ed
100
AcDbEntity
  8
Layer_1
 62
1
100
AcDbPolyline
 90
4
 70
1
 10
298.749275
 20
217.598846
 30
0.0
 10
304.229590
 20
217.598846
 30
0.0
 10
304.229590
 20
179.384557
 30
0.0
 10
298.749275
 20
179.384557
 30
0.0
  0
LWPOLYLINE
  5
1ee
100
AcDbEntity
  8
Layer_1
 62
1
100
AcDbPolyline
 90
1
 70
1
 10
418.484859
 20
199.058597
 30
0.0
  0
SPLINE
  5
1ef
100
AcDbEntity
  8
Layer_1
 62
1
100
AcDbSpline
 70
8
 71
3
 72
8
 73
4
 74
0
 40
0
 40
0
 40
0
 40
0
 40
1
 40
1
 40
1
 40
1
 10
285.324776
 20
155.790952
 30
0.0
 10
255.173294
 20
155.790952
 30
0.0
 10
230.898996
 20
148.035982
 30
0.0
 10
230.898996
 20
138.404234
 30
0.0
  0
LWPOLYLINE
  5
1f0
100
AcDbEntity
  8
Layer_1
 62
1
100
AcDbPolyline
 90
4
 70
1
 10
389.821262
 20
217.598846
 30
0.0
 10
384.340947
 20
217.598846
 30
0.0
 10
384.340947
 20
179.384557
 30
0.0
 10
389.821262
 20
179.384557
 30
0.0
  0
SPLINE
  5
1f1
100
AcDbEntity
  8
Layer_1
 62
1
100
AcDbSpline
 70
8
 71
3
 72
8
 73
4
 74
0
 40
0
 40
0
 40
0
 40
0
 40
1
 40
1
 40
1
 40
1
 10
230.898996
 20
97.585875
 30
0.0
 10
230.898996
 20
87.954127
 30
0.0
 10
255.173294
 20
80.199156
 30
0.0
 10
285.324776
 20
80.199156
 30
0.0
  0
LWPOLYLINE
  5
1f2
100
AcDbEntity
  8
Layer_1
 62
1
100
AcDbPolyline
 90
2
 70
0
 10
230.898996
 20
138.404234
 30
0.0
 10
230.898996
 20
97.585875
 30
0.0
  0
SPLINE
  5
1f3
100
AcDbEntity
  8
Layer_1
 62
1
100
AcDbSpline
 70
8
 71
3
 72
8
 73
4
 74
0
 40
0
 40
0
 40
0
 40
0
 40
1
 40
1
 40
1
 40
1
 10
403.246653
 20
80.199156
 30
0.0
 10
433.398133
 20
80.199156
 30
0.0
 10
457.672432
 20
87.954127
 30
0.0
 10
457.672432
 20
97.585875
 30
0.0
  0
LWPOLYLINE
  5
1f4
100
AcDbEntity
  8
Layer_1
 62
1
100
AcDbPolyline
 90
3
 70
0
 10
285.324776
 20
80.199156
 30
0.0
 10
344.285714
 20
80.199156
 30
0.0
 10
403.246653
 20
80.199156
 30
0.0
  0
SPLINE
  5
1f5
100
AcDbEntity
  8
Layer_1
 62
1
100
AcDbSpline
 70
8
 71
3
 72
8
 73
4
 74
0
 40
0
 40
0
 40
0
 40
0
 40
1
 40
1
 40
1
 40
1
 10
457.672432
 20
138.404234
 30
0.0
 10
457.672432
 20
148.035982
 30
0.0
 10
433.398133
 20
155.790952
 30
0.0
 10
403.246653
 20
155.790952
 30
0.0
  0
LWPOLYLINE
  5
1f6
100
AcDbEntity
  8
Layer_1
 62
1
100
AcDbPolyline
 90
2
 70
0
 10
457.672432
 20
97.585875
 30
0.0
 10
457.672432
 20
138.404234
 30
0.0
  0
SPLINE
  5
1f7
100
AcDbEntity
  8
Layer_1
 62
1
100
AcDbSpline
 70
8
 71
3
 72
8
 73
4
 74
0
 40
0
 40
0
 40
0
 40
0
 40
1
 40
1
 40
1
 40
1
 10
270.085678
 20
118.562366
 30
0.0
 10
270.085678
 20
115.963048
 30
0.0
 10
268.698959
 20
113.561179
 30
0.0
 10
266.447883
 20
112.261519
 30
0.0
  0
SPLINE
  5
1f8
100
AcDbEntity
  8
Layer_1
 62
1
100
AcDbSpline
 70
8
 71
3
 72
8
 73
4
 74
0
 40
0
 40
0
 40
0
 40
0
 40
1
 40
1
 40
1
 40
1
 10
266.447883
 20
112.261519
 30
0.0
 10
264.196807
 20
110.961860
 30
0.0
 10
261.423368
 20
110.961860
 30
0.0
 10
259.172292
 20
112.261519
 30
0.0
  0
SPLINE
  5
1f9
100
AcDbEntity
  8
Layer_1
 62
1
100
AcDbSpline
 70
8
 71
3
 72
8
 73
4
 74
0
 40
0
 40
0
 40
0
 40
0
 40
1
 40
1
 40
1
 40
1
 10
259.172292
 20
112.261519
 30
0.0
 10
256.921216
 20
113.561179
 30
0.0
 10
255.534497
 20
115.963048
 30
0.0
 10
255.534497
 20
118.562366
 30
0.0
  0
SPLINE
  5
1fa
100
AcDbEntity
  8
Layer_1
 62
1
100
AcDbSpline
 70
8
 71
3
 72
8
 73
4
 74
0
 40
0
 40
0
 40
0
 40
0
 40
1
 40
1
 40
1
 40
1
 10
255.534497
 20
118.562366
 30
0.0
 10
255.534497
 20
121.161684
 30
0.0
 10
256.921216
 20
123.563553
 30
0.0
 10
259.172292
 20
124.863213
 30
0.0
  0
SPLINE
  5
1fb
100
AcDbEntity
  8
Layer_1
 62
1
100
AcDbSpline
 70
8
 71
3
 72
8
 73
4
 74
0
 40
0
 40
0
 40
0
 40
0
 40
1
 40
1
 40
1
 40
1
 10
259.172292
 20
124.863213
 30
0.0
 10
261.423368
 20
126.162872
 30
0.0
 10
264.196807
 20
126.162872
 30
0.0
 10
266.447883
 20
124.863213
 30
0.0
  0
SPLINE
  5
1fc
100
AcDbEntity
  8
Layer_1
 62
1
100
AcDbSpline
 70
8
 71
3
 72
8
 73
4
 74
0
 40
0
 40
0
 40
0
 40
0
 40
1
 40
1
 40
1
 40
1
 10
266.447883
 20
124.863213
 30
0.0
 10
268.698959
 20
123.563553
 30
0.0
 10
270.085678
 20
121.161684
 30
0.0
 10
270.085678
 20
118.562366
 30
0.0
  0
LWPOLYLINE
  5
1fd
100
AcDbEntity
  8
Layer_1
 62
1
100
AcDbPolyline
 90
3
 70
0
 10
403.246653
 20
155.790952
 30
0.0
 10
344.285714
 20
155.790952
 30
0.0
 10
285.324776
 20
155.790952
 30
0.0
  0
LWPOLYLINE
  5
1fe
100
AcDbEntity
  8
Layer_1
 62
1
100
AcDbPolyline
 90
1
 70
1
 10
270.085678
 20
118.562366
 30
0.0
  0
SPLINE
  5
1ff
100
AcDbEntity
  8
Layer_1
 62
1
100
AcDbSpline
 70
8
 71
3
 72
8
 73
4
 74
0
 40
0
 40
0
 40
0
 40
0
 40
1
 40
1
 40
1
 40
1
 10
418.484859
 20
118.562366
 30
0.0
 10
418.484859
 20
115.963048
 30
0.0
 10
419.871579
 20
113.561179
 30
0.0
 10
422.122654
 20
112.261519
 30
0.0
  0
SPLINE
  5
200
100
AcDbEntity
  8
Layer_1
 62
1
100
AcDbSpline
 70
8
 71
3
 72
8
 73
4
 74
0
 40
0
 40
0
 40
0
 40
0
 40
1
 40
1
 40
1
 40
1
 10
422.122654
 20
112.261519
 30
0.0
 10
424.373730
 20
110.961860
 30
0.0
 10
427.147170
 20
110.961860
 30
0.0
 10
429.398245
 20
112.261519
 30
0.0
  0
SPLINE
  5
201
100
AcDbEntity
  8
Layer_1
 62
1
100
AcDbSpline
 70
8
 71
3
 72
8
 73
4
 74
0
 40
0
 40
0
 40
0
 40
0
 40
1
 40
1
 40
1
 40
1
 10
429.398245
 20
112.261519
 30
0.0
 10
431.649321
 20
113.561179
 30
0.0
 10
433.036041
 20
115.963048
 30
0.0
 10
433.036041
 20
118.562366
 30
0.0
  0
SPLINE
  5
202
100
AcDbEntity
  8
Layer_1
 62
1
100
AcDbSpline
 70
8
 71
3
 72
8
 73
4
 74
0
 40
0
 40
0
 40
0
 40
0
 40
1
 40
1
 40
1
 40
1
 10
433.036041
 20
118.562366
 30
0.0
 10
433.036041
 20
121.161684
 30
0.0
 10
431.649321
 20
123.563553
 30
0.0
 10
429.398245
 20
124.863213
 30
0.0
  0
SPLINE
  5
203
100
AcDbEntity
  8
Layer_1
 62
1
100
AcDbSpline
 70
8
 71
3
 72
8
 73
4
 74
0
 40
0
 40
0
 40
0
 40
0
 40
1
 40
1
 40
1
 40
1
 10
429.398245
 20
124.863213
 30
0.0
 10
427.147170
 20
126.162872
 30
0.0
 10
424.373730
 20
126.162872
 30
0.0
 10
422.122654
 20
124.863213
 30
0.0
  0
SPLINE
  5
204
100
AcDbEntity
  8
Layer_1
 62
1
100
AcDbSpline
 70
8
 71
3
 72
8
 73
4
 74
0
 40
0
 40
0
 40
0
 40
0
 40
1
 40
1
 40
1
 40
1
 10
422.122654
 20
124.863213
 30
0.0
 10
419.871579
 20
123.563553
 30
0.0
 10
418.484859
 20
121.161684
 30
0.0
 10
418.484859
 20
118.562366
 30
0.0
  0
LWPOLYLINE
  5
205
100
AcDbEntity
  8
Layer_1
 62
1
100
AcDbPolyline
 90
4
 70
1
 10
298.749275
 20
137.102615
 30
0.0
 10
304.229590
 20
137.102615
 30
0.0
 10
304.229590
 20
98.888326
 30
0.0
 10
298.749275
 20
98.888326
 30
0.0
  0
LWPOLYLINE
  5
206
100
AcDbEntity
  8
Layer_1
 62
1
100
AcDbPolyline
 90
1
 70
1
 10
418.484859
 20
118.562366
 30
0.0
  0
SPLINE
  5
207
100
AcDbEntity
  8
Layer_1
 62
1
100
AcDbSpline
 70
8
 71
3
 72
8
 73
4
 74
0
 40
0
 40
0
 40
0
 40
0
 40
1
 40
1
 40
1
 40
1
 10
285.324776
 20
75.686288
 30
0.0
 10
255.173294
 20
75.686288
 30
0.0
 10
230.898996
 20
67.931318
 30
0.0
 10
230.898996
 20
58.299570
 30
0.0
  0
LWPOLYLINE
  5
208
100
AcDbEntity
  8
Layer_1
 62
1
100
AcDbPolyline
 90
4
 70
1
 10
389.821262
 20
137.102615
 30
0.0
 10
384.340947
 20
137.102615
 30
0.0
 10
384.340947
 20
98.888326
 30
0.0
 10
389.821262
 20
98.888326
 30
0.0
  0
SPLINE
  5
209
100
AcDbEntity
  8
Layer_1
 62
1
100
AcDbSpline
 70
8
 71
3
 72
8
 73
4
 74
0
 40
0
 40
0
 40
0
 40
0
 40
1
 40
1
 40
1
 40
1
 10
230.898996
 20
17.481211
 30
0.0
 10
230.898996
 20
7.849463
 30
0.0
 10
255.173294
 20
0.094492
 30
0.0
 10
285.324776
 20
0.094492
 30
0.0
  0
LWPOLYLINE
  5
20a
100
AcDbEntity
  8
Layer_1
 62
1
100
AcDbPolyline
 90
2
 70
0
 10
230.898996
 20
58.299570
 30
0.0
 10
230.898996
 20
17.481211
 30
0.0
  0
SPLINE
  5
20b
100
AcDbEntity
  8
Layer_1
 62
1
100
AcDbSpline
 70
8
 71
3
 72
8
 73
4
 74
0
 40
0
 40
0
 40
0
 40
0
 40
1
 40
1
 40
1
 40
1
 10
403.246653
 20
0.094492
 30
0.0
 10
433.398133
 20
0.094492
 30
0.0
 10
457.672432
 20
7.849463
 30
0.0
 10
457.672432
 20
17.481211
 30
0.0
  0
LWPOLYLINE
  5
20c
100
AcDbEntity
  8
Layer_1
 62
1
100
AcDbPolyline
 90
3
 70
0
 10
285.324776
 20
0.094492
 30
0.0
 10
344.285714
 20
0.094492
 30
0.0
 10
403.246653
 20
0.094492
 30
0.0
  0
SPLINE
  5
20d
100
AcDbEntity
  8
Layer_1
 62
1
100
AcDbSpline
 70
8
 71
3
 72
8
 73
4
 74
0
 40
0
 40
0
 40
0
 40
0
 40
1
 40
1
 40
1
 40
1
 10
457.672432
 20
58.299570
 30
0.0
 10
457.672432
 20
67.931318
 30
0.0
 10
433.398133
 20
75.686288
 30
0.0
 10
403.246653
 20
75.686288
 30
0.0
  0
LWPOLYLINE
  5
20e
100
AcDbEntity
  8
Layer_1
 62
1
100
AcDbPolyline
 90
2
 70
0
 10
457.672432
 20
17.481211
 30
0.0
 10
457.672432
 20
58.299570
 30
0.0
  0
SPLINE
  5
20f
100
AcDbEntity
  8
Layer_1
 62
1
100
AcDbSpline
 70
8
 71
3
 72
8
 73
4
 74
0
 40
0
 40
0
 40
0
 40
0
 40
1
 40
1
 40
1
 40
1
 10
270.085678
 20
38.457702
 30
0.0
 10
270.085678
 20
35.858384
 30
0.0
 10
268.698959
 20
33.456515
 30
0.0
 10
266.447883
 20
32.156855
 30
0.0
  0
SPLINE
  5
210
100
AcDbEntity
  8
Layer_1
 62
1
100
AcDbSpline
 70
8
 71
3
 72
8
 73
4
 74
0
 40
0
 40
0
 40
0
 40
0
 40
1
 40
1
 40
1
 40
1
 10
266.447883
 20
32.156855
 30
0.0
 10
264.196807
 20
30.857196
 30
0.0
 10
261.423368
 20
30.857196
 30
0.0
 10
259.172292
 20
32.156855
 30
0.0
  0
SPLINE
  5
211
100
AcDbEntity
  8
Layer_1
 62
1
100
AcDbSpline
 70
8
 71
3
 72
8
 73
4
 74
0
 40
0
 40
0
 40
0
 40
0
 40
1
 40
1
 40
1
 40
1
 10
259.172292
 20
32.156855
 30
0.0
 10
256.921216
 20
33.456515
 30
0.0
 10
255.534497
 20
35.858384
 30
0.0
 10
255.534497
 20
38.457702
 30
0.0
  0
SPLINE
  5
212
100
AcDbEntity
  8
Layer_1
 62
1
100
AcDbSpline
 70
8
 71
3
 72
8
 73
4
 74
0
 40
0
 40
0
 40
0
 40
0
 40
1
 40
1
 40
1
 40
1
 10
255.534497
 20
38.457702
 30
0.0
 10
255.534497
 20
41.057020
 30
0.0
 10
256.921216
 20
43.458889
 30
0.0
 10
259.172292
 20
44.758549
 30
0.0
  0
SPLINE
  5
213
100
AcDbEntity
  8
Layer_1
 62
1
100
AcDbSpline
 70
8
 71
3
 72
8
 73
4
 74
0
 40
0
 40
0
 40
0
 40
0
 40
1
 40
1
 40
1
 40
1
 10
259.172292
 20
44.758549
 30
0.0
 10
261.423368
 20
46.058208
 30
0.0
 10
264.196807
 20
46.058208
 30
0.0
 10
266.447883
 20
44.758549
 30
0.0
  0
SPLINE
  5
214
100
AcDbEntity
  8
Layer_1
 62
1
100
AcDbSpline
 70
8
 71
3
 72
8
 73
4
 74
0
 40
0
 40
0
 40
0
 40
0
 40
1
 40
1
 40
1
 40
1
 10
266.447883
 20
44.758549
 30
0.0
 10
268.698959
 20
43.458889
 30
0.0
 10
270.085678
 20
41.057020
 30
0.0
 10
270.085678
 20
38.457702
 30
0.0
  0
LWPOLYLINE
  5
215
100
AcDbEntity
  8
Layer_1
 62
1
100
AcDbPolyline
 90
3
 70
0
 10
403.246653
 20
75.686288
 30
0.0
 10
344.285714
 20
75.686288
 30
0.0
 10
285.324776
 20
75.686288
 30
0.0
  0
LWPOLYLINE
  5
216
100
AcDbEntity
  8
Layer_1
 62
1
100
AcDbPolyline
 90
1
 70
1
 10
270.085678
 20
38.457702
 30
0.0
  0
SPLINE
  5
217
100
AcDbEntity
  8
Layer_1
 62
1
100
AcDbSpline
 70
8
 71
3
 72
8
 73
4
 74
0
 40
0
 40
0
 40
0
 40
0
 40
1
 40
1
 40
1
 40
1
 10
418.484859
 20
38.457702
 30
0.0
 10
418.484859
 20
35.858384
 30
0.0
 10
419.871579
 20
33.456515
 30
0.0
 10
422.122654
 20
32.156855
 30
0.0
  0
SPLINE
  5
218
100
AcDbEntity
  8
Layer_1
 62
1
100
AcDbSpline
 70
8
 71
3
 72
8
 73
4
 74
0
 40
0
 40
0
 40
0
 40
0
 40
1
 40
1
 40
1
 40
1
 10
422.122654
 20
32.156855
 30
0.0
 10
424.373730
 20
30.857196
 30
0.0
 10
427.147170
 20
30.857196
 30
0.0
 10
429.398245
 20
32.156855
 30
0.0
  0
SPLINE
  5
219
100
AcDbEntity
  8
Layer_1
 62
1
100
AcDbSpline
 70
8
 71
3
 72
8
 73
4
 74
0
 40
0
 40
0
 40
0
 40
0
 40
1
 40
1
 40
1
 40
1
 10
429.398245
 20
32.156855
 30
0.0
 10
431.649321
 20
33.456515
 30
0.0
 10
433.036041
 20
35.858384
 30
0.0
 10
433.036041
 20
38.457702
 30
0.0
  0
SPLINE
  5
21a
100
AcDbEntity
  8
Layer_1
 62
1
100
AcDbSpline
 70
8
 71
3
 72
8
 73
4
 74
0
 40
0
 40
0
 40
0
 40
0
 40
1
 40
1
 40
1
 40
1
 10
433.036041
 20
38.457702
 30
0.0
 10
433.036041
 20
41.057020
 30
0.0
 10
431.649321
 20
43.458889
 30
0.0
 10
429.398245
 20
44.758549
 30
0.0
  0
SPLINE
  5
21b
100
AcDbEntity
  8
Layer_1
 62
1
100
AcDbSpline
 70
8
 71
3
 72
8
 73
4
 74
0
 40
0
 40
0
 40
0
 40
0
 40
1
 40
1
 40
1
 40
1
 10
429.398245
 20
44.758549
 30
0.0
 10
427.147170
 20
46.058208
 30
0.0
 10
424.373730
 20
46.058208
 30
0.0
 10
422.122654
 20
44.758549
 30
0.0
  0
SPLINE
  5
21c
100
AcDbEntity
  8
Layer_1
 62
1
100
AcDbSpline
 70
8
 71
3
 72
8
 73
4
 74
0
 40
0
 40
0
 40
0
 40
0
 40
1
 40
1
 40
1
 40
1
 10
422.122654
 20
44.758549
 30
0.0
 10
419.871579
 20
43.458889
 30
0.0
 10
418.484859
 20
41.057020
 30
0.0
 10
418.484859
 20
38.457702
 30
0.0
  0
LWPOLYLINE
  5
21d
100
AcDbEntity
  8
Layer_1
 62
1
100
AcDbPolyline
 90
4
 70
1
 10
298.749275
 20
56.997951
 30
0.0
 10
304.229590
 20
56.997951
 30
0.0
 10
304.229590
 20
18.783662
 30
0.0
 10
298.749275
 20
18.783662
 30
0.0
  0
LWPOLYLINE
  5
21e
100
AcDbEntity
  8
Layer_1
 62
1
100
AcDbPolyline
 90
1
 70
1
 10
418.484859
 20
38.457702
 30
0.0
  0
LWPOLYLINE
  5
21f
100
AcDbEntity
  8
Layer_1
 62
1
100
AcDbPolyline
 90
4
 70
1
 10
389.821262
 20
56.997951
 30
0.0
 10
384.340947
 20
56.997951
 30
0.0
 10
384.340947
 20
18.783662
 30
0.0
 10
389.821262
 20
18.783662
 30
0.0
  0
ENDSEC
  0
SECTION
  2
OBJECTS
  0
DICTIONARY
  5
C
330
0
100
AcDbDictionary
  3
ACAD_GROUP
350
D
  3
ACAD_MLINESTYLE
350
17
  0
DICTIONARY
  5
D
330
C
100
AcDbDictionary
  0
DICTIONARY
  5
1A
330
C
100
AcDbDictionary
  0
DICTIONARY
  5
17
330
C
100
AcDbDictionary
  3
STANDARD
350
18
  0
DICTIONARY
  5
19
330
C
100
AcDbDictionary
  0
ENDSEC
  0
EOF
